<svg width="24" height="24" viewBox="0 0 24 24" fill="none" xmlns="http://www.w3.org/2000/svg">
<path d="M5.30775 20.4297C4.80908 20.4297 4.38308 20.2531 4.02975 19.8999C3.67658 19.5466 3.5 19.1206 3.5 18.6219V5.23744C3.5 4.73877 3.67658 4.31277 4.02975 3.95944C4.38308 3.60627 4.80908 3.42969 5.30775 3.42969H18.6923C19.1909 3.42969 19.6169 3.60627 19.9703 3.95944C20.3234 4.31277 20.5 4.73877 20.5 5.23744V7.95869H19V5.23744C19 5.1476 18.9712 5.07385 18.9135 5.01619C18.8558 4.95852 18.7821 4.92969 18.6923 4.92969H5.30775C5.21792 4.92969 5.14417 4.95852 5.0865 5.01619C5.02883 5.07385 5 5.1476 5 5.23744V18.6219C5 18.7118 5.02883 18.7855 5.0865 18.8432C5.14417 18.9009 5.21792 18.9297 5.30775 18.9297H18.6923C18.7821 18.9297 18.8558 18.9009 18.9135 18.8432C18.9712 18.7855 19 18.7118 19 18.6219V15.9007H20.5V18.6219C20.5 19.1206 20.3234 19.5466 19.9703 19.8999C19.6169 20.2531 19.1909 20.4297 18.6923 20.4297H5.30775ZM13.3077 16.4297C12.8091 16.4297 12.3831 16.2531 12.0297 15.8999C11.6766 15.5466 11.5 15.1206 11.5 14.6219V9.23744C11.5 8.73877 11.6766 8.31277 12.0297 7.95944C12.3831 7.60627 12.8091 7.42969 13.3077 7.42969H19.6923C20.1909 7.42969 20.6169 7.60627 20.9703 7.95944C21.3234 8.31277 21.5 8.73877 21.5 9.23744V14.6219C21.5 15.1206 21.3234 15.5466 20.9703 15.8999C20.6169 16.2531 20.1909 16.4297 19.6923 16.4297H13.3077ZM19.6923 14.9297C19.7821 14.9297 19.8558 14.9009 19.9135 14.8432C19.9712 14.7855 20 14.7118 20 14.6219V9.23744C20 9.1476 19.9712 9.07385 19.9135 9.01619C19.8558 8.95852 19.7821 8.92969 19.6923 8.92969H13.3077C13.2179 8.92969 13.1442 8.95852 13.0865 9.01619C13.0288 9.07385 13 9.1476 13 9.23744V14.6219C13 14.7118 13.0288 14.7855 13.0865 14.8432C13.1442 14.9009 13.2179 14.9297 13.3077 14.9297H19.6923ZM16 13.4297C16.4167 13.4297 16.7708 13.2839 17.0625 12.9922C17.3542 12.7005 17.5 12.3464 17.5 11.9297C17.5 11.513 17.3542 11.1589 17.0625 10.8672C16.7708 10.5755 16.4167 10.4297 16 10.4297C15.5833 10.4297 15.2292 10.5755 14.9375 10.8672C14.6458 11.1589 14.5 11.513 14.5 11.9297C14.5 12.3464 14.6458 12.7005 14.9375 12.9922C15.2292 13.2839 15.5833 13.4297 16 13.4297Z" fill="#20491D"/>
</svg>
