<svg width="22" height="22" viewBox="0 0 22 22" fill="none" xmlns="http://www.w3.org/2000/svg">
<circle cx="11" cy="11" r="11" fill="#50B848"/>
<path d="M17.125 11.5C17.125 11.6243 17.0756 11.7435 16.9877 11.8315C16.8998 11.9194 16.7806 11.9688 16.6562 11.9688H11.9688V16.6562C11.9688 16.7806 11.9194 16.8998 11.8315 16.9877C11.7435 17.0756 11.6243 17.125 11.5 17.125C11.3757 17.125 11.2565 17.0756 11.1685 16.9877C11.0806 16.8998 11.0312 16.7806 11.0312 16.6562V11.9688H6.34375C6.21943 11.9688 6.1002 11.9194 6.01229 11.8315C5.92439 11.7435 5.875 11.6243 5.875 11.5C5.875 11.3757 5.92439 11.2565 6.01229 11.1685C6.1002 11.0806 6.21943 11.0312 6.34375 11.0312H11.0312V6.34375C11.0312 6.21943 11.0806 6.1002 11.1685 6.01229C11.2565 5.92439 11.3757 5.875 11.5 5.875C11.6243 5.875 11.7435 5.92439 11.8315 6.01229C11.9194 6.1002 11.9688 6.21943 11.9688 6.34375V11.0312H16.6562C16.7806 11.0312 16.8998 11.0806 16.9877 11.1685C17.0756 11.2565 17.125 11.3757 17.125 11.5Z" fill="white"/>
</svg>
