<svg width="28" height="28" viewBox="0 0 28 28" fill="none" xmlns="http://www.w3.org/2000/svg">
<g clip-path="url(#clip0_18_666)">
<path fill-rule="evenodd" clip-rule="evenodd" d="M3.68258 1.63508C5.31475 1.27458 8.38308 0.875 14 0.875C19.6169 0.875 22.6852 1.27458 24.3174 1.63508C25.7483 1.95183 26.5679 3.1535 26.7184 4.45025C26.8987 6.00017 27.125 8.54758 27.125 11.55C27.125 17.381 24.0462 22.8707 18.8148 25.5628C17.171 26.4087 15.4006 27.125 14 27.125C12.5994 27.125 10.829 26.4087 9.18517 25.5628C3.95383 22.8707 0.875 17.381 0.875 11.55C0.875 8.54758 1.10133 6.00017 1.28158 4.45025C1.4315 3.1535 2.25167 1.95183 3.68258 1.63508ZM7.5145 15.9478C6.71147 14.6215 5.98462 13.2506 5.3375 11.8417C5.14908 11.4246 5.26983 10.9136 5.65425 10.7094C5.77617 10.6447 5.94883 10.542 6.13025 10.4352C6.45342 10.2439 6.80342 10.0368 6.93992 9.99775C7.13708 9.94175 7.34242 9.98783 7.5145 10.1057C8.29889 10.6513 9.0529 11.2394 9.77317 11.8673C10.5297 11.4187 11.3353 10.8372 12.1724 10.234C14.3984 8.62692 16.8449 6.86175 19.1666 7.00933C20.6442 7.10325 21.7916 8.211 22.5009 9.13383C22.9927 9.7755 22.7179 10.689 22.0121 11.0203C20.5625 11.6993 19.2628 12.2366 17.7917 12.8333C17.2976 14.4375 16.786 15.6292 16.443 16.4284L16.31 16.7393C16.1292 17.1652 15.8457 17.5303 15.4583 17.7368C15.3825 17.7765 15.2594 17.8506 15.1101 17.9398C14.6825 18.1953 14.0455 18.5757 13.7235 18.6503C13.2312 18.7635 12.8479 18.2799 12.9062 17.7368C13.0161 16.7031 13.1544 15.6725 13.321 14.6463C12.1485 15.0792 11.249 15.4863 10.5093 15.82C9.89042 16.1 9.3835 16.3292 8.92092 16.4809C8.39125 16.6559 7.82308 16.4477 7.5145 15.9478Z" fill="url(#paint0_linear_18_666)"/>
</g>
<defs>
<linearGradient id="paint0_linear_18_666" x1="0.875" y1="14" x2="27.125" y2="14" gradientUnits="userSpaceOnUse">
<stop stop-color="#009979"/>
<stop offset="1" stop-color="#50B848"/>
</linearGradient>
<clipPath id="clip0_18_666">
<rect width="28" height="28" fill="white"/>
</clipPath>
</defs>
</svg>
