<svg width="20" height="20" viewBox="0 0 20 20" fill="none" xmlns="http://www.w3.org/2000/svg">
<path d="M4.41073 6.83559C4.2346 6.65947 3.99573 6.56052 3.74666 6.56052C3.49759 6.56052 3.25872 6.65947 3.0826 6.83559C2.90648 7.01171 2.80753 7.25058 2.80753 7.49965C2.80753 7.74872 2.90648 7.98759 3.0826 8.16371L9.3326 14.4137C9.4197 14.5011 9.52319 14.5705 9.63715 14.6178C9.7511 14.6651 9.87328 14.6895 9.99666 14.6895C10.1201 14.6895 10.2422 14.6651 10.3562 14.6178C10.4701 14.5705 10.5736 14.5011 10.6607 14.4137L16.9107 8.16371C17.0868 7.98759 17.1858 7.74872 17.1858 7.49965C17.1858 7.25058 17.0868 7.01171 16.9107 6.83559C16.7346 6.65947 16.4957 6.56052 16.2467 6.56052C15.9976 6.56052 15.7587 6.65947 15.5826 6.83559L9.99744 12.4207L4.41073 6.83559Z" fill="black"/>
</svg>
