<svg width="9" height="16" viewBox="0 0 9 16" fill="none" xmlns="http://www.w3.org/2000/svg">
<path d="M0.83681 13.5866C0.66069 13.7627 0.561747 14.0016 0.561747 14.2507C0.561747 14.4997 0.66069 14.7386 0.83681 14.9147C1.01293 15.0908 1.2518 15.1898 1.50087 15.1898C1.74994 15.1898 1.98881 15.0908 2.16494 14.9147L8.41494 8.66471C8.50233 8.57762 8.57168 8.47412 8.619 8.36017C8.66632 8.24621 8.69067 8.12404 8.69067 8.00065C8.69067 7.87726 8.66632 7.75509 8.619 7.64113C8.57168 7.52718 8.50233 7.42368 8.41494 7.33659L2.16494 1.08659C1.98881 0.910467 1.74994 0.811523 1.50087 0.811523C1.2518 0.811523 1.01293 0.910467 0.83681 1.08659C0.66069 1.26271 0.561747 1.50158 0.561747 1.75065C0.561747 1.99972 0.66069 2.23859 0.83681 2.41471L6.42197 7.99987L0.83681 13.5866Z" fill="black"/>
</svg>
