<svg width="24" height="24" viewBox="0 0 24 24" fill="none" xmlns="http://www.w3.org/2000/svg">
<path d="M7.25 16.6797H13.75V15.1797H7.25V16.6797ZM7.25 12.6797H16.75V11.1797H7.25V12.6797ZM7.25 8.67969H16.75V7.17969H7.25V8.67969ZM5.30775 20.4297C4.80258 20.4297 4.375 20.2547 4.025 19.9047C3.675 19.5547 3.5 19.1271 3.5 18.6219V5.23744C3.5 4.73227 3.675 4.30469 4.025 3.95469C4.375 3.60469 4.80258 3.42969 5.30775 3.42969H18.6923C19.1974 3.42969 19.625 3.60469 19.975 3.95469C20.325 4.30469 20.5 4.73227 20.5 5.23744V18.6219C20.5 19.1271 20.325 19.5547 19.975 19.9047C19.625 20.2547 19.1974 20.4297 18.6923 20.4297H5.30775ZM5.30775 18.9297H18.6923C18.7692 18.9297 18.8398 18.8976 18.9038 18.8334C18.9679 18.7694 19 18.6989 19 18.6219V5.23744C19 5.16044 18.9679 5.08994 18.9038 5.02594C18.8398 4.96177 18.7692 4.92969 18.6923 4.92969H5.30775C5.23075 4.92969 5.16025 4.96177 5.09625 5.02594C5.03208 5.08994 5 5.16044 5 5.23744V18.6219C5 18.6989 5.03208 18.7694 5.09625 18.8334C5.16025 18.8976 5.23075 18.9297 5.30775 18.9297Z" fill="#306E2B"/>
</svg>
