<svg width="18" height="18" viewBox="0 0 18 18" fill="none" xmlns="http://www.w3.org/2000/svg">
<path d="M3 6C3 3.879 3 2.81775 3.65925 2.15925C4.31775 1.5 5.379 1.5 7.5 1.5H10.5C12.621 1.5 13.6823 1.5 14.3408 2.15925C15 2.81775 15 3.879 15 6V12C15 14.121 15 15.1823 14.3408 15.8408C13.6823 16.5 12.621 16.5 10.5 16.5H7.5C5.379 16.5 4.31775 16.5 3.65925 15.8408C3 15.1823 3 14.121 3 12V6Z" stroke="white" stroke-width="1.125"/>
<path d="M14.9235 12H5.9235C5.226 12 4.87725 12 4.59075 12.0765C4.20923 12.1788 3.86137 12.3797 3.58213 12.6591C3.3029 12.9385 3.10212 13.2864 3 13.668" stroke="white" stroke-width="1.125"/>
<path d="M6 5.25H12M6 7.875H9.75" stroke="white" stroke-width="1.125" stroke-linecap="round"/>
</svg>
