t<svg width="60" height="480" viewBox="0 0 60 480" fill="none" xmlns="http://www.w3.org/2000/svg">
<rect width="60" height="480" fill="url(#paint0_linear_2_1827)"/>
<path d="M34.7482 152.248V142.845H36.3233V154.135H21.215V152.248H34.7482ZM21.215 135.235C21.215 130.39 24.475 127.04 28.7257 127.04H28.7706C33.0213 127.04 36.3233 130.39 36.3233 135.235V140.588H21.215V135.235ZM27.6056 118.006L21.215 113.85V110.104H36.3233V113.557H26.4591L32.9112 118.006V118.096L26.5265 122.5H36.3233V125.91H21.215V122.162L27.6056 118.006ZM29.63 104.426C32.0501 104.426 33.3047 103.162 33.3048 101.074C33.3048 98.9866 32.0936 97.7217 29.7345 97.7217H21.215V94.2988H29.6075C34.1113 94.2989 36.3233 96.9437 36.3233 101.117C36.3233 105.292 34.0932 107.847 29.715 107.847H21.215V104.426H29.63ZM24.2804 78.4932V83.4688H36.3233V87.0664H24.2804L24.2804 92.041H21.215L21.215 78.4932H24.2804ZM29.63 72.8115C32.0502 72.8115 33.3048 71.5467 33.3048 69.457C33.3046 67.3729 32.0934 66.1065 29.7345 66.1064H21.215V62.6865H29.6075C34.1112 62.6866 36.3233 65.3283 36.3233 69.5039C36.3233 73.6762 34.0932 76.2352 29.715 76.2354H21.215V72.8115H29.63ZM36.3233 46.8809V50.5547L32.9591 52.0176V58.7715L36.3233 60.2305V63.8154L21.215 56.9688V53.7295L36.3233 46.8809ZM21.2306 163.986C21.2306 159.101 24.659 155.822 28.6202 155.822C28.6409 155.797 28.641 155.797 28.6632 155.822C32.6229 155.822 36.0937 159.147 36.0939 164.034C36.0939 168.919 32.6678 172.2 28.7032 172.2H28.6632C24.7004 172.2 21.2306 168.873 21.2306 163.986ZM32.9728 41.7441V34.0537H35.8468V45.1348H21.4767V41.7441H32.9728ZM34.7491 138.848V135.236C34.7491 131.335 32.1582 128.847 28.8126 128.847H28.7706C25.4235 128.847 22.7901 131.335 22.7901 135.236V138.848H34.7491ZM22.7276 164.033C22.7278 167.703 25.3547 170.319 28.6192 170.319H28.6622C31.9253 170.319 34.5939 167.658 34.5939 163.984C34.5937 160.316 31.9669 157.7 28.7023 157.7H28.6622C25.3976 157.7 22.7276 160.361 22.7276 164.033ZM30.045 57.5156V53.2715L25.1808 55.3916L30.045 57.5156Z" fill="white"/>
<defs>
<linearGradient id="paint0_linear_2_1827" x1="0.548721" y1="-0.00157356" x2="0.523544" y2="471.225" gradientUnits="userSpaceOnUse">
<stop stop-color="#009677"/>
<stop offset="1" stop-color="#50B848"/>
</linearGradient>
</defs>
</svg>
