<svg width="49" height="48" viewBox="0 0 49 48" fill="none" xmlns="http://www.w3.org/2000/svg">
<path fill-rule="evenodd" clip-rule="evenodd" d="M24.5 5.25C24.9142 5.25 25.25 5.58579 25.25 6V12.2609C25.25 12.6751 24.9142 13.0109 24.5 13.0109C24.0858 13.0109 23.75 12.6751 23.75 12.2609V6C23.75 5.58579 24.0858 5.25 24.5 5.25ZM11.2412 10.7414C11.5341 10.4485 12.0089 10.4484 12.3019 10.7412L16.7299 15.1677C17.0228 15.4605 17.0229 15.9354 16.7301 16.2283C16.4372 16.5213 15.9624 16.5214 15.6694 16.2285L11.2414 11.8021C10.9485 11.5092 10.9484 11.0344 11.2412 10.7414ZM37.7588 10.7414C38.0516 11.0344 38.0515 11.5092 37.7586 11.8021L33.3306 16.2285C33.0376 16.5214 32.5628 16.5213 32.2699 16.2283C31.9771 15.9354 31.9772 15.4605 32.2701 15.1677L36.6981 10.7412C36.9911 10.4484 37.4659 10.4485 37.7588 10.7414ZM24.5 18.4891C21.4564 18.4891 18.9891 20.9564 18.9891 24C18.9891 27.0436 21.4564 29.5109 24.5 29.5109C27.5436 29.5109 30.0109 27.0436 30.0109 24C30.0109 20.9564 27.5436 18.4891 24.5 18.4891ZM17.4891 24C17.4891 20.128 20.628 16.9891 24.5 16.9891C28.372 16.9891 31.5109 20.128 31.5109 24C31.5109 27.872 28.372 31.0109 24.5 31.0109C20.628 31.0109 17.4891 27.872 17.4891 24ZM5.75 24C5.75 23.5858 6.08579 23.25 6.5 23.25H12.7609C13.1751 23.25 13.5109 23.5858 13.5109 24C13.5109 24.4142 13.1751 24.75 12.7609 24.75H6.5C6.08579 24.75 5.75 24.4142 5.75 24ZM35.4891 24C35.4891 23.5858 35.8249 23.25 36.2391 23.25H42.5C42.9142 23.25 43.25 23.5858 43.25 24C43.25 24.4142 42.9142 24.75 42.5 24.75H36.2391C35.8249 24.75 35.4891 24.4142 35.4891 24ZM16.73 31.77C17.0229 32.0629 17.0229 32.5378 16.73 32.8307L12.302 37.2587C12.0091 37.5516 11.5342 37.5516 11.2413 37.2587C10.9484 36.9658 10.9484 36.4909 11.2413 36.198L15.6693 31.77C15.9622 31.4771 16.4371 31.4771 16.73 31.77ZM32.27 31.77C32.5629 31.4771 33.0378 31.4771 33.3307 31.77L37.7587 36.198C38.0516 36.4909 38.0516 36.9658 37.7587 37.2587C37.4658 37.5516 36.9909 37.5516 36.698 37.2587L32.27 32.8307C31.9771 32.5378 31.9771 32.0629 32.27 31.77ZM24.5 34.9891C24.9142 34.9891 25.25 35.3249 25.25 35.7391V42C25.25 42.4142 24.9142 42.75 24.5 42.75C24.0858 42.75 23.75 42.4142 23.75 42V35.7391C23.75 35.3249 24.0858 34.9891 24.5 34.9891Z" fill="#50B848"/>
</svg>
