<svg width="24" height="24" viewBox="0 0 24 24" fill="none" xmlns="http://www.w3.org/2000/svg">
<path d="M16.3242 20.585C15.4043 20.585 14.458 20.4238 13.4854 20.1016C12.5186 19.7793 11.5371 19.293 10.541 18.6426C9.54492 17.9922 8.55176 17.1748 7.56152 16.1904C6.57129 15.2119 5.74805 14.2275 5.0918 13.2373C4.43555 12.2412 3.94336 11.2686 3.61523 10.3193C3.29297 9.36426 3.13184 8.45605 3.13184 7.59473C3.13184 7.02051 3.1875 6.51367 3.29883 6.07422C3.41016 5.63477 3.58008 5.23633 3.80859 4.87891C4.03711 4.51563 4.33301 4.16992 4.69629 3.8418C4.71973 3.8125 4.74902 3.7832 4.78418 3.75391C4.81934 3.72461 4.85449 3.69238 4.88965 3.65723C5.46973 3.15918 6.0498 2.91309 6.62988 2.91895C6.96973 2.9248 7.29785 3.01855 7.61426 3.2002C7.93066 3.38184 8.21777 3.65723 8.47559 4.02637L10.3652 6.71582C10.5879 7.02051 10.6904 7.34863 10.6729 7.7002C10.6553 8.0459 10.5527 8.37988 10.3652 8.70215L9.61816 9.93262C9.44238 10.2314 9.42773 10.4951 9.57422 10.7236C9.73828 10.9814 9.95801 11.2773 10.2334 11.6113C10.5146 11.9395 10.7988 12.2471 11.0859 12.5342C11.2852 12.7393 11.5049 12.9473 11.7451 13.1582C11.9854 13.3691 12.2139 13.5654 12.4307 13.7471C12.6533 13.9229 12.832 14.0605 12.9668 14.1602C13.1426 14.2832 13.3008 14.3418 13.4414 14.3359C13.582 14.3242 13.7314 14.2803 13.8896 14.2041L15.1729 13.5625C15.5947 13.3457 15.9814 13.2461 16.333 13.2637C16.6904 13.2812 17.0596 13.4219 17.4404 13.6855L19.7344 15.2676C20.127 15.5371 20.4111 15.8271 20.5869 16.1377C20.7686 16.4424 20.8594 16.7646 20.8594 17.1045C20.8594 17.3857 20.7949 17.6787 20.666 17.9834C20.5371 18.2822 20.3467 18.5752 20.0947 18.8623C20.0596 18.8975 20.0273 18.9326 19.998 18.9678C19.9688 19.0029 19.9365 19.0381 19.9014 19.0732C19.415 19.6006 18.8906 19.9844 18.3281 20.2246C17.7656 20.4648 17.0977 20.585 16.3242 20.585ZM16.3066 19.0381C16.7754 19.0264 17.2061 18.9385 17.5986 18.7744C17.9971 18.6104 18.3398 18.3643 18.627 18.0361C18.6562 18.001 18.6826 17.9688 18.7061 17.9395C18.7354 17.9102 18.7617 17.8779 18.7852 17.8428C18.9902 17.6025 19.0928 17.3594 19.0928 17.1133C19.0928 16.9844 19.0635 16.8643 19.0049 16.7529C18.9521 16.6416 18.8584 16.542 18.7236 16.4541L16.7285 15.1357C16.5645 15.0303 16.4004 14.9805 16.2363 14.9863C16.0781 14.9922 15.9023 15.042 15.709 15.1357L14.3906 15.7861C14.0039 15.9795 13.6641 16.0645 13.3711 16.041C13.0781 16.0117 12.7881 15.9004 12.501 15.707C12.3135 15.584 12.082 15.4141 11.8066 15.1973C11.5312 14.9805 11.2354 14.7344 10.9189 14.459C10.6084 14.1836 10.3066 13.9023 10.0137 13.6152C9.63281 13.2344 9.2666 12.8301 8.91504 12.4023C8.56934 11.9746 8.27051 11.585 8.01855 11.2334C7.8252 10.958 7.72266 10.6826 7.71094 10.4072C7.69922 10.126 7.78125 9.83594 7.95703 9.53711L8.79199 8.13086C8.97363 7.81445 8.98242 7.53613 8.81836 7.2959L7.29785 5.02832C7.13379 4.78223 6.91406 4.65918 6.63867 4.65918C6.52148 4.65918 6.40137 4.68555 6.27832 4.73828C6.15527 4.78516 6.03223 4.86133 5.90918 4.9668C5.87988 4.99023 5.84766 5.0166 5.8125 5.0459C5.7832 5.06934 5.75098 5.0957 5.71582 5.125C5.3877 5.41211 5.13867 5.75781 4.96875 6.16211C4.79883 6.56055 4.71094 7.00586 4.70508 7.49805C4.69336 8.22461 4.8457 9.0127 5.16211 9.8623C5.48438 10.7061 5.94727 11.5703 6.55078 12.4551C7.1543 13.3398 7.88672 14.2041 8.74805 15.0479C9.59766 15.8916 10.4619 16.6123 11.3408 17.21C12.2197 17.8076 13.0811 18.2617 13.9248 18.5723C14.7686 18.8887 15.5625 19.0439 16.3066 19.0381Z" fill="black"/>
</svg>
