<svg width="24" height="24" viewBox="0 0 24 24" fill="none" xmlns="http://www.w3.org/2000/svg">
<path d="M7.4 15.6442L10.45 12.6038L12.45 14.6038L16.25 10.8193V12.75H17.75V8.25H13.25V9.75H15.1807L12.45 12.4808L10.45 10.4807L6.35575 14.6L7.4 15.6442ZM5.30775 20.5C4.80258 20.5 4.375 20.325 4.025 19.975C3.675 19.625 3.5 19.1974 3.5 18.6922V5.30775C3.5 4.80258 3.675 4.375 4.025 4.025C4.375 3.675 4.80258 3.5 5.30775 3.5H18.6922C19.1974 3.5 19.625 3.675 19.975 4.025C20.325 4.375 20.5 4.80258 20.5 5.30775V18.6922C20.5 19.1974 20.325 19.625 19.975 19.975C19.625 20.325 19.1974 20.5 18.6922 20.5H5.30775ZM5.30775 19H18.6922C18.7692 19 18.8397 18.9679 18.9037 18.9037C18.9679 18.8397 19 18.7692 19 18.6922V5.30775C19 5.23075 18.9679 5.16025 18.9037 5.09625C18.8397 5.03208 18.7692 5 18.6922 5H5.30775C5.23075 5 5.16025 5.03208 5.09625 5.09625C5.03208 5.16025 5 5.23075 5 5.30775V18.6922C5 18.7692 5.03208 18.8397 5.09625 18.9037C5.16025 18.9679 5.23075 19 5.30775 19Z" fill="#306E2B"/>
</svg>
