<svg width="28" height="28" viewBox="0 0 28 28" fill="none" xmlns="http://www.w3.org/2000/svg">
<path d="M23.625 1.75C21.5364 1.75 19.5334 2.57968 18.0565 4.05653C16.5797 5.53338 15.75 7.53642 15.75 9.625V12.25C15.75 12.7141 15.9344 13.1592 16.2626 13.4874C16.5908 13.8156 17.0359 14 17.5 14H19.152L19.117 14.3342C19.0365 15.1252 18.9262 16.1927 18.816 17.3092C18.6007 19.5055 18.375 21.9695 18.375 22.75C18.375 23.6783 18.7437 24.5685 19.4001 25.2249C20.0565 25.8813 20.9467 26.25 21.875 26.25C22.8033 26.25 23.6935 25.8813 24.3499 25.2249C25.0063 24.5685 25.375 23.6783 25.375 22.75C25.375 21.9695 25.1493 19.5055 24.934 17.3075C24.8047 16.0003 24.6705 14.6937 24.5315 13.3875L24.5 13.0778V2.625C24.5 2.39294 24.4078 2.17038 24.2437 2.00628C24.0796 1.84219 23.8571 1.75 23.625 1.75Z" fill="url(#paint0_linear_18_661)"/>
<path d="M11.7653 1.8445C11.881 1.90191 11.9827 1.98425 12.0629 2.08561C12.1431 2.18698 12.1998 2.30485 12.229 2.43075C12.2605 2.569 13.125 6.2685 13.125 8.75C13.125 10.4125 12.3515 11.8948 11.1475 12.8555C10.71 13.2055 10.5 13.587 10.5 13.9055V14.756C10.5 14.7968 10.5023 14.8353 10.507 14.8715C10.5665 15.3055 10.7817 16.9173 10.983 18.5885C11.1807 20.2283 11.375 22.0168 11.375 22.75C11.375 23.6783 11.0063 24.5685 10.3499 25.2249C9.6935 25.8813 8.80326 26.25 7.875 26.25C6.94674 26.25 6.0565 25.8813 5.40013 25.2249C4.74375 24.5685 4.375 23.6783 4.375 22.75C4.375 22.015 4.56925 20.23 4.767 18.5885C4.96825 16.9173 5.1835 15.3055 5.243 14.8715L5.25 14.756V13.9055C5.25 13.587 5.04 13.2055 4.6025 12.8555C3.98559 12.3637 3.48745 11.7393 3.14509 11.0285C2.80273 10.3177 2.62497 9.53893 2.625 8.75C2.625 6.27725 3.4825 2.597 3.521 2.4325C3.56649 2.23797 3.67656 2.0646 3.83324 1.94065C3.98992 1.8167 4.18397 1.7495 4.38375 1.75C4.87375 1.75 5.271 2.14725 5.271 2.63725V7.88375C5.2641 8.00193 5.2815 8.12027 5.32211 8.23146C5.36273 8.34265 5.42571 8.44434 5.50716 8.53024C5.5886 8.61615 5.6868 8.68445 5.79567 8.73093C5.90454 8.77741 6.02178 8.80107 6.14016 8.80048C6.25854 8.79988 6.37554 8.77502 6.48393 8.72744C6.59233 8.67987 6.68982 8.61058 6.7704 8.52385C6.85097 8.43713 6.91292 8.33481 6.95241 8.22321C6.9919 8.11161 7.00809 7.9931 7 7.875V2.625C7 2.39294 7.09219 2.17038 7.25628 2.00628C7.42038 1.84219 7.64294 1.75 7.875 1.75C8.10706 1.75 8.32962 1.84219 8.49372 2.00628C8.65781 2.17038 8.75 2.39294 8.75 2.625V7.9205C8.75487 8.15025 8.85081 8.36864 9.01671 8.52765C9.18261 8.68666 9.40488 8.77325 9.63462 8.76838C9.86437 8.7635 10.0828 8.66757 10.2418 8.50167C10.4008 8.33577 10.4874 8.1135 10.4825 7.88375V2.63375C10.4825 2.1455 10.878 1.75 11.368 1.75C11.4065 1.75 11.578 1.75 11.7653 1.8445Z" fill="url(#paint1_linear_18_661)"/>
<defs>
<linearGradient id="paint0_linear_18_661" x1="15.75" y1="14" x2="25.375" y2="14" gradientUnits="userSpaceOnUse">
<stop stop-color="#009979"/>
<stop offset="1" stop-color="#50B848"/>
</linearGradient>
<linearGradient id="paint1_linear_18_661" x1="2.625" y1="14" x2="13.125" y2="14" gradientUnits="userSpaceOnUse">
<stop stop-color="#009979"/>
<stop offset="1" stop-color="#50B848"/>
</linearGradient>
</defs>
</svg>
