<svg width="24" height="24" viewBox="0 0 24 24" fill="none" xmlns="http://www.w3.org/2000/svg">
<path d="M9.71094 17.7734C9.53906 17.7734 9.39844 17.724 9.28906 17.625C9.1849 17.5208 9.13021 17.3854 9.125 17.2188L8.89062 9.17188C8.88542 9.00521 8.9349 8.86979 9.03906 8.76562C9.14844 8.66146 9.28906 8.60938 9.46094 8.60938C9.63281 8.60938 9.77344 8.66146 9.88281 8.76562C9.99219 8.86458 10.0469 8.9974 10.0469 9.16406L10.2812 17.2109C10.2865 17.3776 10.2344 17.513 10.125 17.6172C10.0208 17.7214 9.88281 17.7734 9.71094 17.7734ZM12 17.7734C11.8281 17.7734 11.6875 17.724 11.5781 17.625C11.4688 17.5208 11.4141 17.3854 11.4141 17.2188V9.16406C11.4141 9.0026 11.4688 8.86979 11.5781 8.76562C11.6875 8.66146 11.8281 8.60938 12 8.60938C12.1771 8.60938 12.3177 8.66146 12.4219 8.76562C12.5312 8.86979 12.5859 9.0026 12.5859 9.16406V17.2188C12.5859 17.3854 12.5312 17.5208 12.4219 17.625C12.3177 17.724 12.1771 17.7734 12 17.7734ZM14.2969 17.7734C14.1146 17.7734 13.9714 17.7214 13.8672 17.6172C13.763 17.513 13.7135 17.3776 13.7188 17.2109L13.9531 9.17188C13.9583 9 14.013 8.86458 14.1172 8.76562C14.2266 8.66146 14.3672 8.60938 14.5391 8.60938C14.7161 8.60938 14.8542 8.66146 14.9531 8.76562C15.0573 8.86979 15.1068 9.00521 15.1016 9.17188L14.875 17.2188C14.8698 17.3854 14.8125 17.5208 14.7031 17.625C14.599 17.724 14.4635 17.7734 14.2969 17.7734ZM8.35156 6.32031V4.67188C8.35156 4.04688 8.53906 3.5625 8.91406 3.21875C9.29427 2.875 9.82552 2.70312 10.5078 2.70312H13.4766C14.1641 2.70312 14.6953 2.875 15.0703 3.21875C15.4505 3.5625 15.6406 4.04688 15.6406 4.67188V6.32031H14.0234V4.73438C14.0234 4.55208 13.9635 4.40625 13.8438 4.29688C13.724 4.1875 13.5625 4.13281 13.3594 4.13281H10.625C10.4219 4.13281 10.2604 4.1875 10.1406 4.29688C10.0208 4.40625 9.96094 4.55208 9.96094 4.73438V6.32031H8.35156ZM4.96094 7.35938C4.74219 7.35938 4.55729 7.28646 4.40625 7.14062C4.25521 6.98958 4.17969 6.80469 4.17969 6.58594C4.17969 6.3724 4.25521 6.19271 4.40625 6.04688C4.55729 5.89583 4.74219 5.82031 4.96094 5.82031H19.0391C19.2578 5.82031 19.4427 5.89323 19.5938 6.03906C19.7448 6.1849 19.8203 6.36719 19.8203 6.58594C19.8203 6.80469 19.7448 6.98958 19.5938 7.14062C19.4479 7.28646 19.263 7.35938 19.0391 7.35938H4.96094ZM8.40625 20.5312C7.77083 20.5312 7.26562 20.3568 6.89062 20.0078C6.51562 19.6589 6.3125 19.1667 6.28125 18.5312L5.75 7.21094H7.34375L7.86719 18.2109C7.8776 18.4401 7.94792 18.625 8.07812 18.7656C8.21354 18.9062 8.38542 18.9766 8.59375 18.9766H15.3984C15.612 18.9766 15.7839 18.9062 15.9141 18.7656C16.0495 18.6302 16.1224 18.4453 16.1328 18.2109L16.6328 7.21094H18.25L17.7188 18.5234C17.6927 19.1589 17.4896 19.651 17.1094 20C16.7344 20.3542 16.2318 20.5312 15.6016 20.5312H8.40625Z" fill="#306E2B"/>
</svg>
