<svg width="20" height="21" viewBox="0 0 20 21" fill="none" xmlns="http://www.w3.org/2000/svg">
<path d="M5.25646 19.6792C4.83549 19.6792 4.47917 19.5334 4.1875 19.2417C3.89583 18.9501 3.75 18.5937 3.75 18.1728V9.51902C3.75 9.09805 3.89583 8.74173 4.1875 8.45007C4.47917 8.1584 4.83549 8.01257 5.25646 8.01257H7.38771V9.26256H5.25646C5.19229 9.26256 5.13354 9.2893 5.08021 9.34277C5.02674 9.39611 5 9.45486 5 9.51902V18.1728C5 18.2369 5.02674 18.2957 5.08021 18.349C5.13354 18.4025 5.19229 18.4292 5.25646 18.4292H14.7435C14.8077 18.4292 14.8665 18.4025 14.9198 18.349C14.9733 18.2957 15 18.2369 15 18.1728V9.51902C15 9.45486 14.9733 9.39611 14.9198 9.34277C14.8665 9.2893 14.8077 9.26256 14.7435 9.26256H12.6123V8.01257H14.7435C15.1645 8.01257 15.5208 8.1584 15.8125 8.45007C16.1042 8.74173 16.25 9.09805 16.25 9.51902V18.1728C16.25 18.5937 16.1042 18.9501 15.8125 19.2417C15.5208 19.5334 15.1645 19.6792 14.7435 19.6792H5.25646ZM9.375 14.0542V4.86194L7.83333 6.40361L6.95521 5.51257L10 2.46777L13.0448 5.51257L12.1667 6.40361L10.625 4.86194V14.0542H9.375Z" fill="black"/>
</svg>
