<svg width="32" height="33" viewBox="0 0 32 33" fill="none" xmlns="http://www.w3.org/2000/svg">
<path d="M8.41033 29.1673C7.73678 29.1673 7.16667 28.934 6.7 28.4673C6.23333 28.0007 6 27.4305 6 26.757V6.24432C6 5.57076 6.23333 5.00065 6.7 4.53398C7.16667 4.06732 7.73678 3.83398 8.41033 3.83398H19L26 10.834V26.757C26 27.4305 25.7667 28.0007 25.3 28.4673C24.8333 28.934 24.2632 29.1673 23.5897 29.1673H8.41033ZM18 11.834V5.83398H8.41033C8.30767 5.83398 8.21367 5.87676 8.12833 5.96232C8.04278 6.04765 8 6.14165 8 6.24432V26.757C8 26.8597 8.04278 26.9537 8.12833 27.039C8.21367 27.1245 8.30767 27.1673 8.41033 27.1673H23.5897C23.6923 27.1673 23.7863 27.1245 23.8717 27.039C23.9572 26.9537 24 26.8597 24 26.757V11.834H18Z" fill="black"/>
</svg>
