<svg width="18" height="18" viewBox="0 0 18 18" fill="none" xmlns="http://www.w3.org/2000/svg">
<path d="M15.9827 5.15839L12.8412 2.01612C12.7367 1.91163 12.6127 1.82874 12.4762 1.77218C12.3397 1.71563 12.1933 1.68652 12.0456 1.68652C11.8978 1.68652 11.7515 1.71563 11.615 1.77218C11.4785 1.82874 11.3545 1.91163 11.25 2.01612L2.57977 10.6871C2.47485 10.7911 2.39167 10.915 2.33506 11.0516C2.27844 11.1881 2.24953 11.3345 2.25001 11.4823V14.6246C2.25001 14.9229 2.36853 15.2091 2.57951 15.4201C2.79049 15.631 3.07664 15.7496 3.37501 15.7496H6.51727C6.66506 15.75 6.81147 15.7211 6.94799 15.6645C7.08451 15.6079 7.20842 15.5247 7.31251 15.4198L15.9827 6.74956C16.0872 6.64509 16.1701 6.52106 16.2267 6.38455C16.2832 6.24804 16.3123 6.10173 16.3123 5.95397C16.3123 5.80621 16.2832 5.6599 16.2267 5.52339C16.1701 5.38688 16.0872 5.26285 15.9827 5.15839ZM3.60774 11.2496L9.56251 5.29479L10.736 6.46831L4.78126 12.4224L3.60774 11.2496ZM3.37501 12.6073L5.39227 14.6246H3.37501V12.6073ZM6.75001 14.3918L5.57649 13.2183L11.5313 7.26354L12.7048 8.43706L6.75001 14.3918ZM13.5 7.64182L10.3577 4.49956L12.0452 2.81206L15.1875 5.95362L13.5 7.64182Z" fill="black"/>
</svg>
