<svg width="24" height="24" viewBox="0 0 24 24" fill="none" xmlns="http://www.w3.org/2000/svg">
<path d="M4.34155 19.5283C3.3689 19.5283 2.62769 19.2764 2.11792 18.7725C1.60815 18.2686 1.35327 17.5332 1.35327 16.5664V6.8457C1.35327 5.87891 1.59937 5.14355 2.09155 4.63965C2.5896 4.13574 3.27808 3.88379 4.15698 3.88379H20.1443C21.1169 3.88379 21.8582 4.13574 22.3679 4.63965C22.8777 5.14355 23.1326 5.87891 23.1326 6.8457V16.5664C23.1326 17.5332 22.8865 18.2686 22.3943 18.7725C21.9021 19.2764 21.2136 19.5283 20.3289 19.5283H4.34155ZM4.37671 17.6826H20.1003C20.4812 17.6826 20.7742 17.583 20.9792 17.3838C21.1843 17.1787 21.2869 16.8799 21.2869 16.4873V6.9248C21.2869 6.53223 21.1843 6.23633 20.9792 6.03711C20.7742 5.83203 20.4812 5.72949 20.1003 5.72949H4.37671C4.00171 5.72949 3.71167 5.83203 3.50659 6.03711C3.30151 6.23633 3.19897 6.5293 3.19897 6.91602V16.4873C3.19897 16.8799 3.30151 17.1787 3.50659 17.3838C3.71167 17.583 4.00171 17.6826 4.37671 17.6826ZM12.2429 14.1846C11.9265 14.1846 11.6248 14.126 11.3376 14.0088C11.0564 13.8916 10.7722 13.7041 10.4851 13.4463L2.32007 6.08984L3.48901 4.9209L11.4958 12.1367C11.7361 12.3535 11.9851 12.4619 12.2429 12.4619C12.5007 12.4619 12.7498 12.3535 12.99 12.1367L20.9968 4.9209L22.1658 6.08984L13.9919 13.4463C13.7107 13.7041 13.4265 13.8916 13.1394 14.0088C12.8582 14.126 12.5593 14.1846 12.2429 14.1846ZM3.64722 18.1572L2.47827 16.9795L8.66577 10.792L9.84351 11.9434L3.64722 18.1572ZM20.8474 18.1572L14.6335 11.9434L15.8289 10.792L22.0164 16.9795L20.8474 18.1572Z" fill="black"/>
</svg>
