<svg width="15" height="15" viewBox="0 0 15 15" fill="none" xmlns="http://www.w3.org/2000/svg">
<path d="M12.8569 3.44385H2.35693C2.2409 3.44385 2.12962 3.48994 2.04757 3.57199C1.96553 3.65404 1.91943 3.76532 1.91943 3.88135V11.3188C1.91943 11.5509 2.01162 11.7735 2.17572 11.9376C2.33981 12.1017 2.56237 12.1938 2.79443 12.1938H12.4194C12.6515 12.1938 12.8741 12.1017 13.0382 11.9376C13.2022 11.7735 13.2944 11.5509 13.2944 11.3188V3.88135C13.2944 3.76532 13.2483 3.65404 13.1663 3.57199C13.0842 3.48994 12.973 3.44385 12.8569 3.44385ZM6.00514 7.81885L2.79443 10.7616V4.87611L6.00514 7.81885ZM6.65264 8.41221L7.30889 9.0165C7.3896 9.0906 7.49518 9.13171 7.60475 9.13171C7.71431 9.13171 7.81989 9.0906 7.90061 9.0165L8.55686 8.41221L11.7287 11.3188H3.48186L6.65264 8.41221ZM9.20873 7.81885L12.4194 4.87557V10.7621L9.20873 7.81885Z" fill="black"/>
</svg>
