<svg width="24" height="24" viewBox="0 0 24 24" fill="none" xmlns="http://www.w3.org/2000/svg">
<path d="M4.69531 9.0625C4.0332 9.0625 3.70215 8.72559 3.70215 8.05176V5.93359C3.70215 4.9668 3.95703 4.23145 4.4668 3.72754C4.97656 3.22363 5.71777 2.97168 6.69043 2.97168H8.80859C9.47656 2.97168 9.81055 3.30273 9.81055 3.96484C9.81055 4.62695 9.47656 4.95801 8.80859 4.95801H6.85742C6.47656 4.95801 6.18652 5.05469 5.9873 5.24805C5.78809 5.44141 5.68848 5.74023 5.68848 6.14453V8.05176C5.68848 8.72559 5.35742 9.0625 4.69531 9.0625ZM20.2959 9.0625C19.6338 9.0625 19.3027 8.72559 19.3027 8.05176V6.14453C19.3027 5.74023 19.2002 5.44141 18.9951 5.24805C18.7959 5.05469 18.5059 4.95801 18.125 4.95801H16.1738C15.5117 4.95801 15.1807 4.62695 15.1807 3.96484C15.1807 3.30273 15.5117 2.97168 16.1738 2.97168H18.3008C19.2793 2.97168 20.0205 3.22363 20.5244 3.72754C21.0342 4.23145 21.2891 4.9668 21.2891 5.93359V8.05176C21.2891 8.72559 20.958 9.0625 20.2959 9.0625ZM6.69043 20.5586C5.71777 20.5586 4.97656 20.3037 4.4668 19.7939C3.95703 19.29 3.70215 18.5547 3.70215 17.5879V15.4697C3.70215 14.8018 4.0332 14.4678 4.69531 14.4678C5.35742 14.4678 5.68848 14.8018 5.68848 15.4697V17.3857C5.68848 17.7842 5.78809 18.0801 5.9873 18.2734C6.18652 18.4727 6.47656 18.5723 6.85742 18.5723H8.80859C9.47656 18.5723 9.81055 18.9033 9.81055 19.5654C9.81055 20.2275 9.47656 20.5586 8.80859 20.5586H6.69043ZM16.1738 20.5586C15.5117 20.5586 15.1807 20.2275 15.1807 19.5654C15.1807 18.9033 15.5117 18.5723 16.1738 18.5723H18.125C18.5059 18.5723 18.7959 18.4727 18.9951 18.2734C19.2002 18.0801 19.3027 17.7842 19.3027 17.3857V15.4697C19.3027 14.8018 19.6338 14.4678 20.2959 14.4678C20.958 14.4678 21.2891 14.8018 21.2891 15.4697V17.5879C21.2891 18.5547 21.0342 19.29 20.5244 19.7939C20.0205 20.3037 19.2793 20.5586 18.3008 20.5586H16.1738ZM9.22168 11.1807C9.01074 11.1807 8.83496 11.1104 8.69434 10.9697C8.55371 10.8291 8.4834 10.6504 8.4834 10.4336V9.19434C8.4834 8.9834 8.55371 8.80762 8.69434 8.66699C8.83496 8.52051 9.01074 8.44727 9.22168 8.44727C9.44434 8.44727 9.62598 8.52051 9.7666 8.66699C9.91309 8.80762 9.98633 8.9834 9.98633 9.19434V10.4336C9.98633 10.6504 9.91309 10.8291 9.7666 10.9697C9.62598 11.1104 9.44434 11.1807 9.22168 11.1807ZM11.7969 13.2373C11.5625 13.2373 11.375 13.1787 11.2344 13.0615C11.0996 12.9443 11.0322 12.7832 11.0322 12.5781C11.0322 12.4023 11.0938 12.2559 11.2168 12.1387C11.3398 12.0156 11.4893 11.9541 11.665 11.9541H11.9111C11.9463 11.9541 11.9727 11.9453 11.9902 11.9277C12.0137 11.9043 12.0254 11.8721 12.0254 11.8311V9.07129C12.0254 8.88379 12.084 8.73145 12.2012 8.61426C12.3242 8.49707 12.4795 8.43848 12.667 8.43848C12.8545 8.43848 13.0068 8.49707 13.124 8.61426C13.2412 8.73145 13.2998 8.88379 13.2998 9.07129V11.8135C13.2998 12.2705 13.1768 12.6221 12.9307 12.8682C12.6846 13.1143 12.333 13.2373 11.876 13.2373C11.8584 13.2373 11.8438 13.2373 11.832 13.2373C11.8203 13.2373 11.8086 13.2373 11.7969 13.2373ZM15.7344 11.1807C15.5117 11.1807 15.3301 11.1104 15.1895 10.9697C15.0488 10.8291 14.9785 10.6504 14.9785 10.4336V9.19434C14.9785 8.9834 15.0488 8.80762 15.1895 8.66699C15.3301 8.52051 15.5117 8.44727 15.7344 8.44727C15.9453 8.44727 16.1211 8.52051 16.2617 8.66699C16.4082 8.80762 16.4814 8.9834 16.4814 9.19434V10.4336C16.4814 10.6504 16.4082 10.8291 16.2617 10.9697C16.1211 11.1104 15.9453 11.1807 15.7344 11.1807ZM12.4473 16.0938C11.8906 16.0938 11.3486 15.9883 10.8213 15.7773C10.2998 15.5605 9.86621 15.25 9.52051 14.8457C9.46191 14.7754 9.41797 14.7021 9.38867 14.626C9.35938 14.5498 9.34473 14.4707 9.34473 14.3887C9.34473 14.207 9.40625 14.0576 9.5293 13.9404C9.65234 13.8174 9.80176 13.7559 9.97754 13.7559C10.0889 13.7559 10.1826 13.7793 10.2588 13.8262C10.335 13.873 10.4111 13.9346 10.4873 14.0107C10.7393 14.2627 11.0381 14.4619 11.3838 14.6084C11.7295 14.7549 12.084 14.8281 12.4473 14.8281C12.8223 14.8281 13.1855 14.7549 13.5371 14.6084C13.8887 14.4561 14.1758 14.2568 14.3984 14.0107C14.5625 13.8408 14.7295 13.7559 14.8994 13.7559C15.0811 13.7559 15.2334 13.8174 15.3564 13.9404C15.4795 14.0576 15.541 14.207 15.541 14.3887C15.541 14.4883 15.5264 14.5791 15.4971 14.6611C15.4678 14.7373 15.4238 14.8047 15.3652 14.8633C14.9785 15.25 14.5273 15.5518 14.0117 15.7686C13.502 15.9854 12.9805 16.0938 12.4473 16.0938Z" fill="black"/>
</svg>
