<svg width="48" height="48" viewBox="0 0 48 48" fill="none" xmlns="http://www.w3.org/2000/svg">
<path d="M9.89062 19.125C8.56641 19.125 7.9043 18.4512 7.9043 17.1035V12.8672C7.9043 10.9336 8.41406 9.46289 9.43359 8.45508C10.4531 7.44727 11.9355 6.94336 13.8809 6.94336H18.1172C19.4531 6.94336 20.1211 7.60547 20.1211 8.92969C20.1211 10.2539 19.4531 10.916 18.1172 10.916H14.2148C13.4531 10.916 12.873 11.1094 12.4746 11.4961C12.0762 11.8828 11.877 12.4805 11.877 13.2891V17.1035C11.877 18.4512 11.2148 19.125 9.89062 19.125ZM41.0918 19.125C39.7676 19.125 39.1055 18.4512 39.1055 17.1035V13.2891C39.1055 12.4805 38.9004 11.8828 38.4902 11.4961C38.0918 11.1094 37.5117 10.916 36.75 10.916H32.8477C31.5234 10.916 30.8613 10.2539 30.8613 8.92969C30.8613 7.60547 31.5234 6.94336 32.8477 6.94336H37.1016C39.0586 6.94336 40.541 7.44727 41.5488 8.45508C42.5684 9.46289 43.0781 10.9336 43.0781 12.8672V17.1035C43.0781 18.4512 42.416 19.125 41.0918 19.125ZM13.8809 42.1172C11.9355 42.1172 10.4531 41.6074 9.43359 40.5879C8.41406 39.5801 7.9043 38.1094 7.9043 36.1758V31.9395C7.9043 30.6035 8.56641 29.9355 9.89062 29.9355C11.2148 29.9355 11.877 30.6035 11.877 31.9395V35.7715C11.877 36.5684 12.0762 37.1602 12.4746 37.5469C12.873 37.9453 13.4531 38.1445 14.2148 38.1445H18.1172C19.4531 38.1445 20.1211 38.8066 20.1211 40.1309C20.1211 41.4551 19.4531 42.1172 18.1172 42.1172H13.8809ZM32.8477 42.1172C31.5234 42.1172 30.8613 41.4551 30.8613 40.1309C30.8613 38.8066 31.5234 38.1445 32.8477 38.1445H36.75C37.5117 38.1445 38.0918 37.9453 38.4902 37.5469C38.9004 37.1602 39.1055 36.5684 39.1055 35.7715V31.9395C39.1055 30.6035 39.7676 29.9355 41.0918 29.9355C42.416 29.9355 43.0781 30.6035 43.0781 31.9395V36.1758C43.0781 38.1094 42.5684 39.5801 41.5488 40.5879C40.541 41.6074 39.0586 42.1172 37.1016 42.1172H32.8477ZM18.9609 23.3613C18.5156 23.3613 18.1465 23.2207 17.8535 22.9395C17.5723 22.6465 17.4316 22.2715 17.4316 21.8145V19.4414C17.4316 18.9961 17.5723 18.627 17.8535 18.334C18.1465 18.041 18.5156 17.8945 18.9609 17.8945C19.4062 17.8945 19.7754 18.041 20.0684 18.334C20.3613 18.6152 20.5078 18.9844 20.5078 19.4414V21.8145C20.5078 22.2715 20.3613 22.6465 20.0684 22.9395C19.7754 23.2207 19.4062 23.3613 18.9609 23.3613ZM24.0938 27.4746C23.625 27.4746 23.25 27.3574 22.9688 27.123C22.6992 26.8887 22.5645 26.5664 22.5645 26.1562C22.5645 25.8047 22.6875 25.5117 22.9336 25.2773C23.1797 25.0312 23.4785 24.9082 23.8301 24.9082H24.3223C24.3926 24.9082 24.4453 24.8906 24.4805 24.8555C24.5273 24.8086 24.5508 24.7441 24.5508 24.6621V19.1426C24.5508 18.7559 24.668 18.4512 24.9023 18.2285C25.1484 17.9941 25.459 17.877 25.834 17.877C26.2207 17.877 26.5254 17.9941 26.748 18.2285C26.9824 18.4512 27.0996 18.7559 27.0996 19.1426V24.627C27.0996 25.541 26.8535 26.2441 26.3613 26.7363C25.8691 27.2285 25.166 27.4746 24.252 27.4746C24.2285 27.4746 24.1992 27.4746 24.1641 27.4746C24.1406 27.4746 24.1172 27.4746 24.0938 27.4746ZM31.9688 23.3613C31.5234 23.3613 31.1543 23.2207 30.8613 22.9395C30.5684 22.6465 30.4219 22.2715 30.4219 21.8145V19.4414C30.4219 18.9844 30.5684 18.6152 30.8613 18.334C31.1543 18.041 31.5234 17.8945 31.9688 17.8945C32.4141 17.8945 32.7773 18.041 33.0586 18.334C33.3516 18.627 33.498 18.9961 33.498 19.4414V21.8145C33.498 22.2715 33.3516 22.6465 33.0586 22.9395C32.7773 23.2207 32.4141 23.3613 31.9688 23.3613ZM25.3945 33.1875C24.2812 33.1875 23.1973 32.9766 22.1426 32.5547C21.0996 32.1211 20.2383 31.5 19.5586 30.6914C19.4297 30.5508 19.3359 30.4043 19.2773 30.252C19.2188 30.0996 19.1895 29.9414 19.1895 29.7773C19.1895 29.4141 19.3125 29.1152 19.5586 28.8809C19.8047 28.6348 20.1094 28.5117 20.4727 28.5117C20.6953 28.5117 20.877 28.5586 21.0176 28.6523C21.1699 28.7461 21.3281 28.8691 21.4922 29.0215C21.9844 29.5254 22.5762 29.9238 23.2676 30.2168C23.9707 30.5098 24.6797 30.6562 25.3945 30.6562C26.1562 30.6562 26.8828 30.5098 27.5742 30.2168C28.2773 29.9121 28.8574 29.5137 29.3145 29.0215C29.6309 28.6816 29.9648 28.5117 30.3164 28.5117C30.668 28.5117 30.9668 28.6348 31.2129 28.8809C31.459 29.1152 31.582 29.4141 31.582 29.7773C31.582 29.9766 31.5527 30.1582 31.4941 30.3223C31.4473 30.4746 31.3652 30.6094 31.248 30.7266C30.4629 31.5 29.5547 32.1035 28.5234 32.5371C27.5039 32.9707 26.4609 33.1875 25.3945 33.1875Z" fill="white"/>
</svg>
