<svg width="49" height="48" viewBox="0 0 49 48" fill="none" xmlns="http://www.w3.org/2000/svg">
<path fill-rule="evenodd" clip-rule="evenodd" d="M34.6427 13.0211C31.9039 9.6629 27.6798 7.43296 21.4588 8.48941C14.3841 9.69083 11.2221 14.3789 9.97959 19.0164C9.35501 21.3476 9.22292 23.653 9.33762 25.46C9.39498 26.3636 9.51314 27.128 9.65542 27.6978C9.70161 27.8828 9.74908 28.0422 9.79575 28.1759C13.7328 26.627 19.33 25.6014 24.755 24.9399C30.0822 24.2902 35.3139 23.9838 38.7885 23.8926C38.5103 20.3987 37.2269 16.1899 34.6427 13.0211ZM35.8051 12.0731C38.8322 15.7848 40.1821 20.7241 40.3327 24.5958C40.3405 24.7973 40.267 24.9934 40.1285 25.1399C39.9901 25.2865 39.7985 25.3712 39.597 25.3749C36.2029 25.437 30.6226 25.7355 24.9366 26.4289C19.2302 27.1247 13.4987 28.2094 9.75371 29.8144C9.47183 29.9352 9.1448 29.8722 8.92794 29.6553C8.73419 29.4616 8.59514 29.2032 8.49133 28.9602C8.38155 28.7032 8.28434 28.3986 8.20009 28.0612C8.03133 27.3852 7.90242 26.5284 7.84064 25.5551C7.71706 23.6083 7.85839 21.1375 8.53069 18.6282C9.88196 13.5846 13.4074 8.33522 21.2077 7.01058C27.9867 5.85937 32.7418 8.31694 35.8051 12.0731Z" fill="#50B848"/>
<path fill-rule="evenodd" clip-rule="evenodd" d="M26.817 18.9604C26.1584 18.323 25.0495 17.8259 23.1923 18.0577C21.4354 18.277 20.5242 19.2398 20.0761 20.1688C19.8777 20.5802 19.772 20.9835 19.7305 21.3091C20.9375 21.0287 22.4439 20.8377 23.886 20.7084C25.2784 20.5836 26.6495 20.5133 27.7048 20.4806C27.5553 19.9503 27.2725 19.4011 26.817 18.9604ZM27.8601 17.8824C28.8735 18.863 29.2786 20.1591 29.3322 21.1711C29.343 21.3749 29.2703 21.5742 29.1308 21.7232C28.9914 21.8722 28.7973 21.9579 28.5933 21.9607C27.5364 21.9749 25.7942 22.0434 24.0199 22.2024C22.2289 22.3629 20.4698 22.6106 19.3439 22.9653C19.1157 23.0372 18.867 22.996 18.6743 22.8543C18.5017 22.7274 18.4079 22.564 18.3574 22.4523C18.3032 22.3325 18.2702 22.2088 18.2493 22.0963C18.2074 21.8707 18.2001 21.6137 18.2193 21.3497C18.2581 20.8179 18.4115 20.1673 18.7251 19.5172C19.3642 18.1921 20.679 16.8598 23.0065 16.5693C25.2337 16.2913 26.8209 16.8767 27.8601 17.8824Z" fill="#50B848"/>
<path fill-rule="evenodd" clip-rule="evenodd" d="M15.111 31.3073C15.8634 30.7891 16.7406 30.625 17.3332 30.625H27.7082C28.1225 30.625 28.4582 30.9608 28.4582 31.375C28.4582 31.7892 28.1225 32.125 27.7082 32.125H26.9582V37.875C26.9582 39.2072 26.1917 40.1389 25.2717 40.7021C24.3692 41.2547 23.2598 41.5 22.3332 41.5H19.0832C17.1551 41.5 15.8218 41.0084 14.9518 40.2773C14.0851 39.549 13.7379 38.6303 13.7088 37.905C13.7084 37.895 13.7082 37.885 13.7082 37.875V34.125C13.7082 32.7662 14.3189 31.8528 15.111 31.3073ZM25.4582 32.125H17.3332C16.9676 32.125 16.4073 32.2358 15.9618 32.5427C15.5559 32.8222 15.2082 33.2838 15.2082 34.125V37.858C15.2248 38.1754 15.3901 38.6863 15.9168 39.1289C16.4474 39.5749 17.4059 40 19.0832 40H22.3332C23.0317 40 23.8598 39.8078 24.4885 39.4229C25.0998 39.0486 25.4582 38.5428 25.4582 37.875V32.125Z" fill="#50B848"/>
<path fill-rule="evenodd" clip-rule="evenodd" d="M40.6805 31.3073C39.9281 30.7891 39.0509 30.625 38.4582 30.625H28.0832C27.669 30.625 27.3332 30.9608 27.3332 31.375C27.3332 31.7892 27.669 32.125 28.0832 32.125H28.8332V37.875C28.8332 39.2072 29.5998 40.1389 30.5198 40.7021C31.4223 41.2547 32.5317 41.5 33.4582 41.5H36.7082C38.6364 41.5 39.9697 41.0084 40.8397 40.2773C41.7064 39.549 42.0536 38.6303 42.0826 37.905C42.083 37.895 42.0832 37.885 42.0832 37.875V34.125C42.0832 32.7662 41.4726 31.8528 40.6805 31.3073ZM30.3332 32.125H38.4582C38.8239 32.125 39.3842 32.2358 39.8297 32.5427C40.2356 32.8222 40.5832 33.2838 40.5832 34.125V37.858C40.5667 38.1754 40.4014 38.6863 39.8747 39.1289C39.344 39.5749 38.3856 40 36.7082 40H33.4582C32.7598 40 31.9317 39.8078 31.303 39.4229C30.6917 39.0486 30.3332 38.5428 30.3332 37.875V32.125Z" fill="#50B848"/>
</svg>
