<svg width="24" height="24" viewBox="0 0 24 24" fill="none" xmlns="http://www.w3.org/2000/svg">
<path d="M12 20.8213C10.7344 20.8213 9.54785 20.5811 8.44043 20.1006C7.33301 19.626 6.35742 18.9697 5.51367 18.1318C4.67578 17.2939 4.01953 16.3213 3.54492 15.2139C3.07031 14.1064 2.83301 12.9199 2.83301 11.6543C2.83301 10.3887 3.07031 9.20215 3.54492 8.09473C4.01953 6.9873 4.67578 6.01465 5.51367 5.17676C6.35742 4.33301 7.33301 3.67383 8.44043 3.19922C9.54785 2.72461 10.7344 2.4873 12 2.4873C13.2656 2.4873 14.4521 2.72461 15.5596 3.19922C16.667 3.67383 17.6396 4.33301 18.4775 5.17676C19.3154 6.01465 19.9717 6.9873 20.4463 8.09473C20.9268 9.20215 21.167 10.3887 21.167 11.6543C21.167 12.9199 20.9268 14.1064 20.4463 15.2139C19.9717 16.3213 19.3154 17.2939 18.4775 18.1318C17.6396 18.9697 16.667 19.626 15.5596 20.1006C14.4521 20.5811 13.2656 20.8213 12 20.8213ZM12 18.8086C12.9902 18.8086 13.916 18.624 14.7773 18.2549C15.6445 17.8857 16.4033 17.373 17.0537 16.7168C17.71 16.0547 18.2227 15.293 18.5918 14.4316C18.9668 13.5645 19.1543 12.6387 19.1543 11.6543C19.1543 10.6641 18.9668 9.73828 18.5918 8.87695C18.2227 8.00977 17.71 7.24805 17.0537 6.5918C16.4033 5.93555 15.6445 5.42285 14.7773 5.05371C13.916 4.68457 12.9902 4.5 12 4.5C11.0098 4.5 10.0811 4.68457 9.21387 5.05371C8.35254 5.42285 7.59375 5.93555 6.9375 6.5918C6.28125 7.24805 5.76855 8.00977 5.39941 8.87695C5.03027 9.73828 4.8457 10.6641 4.8457 11.6543C4.8457 12.6387 5.03027 13.5645 5.39941 14.4316C5.76855 15.293 6.28125 16.0547 6.9375 16.7168C7.59375 17.373 8.35254 17.8857 9.21387 18.2549C10.0811 18.624 11.0098 18.8086 12 18.8086ZM11.7979 13.3594C11.1768 13.3594 10.8662 13.0928 10.8662 12.5596C10.8662 12.5479 10.8662 12.5361 10.8662 12.5244C10.8662 12.5068 10.8662 12.4893 10.8662 12.4717C10.8662 12.0967 10.9658 11.7861 11.165 11.54C11.3643 11.2939 11.6191 11.0654 11.9297 10.8545C12.293 10.5967 12.5654 10.3828 12.7471 10.2129C12.9346 10.043 13.0283 9.82617 13.0283 9.5625C13.0283 9.29297 12.9258 9.07031 12.7207 8.89453C12.5215 8.71289 12.2578 8.62207 11.9297 8.62207C11.7715 8.62207 11.6221 8.64844 11.4814 8.70117C11.3408 8.75391 11.2119 8.83008 11.0947 8.92969C10.9775 9.0293 10.8691 9.15527 10.7695 9.30762L10.6465 9.46582C10.5586 9.58887 10.4531 9.68262 10.3301 9.74707C10.207 9.81152 10.0605 9.84375 9.89062 9.84375C9.69141 9.84375 9.51562 9.77637 9.36328 9.6416C9.2168 9.50684 9.14355 9.3252 9.14355 9.09668C9.14355 9.01465 9.14941 8.93555 9.16113 8.85938C9.17871 8.7832 9.20215 8.7041 9.23145 8.62207C9.37793 8.20605 9.7002 7.85156 10.1982 7.55859C10.6963 7.26563 11.3203 7.11914 12.0703 7.11914C12.6094 7.11914 13.0986 7.21289 13.5381 7.40039C13.9834 7.58789 14.3408 7.85742 14.6104 8.20898C14.8799 8.55469 15.0146 8.9707 15.0146 9.45703C15.0146 9.96094 14.8887 10.3623 14.6367 10.6611C14.3906 10.9541 14.0479 11.2412 13.6084 11.5225C13.333 11.7041 13.1162 11.877 12.958 12.041C12.7998 12.2051 12.7119 12.3926 12.6943 12.6035C12.6943 12.6152 12.6914 12.6328 12.6855 12.6562C12.6855 12.6738 12.6855 12.6914 12.6855 12.709C12.6621 12.8906 12.5713 13.0459 12.4131 13.1748C12.2549 13.2979 12.0498 13.3594 11.7979 13.3594ZM11.7803 16.1016C11.4814 16.1016 11.2236 16.0078 11.0068 15.8203C10.7959 15.6328 10.6904 15.3926 10.6904 15.0996C10.6904 14.8066 10.7959 14.5664 11.0068 14.3789C11.2178 14.1914 11.4756 14.0977 11.7803 14.0977C12.085 14.0977 12.3428 14.1914 12.5537 14.3789C12.7646 14.5664 12.8701 14.8066 12.8701 15.0996C12.8701 15.3926 12.7646 15.6328 12.5537 15.8203C12.3428 16.0078 12.085 16.1016 11.7803 16.1016Z" fill="black"/>
</svg>
