<svg width="20" height="21" viewBox="0 0 20 21" fill="none" xmlns="http://www.w3.org/2000/svg">
<path d="M9.48725 17.1211C9.2778 17.1211 9.10259 17.0505 8.96162 16.9094C8.82051 16.7685 8.74996 16.5932 8.74996 16.3838V11.5603L4.08495 5.63401C3.92468 5.42026 3.90141 5.19804 4.01516 4.96734C4.12905 4.73651 4.32114 4.62109 4.59141 4.62109H15.4085C15.6788 4.62109 15.8709 4.73651 15.9847 4.96734C16.0985 5.19804 16.0752 5.42026 15.915 5.63401L11.25 11.5603V16.3838C11.25 16.5932 11.1794 16.7685 11.0383 16.9094C10.8973 17.0505 10.7221 17.1211 10.5127 17.1211H9.48725ZM9.99996 11.1211L14.125 5.87109H5.87495L9.99996 11.1211Z" fill="black"/>
</svg>
