<svg width="49" height="54" viewBox="0 0 49 54" fill="none" xmlns="http://www.w3.org/2000/svg">
<path d="M39.9935 6.92065C39.7801 6.92065 39.5668 6.86732 39.3801 6.76065C34.2601 4.12065 29.8335 3.00065 24.5268 3.00065C19.2468 3.00065 14.2335 4.25398 9.67346 6.76065C9.03346 7.10732 8.23346 6.86732 7.86012 6.22732C7.51346 5.58732 7.75346 4.76065 8.39346 4.41398C13.3535 1.72065 18.7935 0.333984 24.5268 0.333984C30.2068 0.333984 35.1668 1.58732 40.6068 4.38732C41.2735 4.73398 41.5135 5.53398 41.1668 6.17398C40.9268 6.65398 40.4735 6.92065 39.9935 6.92065ZM1.83346 20.9207C1.56679 20.9207 1.30012 20.8407 1.06012 20.6807C0.44679 20.254 0.313456 19.4273 0.740122 18.814C3.38012 15.0807 6.74012 12.1473 10.7401 10.094C19.1135 5.77398 29.8335 5.74732 38.2335 10.0673C42.2335 12.1207 45.5935 15.0273 48.2335 18.734C48.6601 19.3207 48.5268 20.174 47.9135 20.6007C47.3001 21.0273 46.4735 20.894 46.0468 20.2807C43.6468 16.9207 40.6068 14.2807 37.0068 12.4407C29.3535 8.52065 19.5668 8.52065 11.9401 12.4673C8.31346 14.334 5.27346 17.0007 2.87346 20.3607C2.66012 20.734 2.26012 20.9207 1.83346 20.9207ZM18.5001 53.1073C18.1535 53.1073 17.8068 52.974 17.5668 52.7073C15.2468 50.3873 13.9935 48.894 12.2068 45.6673C10.3668 42.3873 9.40679 38.3873 9.40679 34.094C9.40679 26.174 16.1801 19.7207 24.5001 19.7207C32.8201 19.7207 39.5935 26.174 39.5935 34.094C39.5935 34.8407 39.0068 35.4273 38.2601 35.4273C37.5135 35.4273 36.9268 34.8407 36.9268 34.094C36.9268 27.6407 31.3535 22.3873 24.5001 22.3873C17.6468 22.3873 12.0735 27.6407 12.0735 34.094C12.0735 37.934 12.9268 41.4807 14.5535 44.3607C16.2601 47.4273 17.4335 48.734 19.4868 50.814C19.9935 51.3473 19.9935 52.174 19.4868 52.7073C19.1935 52.974 18.8468 53.1073 18.5001 53.1073ZM37.6201 48.174C34.4468 48.174 31.6468 47.374 29.3535 45.8007C25.3801 43.1073 23.0068 38.734 23.0068 34.094C23.0068 33.3473 23.5935 32.7607 24.3401 32.7607C25.0868 32.7607 25.6735 33.3473 25.6735 34.094C25.6735 37.854 27.5935 41.4007 30.8468 43.5873C32.7401 44.8673 34.9535 45.4807 37.6201 45.4807C38.2601 45.4807 39.3268 45.4007 40.3935 45.214C41.1135 45.0807 41.8068 45.5606 41.9401 46.3073C42.0735 47.0273 41.5935 47.7207 40.8468 47.854C39.3268 48.1473 37.9935 48.174 37.6201 48.174ZM32.2601 53.6673C32.1535 53.6673 32.0201 53.6407 31.9135 53.614C27.6735 52.4407 24.9001 50.8673 21.9935 48.014C18.2601 44.3073 16.2068 39.374 16.2068 34.094C16.2068 29.774 19.8868 26.254 24.4201 26.254C28.9535 26.254 32.6335 29.774 32.6335 34.094C32.6335 36.9473 35.1135 39.2673 38.1801 39.2673C41.2468 39.2673 43.7268 36.9473 43.7268 34.094C43.7268 24.0407 35.0601 15.8807 24.3935 15.8807C16.8201 15.8807 9.88679 20.094 6.76679 26.6273C5.72679 28.7873 5.19346 31.3207 5.19346 34.094C5.19346 36.174 5.38012 39.454 6.98012 43.7207C7.24679 44.414 6.90012 45.1873 6.20679 45.4273C5.51346 45.694 4.74012 45.3207 4.50012 44.654C3.19346 41.1607 2.55346 37.694 2.55346 34.094C2.55346 30.894 3.16679 27.9873 4.36679 25.454C7.91346 18.014 15.7801 13.1873 24.3935 13.1873C36.5268 13.1873 46.3935 22.5473 46.3935 34.0673C46.3935 38.3873 42.7135 41.9073 38.1801 41.9073C33.6468 41.9073 29.9668 38.3873 29.9668 34.0673C29.9668 31.214 27.4868 28.894 24.4201 28.894C21.3535 28.894 18.8735 31.214 18.8735 34.0673C18.8735 38.6273 20.6335 42.894 23.8601 46.094C26.3935 48.6007 28.8201 49.9873 32.5801 51.0273C33.3001 51.214 33.7001 51.9607 33.5135 52.654C33.3801 53.2673 32.8201 53.6673 32.2601 53.6673Z" fill="#FCFCFC"/>
</svg>
