<svg width="24" height="24" viewBox="0 0 24 24" fill="none" xmlns="http://www.w3.org/2000/svg">
<g clip-path="url(#clip0_78_5252)">
<path d="M12 0.75C7.08745 0.75 2.92495 3.8625 1.38745 8.25H22.6125C21.075 3.8625 16.9125 0.75 12 0.75Z" fill="#C94747"/>
<path d="M12 23.25C16.9125 23.25 21.075 20.1375 22.6125 15.75H1.38745C2.92495 20.1375 7.08745 23.25 12 23.25Z" fill="#699635"/>
<path d="M1.3875 8.25C0.975 9.4125 0.75 10.6875 0.75 12C0.75 13.3125 0.975 14.5875 1.3875 15.75H22.6125C23.025 14.5875 23.25 13.3125 23.25 12C23.25 10.6875 23.025 9.4125 22.6125 8.25H1.3875Z" fill="#FFCE31"/>
<path d="M12 13.9875L14.325 15.75L13.425 12.9L15.75 11.0625H12.9L12 8.25L11.1375 11.0625H8.25L10.575 12.9L9.675 15.75L12 13.9875Z" fill="#3E4347"/>
</g>
<defs>
<clipPath id="clip0_78_5252">
<rect width="24" height="24" fill="white"/>
</clipPath>
</defs>
</svg>
