<svg width="28" height="28" viewBox="0 0 28 28" fill="none" xmlns="http://www.w3.org/2000/svg">
<path d="M14 1.36719C8.95234 1.36719 4.86719 5.45016 4.86719 10.5C4.86719 15.5477 8.95234 19.6328 14 19.6328C19.0477 19.6328 23.1328 15.5477 23.1328 10.5C23.1328 5.45016 19.0477 1.36719 14 1.36719ZM21.0984 7.45391C21.3209 7.46291 21.5282 7.63094 21.6748 7.9211C21.8214 8.21126 21.8954 8.59984 21.8805 9.00156C21.865 9.40339 21.7619 9.78516 21.5938 10.063C21.4256 10.3409 21.2062 10.4922 20.9836 10.4836C20.7611 10.4746 20.5538 10.3066 20.4072 10.0164C20.2606 9.72624 20.1866 9.33766 20.2016 8.93594C20.217 8.53411 20.3201 8.15234 20.4883 7.87446C20.6564 7.59659 20.8759 7.44533 21.0984 7.45391ZM18.3969 8.86484C18.4982 8.86635 18.5921 8.89026 18.6758 8.93594C18.7967 9.00144 18.8946 9.11112 18.9638 9.2587C19.0331 9.40629 19.0724 9.58889 19.0795 9.79608C19.0866 10.0033 19.0614 10.231 19.0053 10.4663C18.9491 10.7015 18.8632 10.9397 18.7523 11.1672C18.5291 11.6255 18.2185 12.0129 17.8884 12.2445C17.5584 12.4762 17.2358 12.5332 16.9914 12.4031C16.8697 12.3386 16.7711 12.2295 16.7011 12.0824C16.6311 11.9352 16.5911 11.7527 16.5835 11.5454C16.5759 11.3381 16.6007 11.1101 16.6567 10.8744C16.7126 10.6387 16.7985 10.4 16.9094 10.1719C17.0936 9.79287 17.3387 9.45983 17.6074 9.22377C17.8761 8.9877 18.1534 8.86163 18.3969 8.86484ZM20.5242 11.8781C20.5464 11.8768 20.5683 11.8768 20.5898 11.8781C20.6476 11.8798 20.7025 11.8908 20.7539 11.9109C20.9591 11.9969 21.0951 12.2265 21.132 12.5494C21.1689 12.8723 21.1037 13.2622 20.9508 13.6336C20.8748 13.8181 20.7795 13.9925 20.6702 14.1468C20.5609 14.3011 20.4398 14.4323 20.3138 14.5329C20.1879 14.6335 20.0595 14.7014 19.9361 14.7329C19.8126 14.7644 19.6966 14.7588 19.5945 14.7164C19.3893 14.6305 19.2534 14.4009 19.2165 14.078C19.1796 13.7551 19.2447 13.3652 19.3977 12.9938C19.5242 12.6871 19.7029 12.4119 19.9064 12.2104C20.1098 12.009 20.3268 11.8922 20.5242 11.8781ZM15.75 13.5133C16.0713 13.5182 16.3141 13.63 16.4391 13.8305C16.5114 13.9475 16.5418 14.0914 16.5284 14.2539C16.5151 14.4165 16.4583 14.5945 16.3613 14.7779C16.2643 14.9612 16.129 15.1463 15.9631 15.3224C15.7972 15.4986 15.604 15.6625 15.3945 15.8047C14.9728 16.0915 14.5103 16.2733 14.1085 16.3102C13.7066 16.3471 13.3982 16.2361 13.2508 16.0016C13.1784 15.8846 13.1481 15.7407 13.1614 15.5781C13.1748 15.4156 13.2316 15.2375 13.3286 15.0542C13.4256 14.8708 13.5609 14.6858 13.7268 14.5096C13.8926 14.3334 14.0858 14.1695 14.2953 14.0273C14.5347 13.8642 14.7898 13.7333 15.0417 13.6443C15.2935 13.5553 15.5356 13.5105 15.75 13.5133ZM17.8938 15.5477C17.9198 15.5466 17.9454 15.5466 17.9703 15.5477C18.1428 15.5535 18.2839 15.6099 18.3805 15.7117C18.4573 15.7912 18.5049 15.8972 18.5206 16.0236C18.5363 16.1499 18.5198 16.2942 18.4721 16.4481C18.4243 16.602 18.3463 16.7626 18.2423 16.9205C18.1384 17.0785 18.0107 17.2308 17.8664 17.3687C17.722 17.5066 17.564 17.6272 17.4014 17.7238C17.2388 17.8204 17.0748 17.8911 16.9189 17.9317C16.7629 17.9723 16.618 17.9822 16.4925 17.9606C16.367 17.9391 16.2634 17.8867 16.1875 17.8062C16.1107 17.7267 16.0631 17.6208 16.0474 17.4944C16.0317 17.3681 16.0481 17.2238 16.0959 17.0699C16.1436 16.9159 16.2217 16.7554 16.3256 16.5974C16.4296 16.4395 16.5573 16.2871 16.7016 16.1492C16.8859 15.9734 17.0917 15.8261 17.3 15.721C17.5084 15.6159 17.7125 15.5563 17.8938 15.5477ZM10.5766 20.0211C12.25 22.5586 12.25 23.5703 12.25 27.0156H15.75C15.75 23.5703 15.75 22.5586 17.4234 20.0211C16.357 20.4094 15.2031 20.6172 14 20.6172C12.7969 20.6172 11.643 20.4094 10.5766 20.0211Z" fill="url(#paint0_linear_18_702)"/>
<defs>
<linearGradient id="paint0_linear_18_702" x1="4.86719" y1="14.1914" x2="23.1328" y2="14.1914" gradientUnits="userSpaceOnUse">
<stop stop-color="#009979"/>
<stop offset="1" stop-color="#50B848"/>
</linearGradient>
</defs>
</svg>
