<svg width="28" height="28" viewBox="0 0 28 28" fill="none" xmlns="http://www.w3.org/2000/svg">
<path fill-rule="evenodd" clip-rule="evenodd" d="M12.6414 3.96644C13.1461 3.66099 13.7247 3.49951 14.3147 3.49951C14.9046 3.49951 15.4833 3.66099 15.988 3.96644L17.1762 4.69328C18.8434 5.71236 20.7421 5.93928 22.6496 6.16794C23.2662 6.24203 23.8834 6.31553 24.4941 6.41644C24.4941 6.41644 24.5075 7.48628 24.4935 7.97161L24.3716 12.143C24.2666 15.7206 22.6759 19.1127 19.9471 21.5779C18.6596 22.7404 17.3279 23.791 15.7978 24.6637C15.3468 24.9186 14.8413 25.0615 14.3236 25.0805C13.8059 25.0994 13.2912 24.9939 12.8228 24.7728C11.0559 23.9328 9.49138 22.8676 8.0628 21.5779C5.33397 19.1127 3.74322 15.7206 3.6388 12.143L3.51747 7.98503C3.50288 7.49269 3.51747 6.41644 3.51747 6.41644C4.0133 6.35811 4.51847 6.30969 5.02772 6.26128C7.2753 6.04778 9.59755 5.82728 11.5027 4.66294L12.6414 3.96644ZM12.8333 12.8331V8.74978H15.1666V12.8331H19.25V15.1664H15.1666V19.2498H12.8333V15.1664H8.74997V12.8331H12.8333Z" fill="url(#paint0_linear_18_674)"/>
<defs>
<linearGradient id="paint0_linear_18_674" x1="3.51099" y1="14.2911" x2="24.4999" y2="14.2911" gradientUnits="userSpaceOnUse">
<stop stop-color="#009979"/>
<stop offset="1" stop-color="#50B848"/>
</linearGradient>
</defs>
</svg>
