<svg width="24" height="24" viewBox="0 0 24 24" fill="none" xmlns="http://www.w3.org/2000/svg">
<path d="M5.94434 6.47754C5.94434 5.68652 6.09961 4.95117 6.41016 4.27148C6.72656 3.5918 7.16016 3 7.71094 2.49609C8.26758 1.98633 8.91211 1.59082 9.64453 1.30957C10.377 1.02832 11.1621 0.887695 12 0.887695C12.8379 0.887695 13.623 1.02832 14.3555 1.30957C15.0879 1.59082 15.7324 1.98633 16.2891 2.49609C16.8457 3.00586 17.2793 3.60059 17.5898 4.28027C17.9004 4.9541 18.0557 5.68652 18.0557 6.47754C18.0557 7.14551 17.9883 7.74316 17.8535 8.27051C17.7188 8.79199 17.5459 9.30469 17.335 9.80859C17.1299 10.3125 16.9102 10.8662 16.6758 11.4697C16.4473 12.0674 16.2363 12.7676 16.043 13.5703C15.8496 14.3672 15.7031 15.3311 15.6035 16.4619C15.5801 16.7021 15.4951 16.8926 15.3486 17.0332C15.2021 17.1738 15.0029 17.2441 14.751 17.2441H9.24902C8.99707 17.2441 8.79785 17.1738 8.65137 17.0332C8.51074 16.8926 8.42871 16.7021 8.40527 16.4619C8.30566 15.3311 8.15625 14.3672 7.95703 13.5703C7.76367 12.7676 7.55273 12.0674 7.32422 11.4697C7.0957 10.8662 6.87598 10.3125 6.66504 9.80859C6.4541 9.29883 6.28125 8.7832 6.14648 8.26172C6.01172 7.74023 5.94434 7.14551 5.94434 6.47754ZM7.64062 6.47754C7.64062 6.94043 7.69629 7.35937 7.80762 7.73438C7.91895 8.10938 8.0625 8.50195 8.23828 8.91211C8.41992 9.32227 8.61328 9.81152 8.81836 10.3799C9.0293 10.9424 9.23438 11.6396 9.43359 12.4717C9.63867 13.3037 9.81445 14.3291 9.96094 15.5479H14.0479C14.1943 14.3291 14.3672 13.3037 14.5664 12.4717C14.7656 11.6396 14.9678 10.9424 15.1729 10.3799C15.3838 9.81152 15.5771 9.32227 15.7529 8.91211C15.9346 8.50195 16.0811 8.10938 16.1924 7.73438C16.3037 7.35937 16.3594 6.94043 16.3594 6.47754C16.3594 5.90918 16.2451 5.3877 16.0166 4.91309C15.7881 4.43262 15.4717 4.01953 15.0674 3.67383C14.6631 3.32813 14.1973 3.06152 13.6699 2.87402C13.1484 2.68066 12.5918 2.58105 12 2.5752C11.4082 2.5752 10.8486 2.67188 10.3213 2.86523C9.7998 3.05859 9.33691 3.32813 8.93262 3.67383C8.52832 4.01953 8.21191 4.43262 7.9834 4.91309C7.75488 5.3877 7.64062 5.90918 7.64062 6.47754ZM9.15234 19.3887C8.98242 19.3887 8.83887 19.3271 8.72168 19.2041C8.60449 19.0869 8.5459 18.9463 8.5459 18.7822C8.5459 18.6182 8.60449 18.4775 8.72168 18.3604C8.83887 18.2432 8.98242 18.1846 9.15234 18.1846H14.8477C15.0176 18.1846 15.1611 18.2432 15.2783 18.3604C15.3955 18.4775 15.4541 18.6182 15.4541 18.7822C15.4541 18.9463 15.3955 19.0869 15.2783 19.2041C15.1611 19.3271 15.0176 19.3887 14.8477 19.3887H9.15234ZM12 22.043C11.291 22.043 10.6846 21.8848 10.1807 21.5684C9.67676 21.2578 9.40723 20.8447 9.37207 20.3291H14.6191C14.5723 20.8447 14.2998 21.2578 13.8018 21.5684C13.3037 21.8848 12.7031 22.043 12 22.043Z" fill="black"/>
</svg>
