<svg width="28" height="28" viewBox="0 0 28 28" fill="none" xmlns="http://www.w3.org/2000/svg">
<g clip-path="url(#clip0_18_683)">
<path d="M0 1.75C0 0.782031 0.782031 0 1.75 0H26.25C27.218 0 28 0.782031 28 1.75C28 2.71797 27.218 3.5 26.25 3.5V24.5C27.218 24.5 28 25.282 28 26.25C28 27.218 27.218 28 26.25 28H16.625V25.375C16.625 23.9258 15.4492 22.75 14 22.75C12.5508 22.75 11.375 23.9258 11.375 25.375V28H1.75C0.782031 28 0 27.218 0 26.25C0 25.282 0.782031 24.5 1.75 24.5V3.5C0.782031 3.5 0 2.71797 0 1.75ZM5.25 6.125V7.875C5.25 8.35625 5.64375 8.75 6.125 8.75H7.875C8.35625 8.75 8.75 8.35625 8.75 7.875V6.125C8.75 5.64375 8.35625 5.25 7.875 5.25H6.125C5.64375 5.25 5.25 5.64375 5.25 6.125ZM13.125 5.25C12.6438 5.25 12.25 5.64375 12.25 6.125V7.875C12.25 8.35625 12.6438 8.75 13.125 8.75H14.875C15.3562 8.75 15.75 8.35625 15.75 7.875V6.125C15.75 5.64375 15.3562 5.25 14.875 5.25H13.125ZM19.25 6.125V7.875C19.25 8.35625 19.6437 8.75 20.125 8.75H21.875C22.3563 8.75 22.75 8.35625 22.75 7.875V6.125C22.75 5.64375 22.3563 5.25 21.875 5.25H20.125C19.6437 5.25 19.25 5.64375 19.25 6.125ZM6.125 10.5C5.64375 10.5 5.25 10.8938 5.25 11.375V13.125C5.25 13.6062 5.64375 14 6.125 14H7.875C8.35625 14 8.75 13.6062 8.75 13.125V11.375C8.75 10.8938 8.35625 10.5 7.875 10.5H6.125ZM12.25 11.375V13.125C12.25 13.6062 12.6438 14 13.125 14H14.875C15.3562 14 15.75 13.6062 15.75 13.125V11.375C15.75 10.8938 15.3562 10.5 14.875 10.5H13.125C12.6438 10.5 12.25 10.8938 12.25 11.375ZM20.125 10.5C19.6437 10.5 19.25 10.8938 19.25 11.375V13.125C19.25 13.6062 19.6437 14 20.125 14H21.875C22.3563 14 22.75 13.6062 22.75 13.125V11.375C22.75 10.8938 22.3563 10.5 21.875 10.5H20.125ZM17.9375 21C18.6648 21 19.2664 20.4039 19.0859 19.6984C18.5063 17.4289 16.45 15.75 14 15.75C11.55 15.75 9.48828 17.4289 8.91406 19.6984C8.73359 20.3984 9.34062 21 10.0625 21H17.9375Z" fill="url(#paint0_linear_18_683)"/>
</g>
<defs>
<linearGradient id="paint0_linear_18_683" x1="0" y1="14" x2="28" y2="14" gradientUnits="userSpaceOnUse">
<stop stop-color="#009979"/>
<stop offset="1" stop-color="#50B848"/>
</linearGradient>
<clipPath id="clip0_18_683">
<rect width="28" height="28" fill="white"/>
</clipPath>
</defs>
</svg>
