<svg width="32" height="32" viewBox="0 0 32 32" fill="none" xmlns="http://www.w3.org/2000/svg">
<path fill-rule="evenodd" clip-rule="evenodd" d="M20.5436 4.42948C20.5771 4.16082 20.822 3.97026 21.0906 4.00384L25.181 4.51538C25.4495 4.54896 25.64 4.79398 25.6064 5.06263L25.0951 9.15498C25.0616 9.42364 24.8167 9.61421 24.5481 9.58062C24.2796 9.54704 24.0891 9.30203 24.1227 9.03337L24.5012 6.00388L6.98507 17.6868C6.7599 17.837 6.45568 17.7761 6.30557 17.5508C6.15545 17.3255 6.2163 17.0212 6.44147 16.871L23.7526 5.32483L20.969 4.97673C20.7005 4.94314 20.51 4.69813 20.5436 4.42948ZM23.0922 12.675C23.0922 12.1219 23.5407 11.6732 24.0935 11.6732H26.1387C26.6916 11.6732 27.14 12.1219 27.14 12.675V27.0195H27.6767C27.9474 27.0195 28.1667 27.239 28.1667 27.5098C28.1667 27.7805 27.9474 28 27.6767 28H4.15675C3.88613 28 3.66675 27.7805 3.66675 27.5098C3.66675 27.239 3.88613 27.0195 4.15675 27.0195H4.68527V24.952C4.68527 24.3989 5.13371 23.9503 5.68657 23.9503H7.73179C8.28465 23.9503 8.73309 24.3989 8.73309 24.952V27.0195H10.8209V20.8597C10.8209 20.3066 11.2694 19.8579 11.8222 19.8579H13.8674C14.4203 19.8579 14.8687 20.3066 14.8687 20.8597V27.0195H16.9566V16.7673C16.9566 16.2142 17.405 15.7656 17.9579 15.7656H20.0031C20.556 15.7656 21.0044 16.2142 21.0044 16.7673V27.0195H23.0922V12.675ZM24.0722 27.0195H26.16V12.675C26.16 12.6713 26.1594 12.6689 26.1586 12.667C26.1577 12.6648 26.1561 12.6623 26.1538 12.66C26.1514 12.6576 26.1489 12.6561 26.1467 12.6551C26.1455 12.6546 26.144 12.6541 26.142 12.6539C26.1411 12.6537 26.14 12.6537 26.1387 12.6537H24.0935C24.0898 12.6537 24.0874 12.6543 24.0855 12.6551C24.0833 12.6561 24.0808 12.6576 24.0785 12.66C24.0762 12.6623 24.0746 12.6648 24.0737 12.667C24.0729 12.6689 24.0722 12.6713 24.0722 12.675V27.0195ZM20.0244 27.0195V16.7673C20.0244 16.7636 20.0237 16.7612 20.0229 16.7593C20.022 16.7571 20.0204 16.7547 20.0181 16.7523C20.0166 16.7508 20.015 16.7496 20.0134 16.7487C20.0126 16.7482 20.0118 16.7478 20.0111 16.7475C20.0092 16.7467 20.0068 16.746 20.0031 16.746H17.9579C17.9541 16.746 17.9518 16.7467 17.9499 16.7475C17.9477 16.7484 17.9452 16.75 17.9429 16.7523C17.9405 16.7547 17.939 16.7571 17.938 16.7593C17.9376 16.7603 17.9372 16.7615 17.937 16.7629C17.9367 16.7641 17.9366 16.7656 17.9366 16.7673V27.0195H20.0244ZM13.8887 27.0195V20.8597C13.8887 20.856 13.8881 20.8536 13.8873 20.8517C13.8864 20.8495 13.8848 20.847 13.8824 20.8447C13.8801 20.8423 13.8776 20.8408 13.8754 20.8398C13.8736 20.839 13.8712 20.8384 13.8674 20.8384H11.8222C11.8185 20.8384 11.8161 20.839 11.8142 20.8398C11.812 20.8408 11.8095 20.8423 11.8072 20.8447C11.8059 20.846 11.8048 20.8474 11.8039 20.8487C11.8033 20.8497 11.8028 20.8507 11.8024 20.8517C11.8016 20.8536 11.8009 20.856 11.8009 20.8597V27.0195H13.8887ZM7.75309 27.0195V24.952C7.75309 24.9483 7.75243 24.9459 7.75164 24.9441C7.7507 24.9418 7.74913 24.9394 7.7468 24.937C7.74447 24.9347 7.74199 24.9331 7.73978 24.9322C7.7379 24.9314 7.73552 24.9307 7.73179 24.9307H5.68657C5.68284 24.9307 5.68046 24.9314 5.67858 24.9322C5.67637 24.9331 5.67389 24.9347 5.67156 24.937C5.66923 24.9394 5.66766 24.9418 5.66672 24.9441C5.66593 24.9459 5.66527 24.9483 5.66527 24.952V27.0195H7.75309Z" fill="url(#paint0_linear_926_7201)"/>
<defs>
<linearGradient id="paint0_linear_926_7201" x1="3.66675" y1="16" x2="28.1667" y2="16" gradientUnits="userSpaceOnUse">
<stop stop-color="#009979"/>
<stop offset="1" stop-color="#3F9339"/>
</linearGradient>
</defs>
</svg>
