<svg width="32" height="32" viewBox="0 0 32 32" fill="none" xmlns="http://www.w3.org/2000/svg">
<path fill-rule="evenodd" clip-rule="evenodd" d="M7.48557 4.96C7.3495 4.96 7.21821 5.01402 7.12079 5.11144C7.02324 5.20899 6.96774 5.34212 6.96774 5.48174V11.7556C6.96695 14.9143 7.82935 18.0131 9.46141 20.7167C11.0491 23.3469 13.3063 25.5058 15.9999 26.9745C18.6932 25.5053 20.9501 23.3463 22.5377 20.7162C24.1697 18.0126 25.0324 14.9142 25.0323 11.7557V5.48174C25.0323 5.34212 24.9768 5.20899 24.8792 5.11144C24.7818 5.01402 24.6505 4.96 24.5144 4.96H7.48557ZM6.43374 4.43536C6.71203 4.15706 7.09031 4 7.48557 4H24.5144C24.9097 4 25.288 4.15706 25.5663 4.43536C25.8444 4.71354 26 5.09 26 5.48174V11.7556C26 11.7556 26 11.7556 26 11.7556C26.0002 15.0875 25.0902 18.3564 23.368 21.2094C21.6458 24.0624 19.1767 26.3912 16.2268 27.944C16.085 28.0186 15.9151 28.0187 15.7733 27.944C12.823 26.3918 10.3534 24.0631 8.63115 21.2099C6.90889 18.3569 5.99919 15.0877 6 11.7556C6 11.7556 6 11.7557 6 11.7556V5.48174C6 5.09 6.15557 4.71354 6.43374 4.43536ZM21.8627 10.6614C22.0459 10.8544 22.0365 11.1582 21.8419 11.3399L14.3292 18.3521C14.1382 18.5303 13.8388 18.5252 13.6541 18.3405L11.1498 15.8362C10.9616 15.648 10.9629 15.344 11.1526 15.1573C11.3423 14.9707 11.6487 14.9719 11.8369 15.1601L14.0093 17.3325L21.1788 10.6407C21.3734 10.4591 21.6796 10.4683 21.8627 10.6614Z" fill="url(#paint0_linear_926_7206)"/>
<defs>
<linearGradient id="paint0_linear_926_7206" x1="6" y1="16" x2="26" y2="16" gradientUnits="userSpaceOnUse">
<stop stop-color="#009979"/>
<stop offset="1" stop-color="#3F9339"/>
</linearGradient>
</defs>
</svg>
