<svg width="48" height="48" viewBox="0 0 48 48" fill="none" xmlns="http://www.w3.org/2000/svg">
<path fill-rule="evenodd" clip-rule="evenodd" d="M39.7089 5.25H33.1522C32.738 5.25 32.4022 5.58579 32.4022 6C32.4022 6.41422 32.738 6.75 33.1522 6.75H37.9881L29.9377 15.3988C29.6069 15.7545 29.1798 16.008 28.7078 16.1283C28.2358 16.2487 27.739 16.2308 27.2769 16.077L21.1727 14.0462C20.5213 13.8297 19.8251 13.7826 19.1504 13.9095C18.4758 14.0364 17.8448 14.3331 17.317 14.7715C17.317 14.7716 17.3169 14.7716 17.3168 14.7717L8.86761 21.7866C8.54892 22.0512 8.50506 22.524 8.76965 22.8427C9.03425 23.1614 9.50709 23.2053 9.82578 22.9407L18.2752 15.9256L18.2755 15.9254C18.6068 15.65 19.0034 15.4635 19.4278 15.3837C19.8521 15.3038 20.2898 15.3334 20.6994 15.4695L26.803 17.5001C26.8029 17.5001 26.8031 17.5002 26.803 17.5001C27.5378 17.7448 28.3279 17.7732 29.0784 17.5818C29.8289 17.3905 30.5086 16.9874 31.0358 16.4206L38.9674 7.89949V12.5455C38.9674 12.9597 39.3032 13.2955 39.7174 13.2955C40.1316 13.2955 40.4674 12.9597 40.4674 12.5455V6C40.4674 5.58579 40.1316 5.25 39.7174 5.25H39.7131C39.7117 5.25 39.7103 5.25 39.7089 5.25ZM36.1391 17.1631C36.4338 16.8692 36.833 16.7045 37.2489 16.7045H40.5315C40.9473 16.7045 41.3466 16.8692 41.6413 17.1631C41.9361 17.457 42.1021 17.8561 42.1021 18.2727V41.25H43C43.4142 41.25 43.75 41.5858 43.75 42C43.75 42.4142 43.4142 42.75 43 42.75H5.25C4.83579 42.75 4.5 42.4142 4.5 42C4.5 41.5858 4.83579 41.25 5.25 41.25H6.13474V34.6364C6.13474 34.2197 6.30077 33.8206 6.59557 33.5267C6.8903 33.2329 7.28956 33.0682 7.70539 33.0682H10.988C11.4038 33.0682 11.8031 33.2329 12.0978 33.5267C12.3926 33.8206 12.5587 34.2197 12.5587 34.6364V41.25H15.9826V26.4545C15.9826 26.0379 16.1486 25.6388 16.4434 25.3449C16.7381 25.051 17.1374 24.8864 17.5532 24.8864H20.8358C21.2517 24.8864 21.6509 25.051 21.9456 25.3449C22.2405 25.6388 22.4065 26.0379 22.4065 26.4545V41.25H25.8304V29.7273C25.8304 29.3106 25.9964 28.9115 26.2912 28.6176C26.586 28.3238 26.9852 28.1591 27.401 28.1591H30.6837C31.0995 28.1591 31.4987 28.3238 31.7935 28.6176C32.0883 28.9115 32.2543 29.3106 32.2543 29.7273V41.25H35.6782V18.2727C35.6782 17.8561 35.8442 17.457 36.1391 17.1631ZM37.1782 41.25H40.6021V18.2727C40.6021 18.2554 40.5952 18.2383 40.5822 18.2253C40.5692 18.2123 40.5509 18.2045 40.5315 18.2045H37.2489C37.2294 18.2045 37.2112 18.2123 37.1981 18.2253C37.1851 18.2383 37.1782 18.2554 37.1782 18.2727V41.25ZM30.7543 41.25V29.7273C30.7543 29.7099 30.7474 29.6928 30.7344 29.6799C30.7213 29.6668 30.7031 29.6591 30.6837 29.6591H27.401C27.3816 29.6591 27.3634 29.6668 27.3503 29.6799C27.3373 29.6928 27.3304 29.7099 27.3304 29.7273V41.25H30.7543ZM20.9065 41.25V26.4545C20.9065 26.4372 20.8996 26.4201 20.8866 26.4071C20.8735 26.3941 20.8553 26.3864 20.8358 26.3864H17.5532C17.5337 26.3864 17.5155 26.3941 17.5025 26.4071C17.4895 26.4201 17.4826 26.4372 17.4826 26.4545V41.25H20.9065ZM11.0587 41.25V34.6364C11.0587 34.619 11.0518 34.6019 11.0388 34.589C11.0257 34.5759 11.0075 34.5682 10.988 34.5682H7.70539C7.68592 34.5682 7.66771 34.5759 7.65463 34.589C7.64163 34.6019 7.63474 34.619 7.63474 34.6364V41.25H11.0587Z" fill="white"/>
</svg>
