<svg width="26" height="25" viewBox="0 0 26 25" fill="none" xmlns="http://www.w3.org/2000/svg">
<path d="M13.2379 15.8781C13.1207 15.8783 13.0093 15.8551 12.9038 15.8084C12.8021 15.7656 12.7043 15.6955 12.6104 15.598L8.18961 11.1006C8.04088 10.9486 7.96631 10.7632 7.96589 10.5444C7.96562 10.4038 8.00052 10.2729 8.0706 10.1517C8.14068 10.0304 8.23424 9.93259 8.35129 9.85815C8.46834 9.78761 8.60109 9.7522 8.74952 9.75191C8.96437 9.7515 9.15593 9.83316 9.32421 9.9969L13.2343 14.0031L17.1289 9.9819C17.2926 9.81752 17.4839 9.73512 17.7026 9.7347C17.8472 9.73442 17.9781 9.76933 18.0954 9.83942C18.2166 9.9134 18.3125 10.0109 18.3831 10.1318C18.4536 10.2528 18.489 10.3836 18.4893 10.5242C18.4897 10.743 18.4159 10.9286 18.2677 11.0813L13.8643 15.5956C13.7707 15.6895 13.6732 15.76 13.5717 15.8071C13.4702 15.8542 13.359 15.8778 13.2379 15.8781Z" fill="white"/>
</svg>
