<svg width="26" height="25" viewBox="0 0 26 25" fill="none" xmlns="http://www.w3.org/2000/svg">
<path d="M16.8596 12.1202C16.857 12.2374 16.8311 12.3481 16.7818 12.4525C16.7366 12.5531 16.6641 12.6492 16.5644 12.7407L11.9613 17.0513C11.8057 17.1963 11.6185 17.2663 11.3998 17.2614C11.2592 17.2583 11.1292 17.2202 11.0097 17.1472C10.8902 17.0742 10.7947 16.9783 10.7231 16.8595C10.6554 16.7408 10.6232 16.6072 10.6265 16.4588C10.6313 16.244 10.7176 16.0545 10.8854 15.8902L14.9851 12.0784L11.0594 8.0875C10.899 7.91982 10.8213 7.72663 10.8262 7.50794C10.8294 7.36344 10.8675 7.2334 10.9404 7.11781C11.0173 6.9984 11.117 6.9049 11.2397 6.83731C11.3623 6.76971 11.4939 6.73748 11.6345 6.74062C11.8532 6.7455 12.0371 6.82384 12.186 6.97563L16.5924 11.4871C16.684 11.583 16.7521 11.6822 16.7967 11.7847C16.8413 11.8873 16.8623 11.9991 16.8596 12.1202Z" fill="white"/>
</svg>
