<svg width="24" height="25" viewBox="0 0 24 25" fill="none" xmlns="http://www.w3.org/2000/svg">
<path d="M5.30775 20.5461C4.80258 20.5461 4.375 20.3711 4.025 20.0211C3.675 19.6711 3.5 19.2435 3.5 18.7383V5.35383C3.5 4.84866 3.675 4.42108 4.025 4.07108C4.375 3.72108 4.80258 3.54608 5.30775 3.54608H11.6152V5.04608H5.30775C5.23075 5.04608 5.16025 5.07816 5.09625 5.14233C5.03208 5.20633 5 5.27683 5 5.35383V18.7383C5 18.8153 5.03208 18.8858 5.09625 18.9498C5.16025 19.014 5.23075 19.0461 5.30775 19.0461H18.6923C18.7692 19.0461 18.8398 19.014 18.9038 18.9498C18.9679 18.8858 19 18.8153 19 18.7383V12.4308H20.5V18.7383C20.5 19.2435 20.325 19.6711 19.975 20.0211C19.625 20.3711 19.1974 20.5461 18.6923 20.5461H5.30775ZM9.71925 15.3806L8.6655 14.3268L17.9462 5.04608H14V3.54608H20.5V10.0461H19V6.09983L9.71925 15.3806Z" fill="white"/>
</svg>
