<svg width="24" height="24" viewBox="0 0 24 24" fill="none" xmlns="http://www.w3.org/2000/svg">
<path d="M7.79883 20.3916C7.11328 20.3916 6.59473 20.21 6.24316 19.8467C5.8916 19.4834 5.71582 18.9297 5.71582 18.1855V11.8135C5.71582 11.0752 5.8916 10.5244 6.24316 10.1611C6.59473 9.79785 7.11328 9.61621 7.79883 9.61621H16.1924C16.8779 9.61621 17.3965 9.79785 17.748 10.1611C18.0996 10.5244 18.2754 11.0752 18.2754 11.8135V18.1855C18.2754 18.9297 18.0996 19.4834 17.748 19.8467C17.3965 20.21 16.8779 20.3916 16.1924 20.3916H7.79883ZM8.2207 18.6074H15.7705C15.9463 18.6074 16.0811 18.5547 16.1748 18.4492C16.2686 18.3496 16.3154 18.1973 16.3154 17.9922V12.0068C16.3154 11.8018 16.2686 11.6494 16.1748 11.5498C16.0811 11.4502 15.9463 11.4004 15.7705 11.4004H8.2207C8.04492 11.4004 7.90723 11.4502 7.80762 11.5498C7.71387 11.6494 7.66699 11.8018 7.66699 12.0068V17.9922C7.66699 18.1973 7.71387 18.3496 7.80762 18.4492C7.90723 18.5547 8.04492 18.6074 8.2207 18.6074ZM7.38574 10.4072V7.58594C7.38574 6.51953 7.59668 5.62012 8.01855 4.8877C8.44043 4.15527 9 3.60156 9.69727 3.22656C10.4004 2.85156 11.165 2.66406 11.9912 2.66406C12.8174 2.66406 13.5791 2.85156 14.2764 3.22656C14.9795 3.60156 15.542 4.15527 15.9639 4.8877C16.3916 5.62012 16.6055 6.51953 16.6055 7.58594V10.4072H14.7598V7.4541C14.7598 6.81543 14.6338 6.27344 14.3818 5.82812C14.1299 5.37695 13.793 5.03418 13.3711 4.7998C12.9551 4.56543 12.4951 4.44824 11.9912 4.44824C11.4873 4.44824 11.0273 4.56543 10.6113 4.7998C10.1953 5.03418 9.86133 5.37695 9.60938 5.82812C9.36328 6.27344 9.24023 6.81543 9.24023 7.4541V10.4072H7.38574Z" fill="black"/>
</svg>
