<svg width="15" height="15" viewBox="0 0 15 15" fill="none" xmlns="http://www.w3.org/2000/svg">
<path d="M11.9819 5.11182H10.2319V3.79932C10.2319 3.10312 9.95537 2.43544 9.46309 1.94316C8.97081 1.45088 8.30313 1.17432 7.60693 1.17432C6.91074 1.17432 6.24306 1.45088 5.75078 1.94316C5.2585 2.43544 4.98193 3.10312 4.98193 3.79932V5.11182H3.23193C2.99987 5.11182 2.77731 5.204 2.61322 5.3681C2.44912 5.53219 2.35693 5.75475 2.35693 5.98682V12.1118C2.35693 12.3439 2.44912 12.5664 2.61322 12.7305C2.77731 12.8946 2.99987 12.9868 3.23193 12.9868H11.9819C12.214 12.9868 12.4366 12.8946 12.6007 12.7305C12.7647 12.5664 12.8569 12.3439 12.8569 12.1118V5.98682C12.8569 5.75475 12.7647 5.53219 12.6007 5.3681C12.4366 5.204 12.214 5.11182 11.9819 5.11182ZM7.60693 9.70557C7.47714 9.70557 7.35026 9.66708 7.24234 9.59497C7.13442 9.52286 7.05031 9.42037 7.00064 9.30045C6.95097 9.18054 6.93797 9.04859 6.96329 8.92129C6.98861 8.79399 7.05112 8.67706 7.14289 8.58528C7.23467 8.4935 7.35161 8.431 7.47891 8.40568C7.60621 8.38035 7.73816 8.39335 7.85807 8.44302C7.97798 8.49269 8.08048 8.5768 8.15259 8.68472C8.22469 8.79264 8.26318 8.91952 8.26318 9.04932C8.26318 9.22336 8.19404 9.39028 8.07097 9.51336C7.9479 9.63643 7.78098 9.70557 7.60693 9.70557ZM9.35693 5.11182H5.85693V3.79932C5.85693 3.33519 6.04131 2.89007 6.3695 2.56188C6.69769 2.23369 7.1428 2.04932 7.60693 2.04932C8.07106 2.04932 8.51618 2.23369 8.84437 2.56188C9.17256 2.89007 9.35693 3.33519 9.35693 3.79932V5.11182Z" fill="black"/>
</svg>
