<svg width="29" height="29" viewBox="0 0 29 29" fill="none" xmlns="http://www.w3.org/2000/svg">
<path d="M6.18848 18.9446C5.89536 18.438 6.07007 17.8005 6.57333 17.5103C7.07535 17.2205 7.71829 17.3906 8.00849 17.8939C8.2987 18.3959 8.12691 19.038 7.62406 19.3291C7.45728 19.4245 7.2759 19.4696 7.09745 19.4696C6.73595 19.4696 6.38445 19.2828 6.18848 18.9446ZM9.81683 15.8225C9.37152 15.0148 7.657 15.2817 8.21155 16.4366C7.53442 16.0568 6.68132 16.0334 5.96082 16.4487C4.87298 17.0771 4.50064 18.4689 5.12775 19.5559C5.7561 20.6412 7.14831 21.0148 8.23615 20.3877C8.95624 19.9724 9.3636 19.2232 9.37403 18.4484C10.097 19.5038 11.1861 18.1541 10.7091 17.366C11.1565 17.0329 12.0196 16.4846 12.8231 15.9951C12.8602 15.408 12.8852 14.8359 12.8973 14.2397C11.9375 14.7817 10.5132 15.521 9.81683 15.8225ZM21.1768 19.3291C20.6735 19.038 20.5018 18.3959 20.7915 17.8939C21.0817 17.3906 21.7243 17.2205 22.2267 17.5103C22.7304 17.8005 22.9047 18.438 22.6116 18.9446C22.4164 19.2828 22.0653 19.4696 21.7026 19.4696C21.5245 19.4696 21.3432 19.4245 21.1768 19.3291ZM15.9778 15.9951C16.7804 16.4846 17.6435 17.0329 18.0913 17.366C17.6147 18.1541 18.7034 19.5038 19.426 18.4484C19.4364 19.2232 19.8434 19.9724 20.5639 20.3877C21.6517 21.0148 23.0431 20.6412 23.6727 19.5559C24.2998 18.4689 23.9279 17.0771 22.8396 16.4487C22.1191 16.0334 21.2665 16.0568 20.5885 16.4366C21.1434 15.2817 19.4289 15.0148 18.9836 15.8225C18.2869 15.521 16.863 14.7817 15.9031 14.2397C15.9157 14.8359 15.9407 15.408 15.9778 15.9951ZM13.3493 5.76756C13.3493 5.18841 13.815 4.71808 14.4 4.71808C14.9858 4.71808 15.4507 5.18841 15.4507 5.76839C15.4507 6.34796 14.98 6.8187 14.4 6.8187C13.8192 6.8187 13.3493 6.34796 13.3493 5.76756ZM12.1243 5.76756C12.1243 6.59897 12.5704 7.32614 13.2371 7.72308C11.9604 7.82023 12.5863 9.43719 13.5086 9.41968C13.6057 10.2674 13.6566 12.2116 13.6566 13.2815C13.6566 17.2497 13.1083 22.1043 11.7436 23.4177C10.7679 23.4936 9.60585 23.3585 8.39835 23.0346C7.09494 22.6864 5.99835 22.1648 5.17069 21.5585C4.18334 21.6911 3.32399 21.9505 2.66979 22.299C4.15749 23.5858 5.82448 24.8008 7.66159 25.8594C9.82392 27.1082 12.2056 28.1289 14.4 28.7998C16.5711 28.1289 18.9761 27.1082 21.1384 25.8594C22.9751 24.8008 24.6421 23.5858 26.1311 22.299C25.476 21.9505 24.6171 21.6911 23.6298 21.5585C22.8013 22.1652 21.7047 22.6881 20.4017 23.0362C19.1942 23.3585 18.0325 23.4936 17.0564 23.419C15.6913 22.1043 15.1434 17.2497 15.1434 13.2815C15.1434 12.212 15.1939 10.2686 15.2919 9.41968C16.2134 9.43761 16.8405 7.82023 15.5629 7.72308C16.2292 7.32656 16.6753 6.59897 16.6753 5.76839C16.6753 4.51294 15.6563 3.49515 14.4 3.49431C13.1441 3.49515 12.1243 4.51294 12.1243 5.76756ZM7.65742 2.53948C5.43379 3.82204 3.45033 5.29973 1.74331 6.90251C1.20794 9.18368 0.923158 11.6316 0.920657 14.1988C0.919823 16.3186 1.13998 18.3713 1.5094 20.3027C2.13942 19.9099 2.79404 19.2949 3.40321 18.5089C3.29147 17.4874 3.38695 16.2782 3.73636 14.9756C4.0595 13.7702 4.52441 12.6974 5.07646 11.8893C6.5725 11.4594 9.86437 12.6815 12.8969 14.2368C12.9048 13.9099 12.9077 13.6026 12.9077 13.2786C12.9077 13.0138 12.9044 12.6945 12.8981 12.3513C10.3418 10.6205 8.07229 8.66165 7.73164 7.29237C8.15735 6.41009 8.85367 5.47152 9.73678 4.58882C10.6916 3.63608 11.6923 2.9481 12.6325 2.53448C13.0107 1.61384 13.2146 0.740318 13.2396 -0.000196457C11.3825 0.645252 9.49453 1.47916 7.65742 2.53948ZM16.1679 2.53448C17.1077 2.9481 18.1088 3.63608 19.0633 4.58882C19.9464 5.47152 20.6439 6.41009 21.0688 7.29237C20.7277 8.66165 18.4587 10.6205 15.9019 12.3513C15.8961 12.6945 15.8931 13.0138 15.8931 13.2786C15.8931 13.6026 15.8961 13.9099 15.9031 14.2368C18.9365 12.6815 22.2284 11.4594 23.7232 11.8893C24.276 12.6974 24.7409 13.7702 25.0641 14.9756C25.4135 16.2782 25.5098 17.4874 25.3968 18.5089C26.006 19.2949 26.6614 19.9099 27.2911 20.3027C27.6605 18.3713 27.8806 16.3186 27.8794 14.1988C27.8773 11.6316 27.5925 9.18368 27.0563 6.90251C25.3493 5.29973 23.3662 3.82204 21.1426 2.53948C19.3051 1.47916 17.4184 0.645252 15.56 -0.000196457C15.5858 0.740318 15.7901 1.61384 16.1679 2.53448Z" fill="white"/>
</svg>
