<svg width="24" height="24" viewBox="0 0 24 24" fill="none" xmlns="http://www.w3.org/2000/svg">
<path d="M4.37988 21.2344C3.41309 21.2344 2.67773 20.9824 2.17383 20.4785C1.67578 19.9746 1.42676 19.2363 1.42676 18.2637V5.05371C1.42676 4.08691 1.67578 3.34863 2.17383 2.83887C2.67773 2.3291 3.41309 2.07422 4.37988 2.07422H13.7666C14.7275 2.07422 15.46 2.3291 15.9639 2.83887C16.4678 3.34863 16.7197 4.08691 16.7197 5.05371V9.09668H14.7598V5.2207C14.7598 4.83984 14.6602 4.54687 14.4609 4.3418C14.2676 4.13672 13.9688 4.03418 13.5645 4.03418H4.58203C4.17773 4.03418 3.87598 4.13672 3.67676 4.3418C3.47754 4.54687 3.37793 4.83984 3.37793 5.2207V18.0967C3.37793 18.4834 3.47754 18.7764 3.67676 18.9756C3.87598 19.1807 4.17773 19.2832 4.58203 19.2832H13.5645C13.9688 19.2832 14.2676 19.1807 14.4609 18.9756C14.6602 18.7764 14.7598 18.4834 14.7598 18.0967V14.2119H16.7197V18.2637C16.7197 19.2363 16.4678 19.9746 15.9639 20.4785C15.46 20.9824 14.7275 21.2344 13.7666 21.2344H4.37988ZM9.35449 11.6543C9.35449 11.4082 9.44238 11.1973 9.61816 11.0215C9.79395 10.8398 9.99902 10.749 10.2334 10.749H18.9697L20.2705 10.8281L19.6816 10.3887L18.4248 9.21094C18.2549 9.05273 18.1699 8.85352 18.1699 8.61328C18.1699 8.39648 18.2402 8.21191 18.3809 8.05957C18.5273 7.90137 18.709 7.82227 18.9258 7.82227C19.1367 7.82227 19.3271 7.9043 19.4971 8.06836L22.2656 10.96C22.3828 11.0771 22.4619 11.1943 22.5029 11.3115C22.5498 11.4229 22.5732 11.5371 22.5732 11.6543C22.5732 11.7715 22.5498 11.8887 22.5029 12.0059C22.4619 12.1172 22.3828 12.2314 22.2656 12.3486L19.4971 15.2314C19.3271 15.4014 19.1367 15.4863 18.9258 15.4863C18.709 15.4863 18.5273 15.4072 18.3809 15.249C18.2402 15.0908 18.1699 14.9033 18.1699 14.6865C18.1699 14.4521 18.2549 14.2559 18.4248 14.0977L19.6816 12.9199L20.2705 12.4805L18.9697 12.5508H10.2334C9.99902 12.5508 9.79395 12.4629 9.61816 12.2871C9.44238 12.1113 9.35449 11.9004 9.35449 11.6543Z" fill="black"/>
</svg>
