<svg width="13" height="10" viewBox="0 0 13 10" fill="none" xmlns="http://www.w3.org/2000/svg">
<path d="M5.73206 4.61084C5.73206 4.7839 5.68074 4.95307 5.58459 5.09696C5.48845 5.24086 5.35179 5.35301 5.1919 5.41923C5.03202 5.48546 4.85609 5.50279 4.68635 5.46903C4.51662 5.43527 4.36071 5.35193 4.23834 5.22956C4.11597 5.10719 4.03263 4.95128 3.99887 4.78154C3.96511 4.61181 3.98243 4.43588 4.04866 4.27599C4.11489 4.11611 4.22704 3.97945 4.37093 3.8833C4.51482 3.78716 4.684 3.73584 4.85706 3.73584C5.08912 3.73584 5.31168 3.82803 5.47577 3.99212C5.63987 4.15622 5.73206 4.37878 5.73206 4.61084ZM12.2946 1.11084V8.98584C12.2946 9.2179 12.2024 9.44046 12.0383 9.60456C11.8742 9.76865 11.6516 9.86084 11.4196 9.86084H1.79456C1.56249 9.86084 1.33993 9.76865 1.17584 9.60456C1.01174 9.44046 0.919556 9.2179 0.919556 8.98584V1.11084C0.919556 0.878775 1.01174 0.656216 1.17584 0.492121C1.33993 0.328027 1.56249 0.23584 1.79456 0.23584H11.4196C11.6516 0.23584 11.8742 0.328027 12.0383 0.492121C12.2024 0.656216 12.2946 0.878775 12.2946 1.11084ZM7.03088 7.12646C6.88931 6.59786 6.55362 6.14207 6.09081 5.85006C6.33659 5.60573 6.5043 5.29393 6.57266 4.95418C6.64103 4.61443 6.60699 4.26203 6.47484 3.94166C6.34269 3.62128 6.1184 3.34735 5.83039 3.1546C5.54237 2.96184 5.20362 2.85895 4.85706 2.85895C4.51049 2.85895 4.17174 2.96184 3.88373 3.1546C3.59571 3.34735 3.37142 3.62128 3.23927 3.94166C3.10713 4.26203 3.07308 4.61443 3.14145 4.95418C3.20982 5.29393 3.37752 5.60573 3.62331 5.85006C3.16079 6.14239 2.8252 6.59805 2.68323 7.12646C2.65422 7.23887 2.67105 7.3582 2.73002 7.45819C2.789 7.55819 2.88527 7.63066 2.99768 7.65967C3.11009 7.68868 3.22941 7.67184 3.32941 7.61287C3.4294 7.5539 3.50188 7.45762 3.53088 7.34521C3.67526 6.78467 4.2451 6.36084 4.85706 6.36084C5.46901 6.36084 6.0394 6.78357 6.18323 7.34521C6.21224 7.45762 6.28471 7.5539 6.3847 7.61287C6.4847 7.67184 6.60402 7.68868 6.71643 7.65967C6.82884 7.63066 6.92512 7.55819 6.98409 7.45819C7.04306 7.3582 7.05989 7.23887 7.03088 7.12646ZM10.5446 5.92334C10.5446 5.80731 10.4985 5.69603 10.4164 5.61398C10.3344 5.53193 10.2231 5.48584 10.1071 5.48584H7.91956C7.80352 5.48584 7.69224 5.53193 7.6102 5.61398C7.52815 5.69603 7.48206 5.80731 7.48206 5.92334C7.48206 6.03937 7.52815 6.15065 7.6102 6.2327C7.69224 6.31475 7.80352 6.36084 7.91956 6.36084H10.1071C10.2231 6.36084 10.3344 6.31475 10.4164 6.2327C10.4985 6.15065 10.5446 6.03937 10.5446 5.92334ZM10.5446 4.17334C10.5446 4.05731 10.4985 3.94603 10.4164 3.86398C10.3344 3.78193 10.2231 3.73584 10.1071 3.73584H7.91956C7.80352 3.73584 7.69224 3.78193 7.6102 3.86398C7.52815 3.94603 7.48206 4.05731 7.48206 4.17334C7.48206 4.28937 7.52815 4.40065 7.6102 4.4827C7.69224 4.56475 7.80352 4.61084 7.91956 4.61084H10.1071C10.2231 4.61084 10.3344 4.56475 10.4164 4.4827C10.4985 4.40065 10.5446 4.28937 10.5446 4.17334Z" fill="black"/>
</svg>
