<svg width="24" height="24" viewBox="0 0 24 24" fill="none" xmlns="http://www.w3.org/2000/svg">
<path d="M0.398438 18.2461V5.07129C0.398438 4.83105 0.47168 4.64062 0.618164 4.5C0.764648 4.35352 0.955078 4.28027 1.18945 4.28027H22.8105C23.0449 4.28027 23.2324 4.35352 23.373 4.5C23.5195 4.64062 23.5928 4.83105 23.5928 5.07129V18.2461C23.5928 18.4863 23.5195 18.6768 23.373 18.8174C23.2324 18.9639 23.0449 19.0371 22.8105 19.0371H1.18945C0.955078 19.0371 0.764648 18.9639 0.618164 18.8174C0.47168 18.6768 0.398438 18.4863 0.398438 18.2461ZM2.34961 16.8398C2.34961 17.0039 2.43164 17.0859 2.5957 17.0859H21.3955C21.5596 17.0859 21.6416 17.0039 21.6416 16.8398V6.48633C21.6416 6.31641 21.5596 6.23145 21.3955 6.23145H2.5957C2.43164 6.23145 2.34961 6.31641 2.34961 6.48633V16.8398ZM3.1582 15.8379V7.4707C3.1582 7.17773 3.29883 7.03125 3.58008 7.03125H20.4199C20.7012 7.03125 20.8418 7.17773 20.8418 7.4707V15.8379C20.8418 16.1309 20.7012 16.2773 20.4199 16.2773H3.58008C3.29883 16.2773 3.1582 16.1309 3.1582 15.8379ZM4.11621 15.1348C4.11621 15.252 4.1748 15.3105 4.29199 15.3105H19.708C19.8252 15.3105 19.8838 15.252 19.8838 15.1348V8.17383C19.8838 8.05664 19.8252 7.99805 19.708 7.99805H4.29199C4.1748 7.99805 4.11621 8.05664 4.11621 8.17383V15.1348ZM11.9648 16.2773C11.3672 16.2773 10.8281 16.0869 10.3477 15.7061C9.87305 15.3252 9.49512 14.7891 9.21387 14.0977C8.93262 13.4004 8.79199 12.583 8.79199 11.6455C8.79199 10.7197 8.93262 9.91113 9.21387 9.21973C9.49512 8.52832 9.87305 7.99219 10.3477 7.61133C10.8281 7.22461 11.3672 7.03125 11.9648 7.03125C12.5742 7.03125 13.125 7.22461 13.6172 7.61133C14.1094 7.99219 14.4961 8.52832 14.7773 9.21973C15.0645 9.91113 15.208 10.7197 15.208 11.6455C15.208 12.583 15.0645 13.4004 14.7773 14.0977C14.4961 14.7891 14.1094 15.3252 13.6172 15.7061C13.125 16.0869 12.5742 16.2773 11.9648 16.2773ZM11.9648 15.126C12.3574 15.126 12.7148 14.9854 13.0371 14.7041C13.3652 14.417 13.626 14.0127 13.8193 13.4912C14.0127 12.9697 14.1094 12.3545 14.1094 11.6455C14.1094 10.9424 14.0127 10.333 13.8193 9.81738C13.626 9.2959 13.3652 8.89453 13.0371 8.61328C12.7148 8.33203 12.3574 8.19141 11.9648 8.19141C11.5898 8.19141 11.2441 8.33203 10.9277 8.61328C10.6172 8.89453 10.3682 9.2959 10.1807 9.81738C9.99316 10.333 9.89941 10.9424 9.89941 11.6455C9.89941 12.3545 9.99316 12.9697 10.1807 13.4912C10.3682 14.0127 10.6172 14.417 10.9277 14.7041C11.2441 14.9854 11.5898 15.126 11.9648 15.126Z" fill="#306E2B"/>
</svg>
