<svg width="25" height="24" viewBox="0 0 25 24" fill="none" xmlns="http://www.w3.org/2000/svg">
<path d="M6.5 10C5.395 10 4.5 10.895 4.5 12C4.5 13.105 5.395 14 6.5 14C7.605 14 8.5 13.105 8.5 12C8.5 10.895 7.605 10 6.5 10ZM18.5 10C17.395 10 16.5 10.895 16.5 12C16.5 13.105 17.395 14 18.5 14C19.605 14 20.5 13.105 20.5 12C20.5 10.895 19.605 10 18.5 10ZM12.5 10C11.395 10 10.5 10.895 10.5 12C10.5 13.105 11.395 14 12.5 14C13.605 14 14.5 13.105 14.5 12C14.5 10.895 13.605 10 12.5 10Z" fill="black"/>
</svg>
