<svg width="13" height="13" viewBox="0 0 13 13" fill="none" xmlns="http://www.w3.org/2000/svg">
<path d="M11.9961 9.30898C11.671 8.74883 11.1876 7.16387 11.1876 5.09375C11.1876 3.85055 10.6937 2.65826 9.81462 1.77919C8.93554 0.90011 7.74326 0.40625 6.50005 0.40625C5.25685 0.40625 4.06457 0.90011 3.18549 1.77919C2.30641 2.65826 1.81255 3.85055 1.81255 5.09375C1.81255 7.16445 1.32857 8.74883 1.00337 9.30898C0.920329 9.45139 0.876304 9.61318 0.875738 9.77803C0.875172 9.94288 0.918085 10.105 1.00015 10.2479C1.08222 10.3909 1.20053 10.5097 1.34316 10.5924C1.48579 10.675 1.6477 10.7186 1.81255 10.7188H4.20376C4.31191 11.2479 4.59952 11.7235 5.01794 12.0651C5.43637 12.4067 5.95992 12.5932 6.50005 12.5932C7.04018 12.5932 7.56374 12.4067 7.98216 12.0651C8.40059 11.7235 8.68819 11.2479 8.79634 10.7188H11.1876C11.3524 10.7185 11.5142 10.6749 11.6567 10.5922C11.7993 10.5095 11.9175 10.3906 11.9995 10.2477C12.0815 10.1047 12.1244 9.94269 12.1238 9.77789C12.1232 9.61308 12.0792 9.45135 11.9961 9.30898ZM6.50005 11.6562C6.20932 11.6562 5.92577 11.566 5.68841 11.3981C5.45106 11.2302 5.27157 10.9929 5.17466 10.7188H7.82544C7.72853 10.9929 7.54905 11.2302 7.3117 11.3981C7.07434 11.566 6.79078 11.6562 6.50005 11.6562Z" fill="#50B848"/>
</svg>
