<svg width="20" height="21" viewBox="0 0 20 21" fill="none" xmlns="http://www.w3.org/2000/svg">
<g clip-path="url(#clip0_375_6138)">
<path d="M2.42822 14.4824C2.42822 14.209 2.49414 13.9526 2.62598 13.7134C2.7627 13.4692 2.93604 13.2373 3.146 13.0176C3.35596 12.793 3.57324 12.5732 3.79785 12.3584C3.97852 12.1924 4.11768 11.9775 4.21533 11.7139C4.31787 11.4453 4.39355 11.145 4.44238 10.813C4.49609 10.4761 4.54248 10.1172 4.58154 9.73633C4.62549 8.83789 4.75244 8.03955 4.9624 7.34131C5.17236 6.64307 5.47998 6.05713 5.88525 5.5835C6.29541 5.10498 6.81787 4.75098 7.45264 4.52148C7.59912 4.02832 7.87012 3.62061 8.26562 3.29834C8.66113 2.97119 9.12988 2.80762 9.67188 2.80762C10.2236 2.80762 10.6973 2.97119 11.0928 3.29834C11.4883 3.62061 11.7593 4.02832 11.9058 4.52148C12.5356 4.75098 13.0532 5.10498 13.4585 5.5835C13.8687 6.05713 14.1787 6.64307 14.3887 7.34131C14.6035 8.03955 14.7329 8.83789 14.7769 9.73633C14.8159 10.1172 14.8599 10.4761 14.9087 10.813C14.9624 11.145 15.0381 11.4453 15.1357 11.7139C15.2383 11.9775 15.3799 12.1924 15.5605 12.3584C15.7852 12.5732 16.0024 12.793 16.2124 13.0176C16.4224 13.2373 16.5933 13.4692 16.7251 13.7134C16.8618 13.9526 16.9302 14.209 16.9302 14.4824C16.9302 14.8242 16.813 15.1001 16.5786 15.3101C16.3442 15.5151 16.0244 15.6177 15.6191 15.6177H12.6602C12.6406 16.0864 12.5039 16.5283 12.25 16.9434C12.001 17.3584 11.6543 17.6929 11.21 17.9468C10.7705 18.2056 10.2578 18.335 9.67188 18.335C9.0957 18.335 8.58545 18.2056 8.14111 17.9468C7.70166 17.688 7.35498 17.3511 7.10107 16.936C6.85205 16.5259 6.71777 16.0864 6.69824 15.6177H3.73926C3.33398 15.6177 3.01416 15.5151 2.77979 15.3101C2.54541 15.1001 2.42822 14.8242 2.42822 14.4824ZM4.42041 14.1016H14.9087V14.021C14.8306 13.9526 14.7378 13.8696 14.6304 13.772C14.5278 13.6694 14.4155 13.5571 14.2935 13.4351C14.1763 13.313 14.0591 13.1836 13.9419 13.0469C13.8247 12.9053 13.7197 12.7295 13.627 12.5195C13.5342 12.3096 13.4561 12.0728 13.3926 11.8091C13.334 11.5454 13.2827 11.2598 13.2388 10.9521C13.1948 10.6445 13.1631 10.3198 13.1436 9.97803C13.1143 9.04541 13.002 8.30078 12.8066 7.74414C12.6113 7.18262 12.3599 6.76025 12.0522 6.47705C11.7495 6.19385 11.4102 6.00098 11.0342 5.89844C10.9463 5.87891 10.8755 5.84473 10.8218 5.7959C10.7729 5.74707 10.7461 5.66895 10.7412 5.56152C10.7168 5.2002 10.6094 4.90967 10.4189 4.68994C10.2334 4.47021 9.98438 4.36035 9.67188 4.36035C9.36426 4.36035 9.11768 4.47021 8.93213 4.68994C8.74658 4.90967 8.6416 5.2002 8.61719 5.56152C8.60742 5.66895 8.57812 5.74707 8.5293 5.7959C8.48047 5.84473 8.41211 5.87891 8.32422 5.89844C7.94336 6.00098 7.59912 6.19385 7.2915 6.47705C6.98877 6.76025 6.73975 7.18262 6.54443 7.74414C6.354 8.30078 6.2417 9.04541 6.20752 9.97803C6.18799 10.3198 6.15869 10.6445 6.11963 10.9521C6.08057 11.2598 6.02686 11.5454 5.9585 11.8091C5.89502 12.0728 5.81689 12.3096 5.72412 12.5195C5.63623 12.7295 5.53125 12.9053 5.40918 13.0469C5.29688 13.1836 5.17725 13.313 5.05029 13.4351C4.92822 13.5571 4.81104 13.6694 4.69873 13.772C4.59131 13.8696 4.49854 13.9526 4.42041 14.021V14.1016ZM8.2583 15.6177C8.28271 16.0522 8.42676 16.3989 8.69043 16.6577C8.9541 16.9165 9.28125 17.0459 9.67188 17.0459C10.0723 17.0459 10.4019 16.9165 10.6606 16.6577C10.9243 16.3989 11.0708 16.0522 11.1001 15.6177H8.2583Z" fill="black"/>
</g>
<defs>
<clipPath id="clip0_375_6138">
<rect y="0.929688" width="20" height="20" rx="4" fill="white"/>
</clipPath>
</defs>
</svg>
