<svg width="15" height="15" viewBox="0 0 15 15" fill="none" xmlns="http://www.w3.org/2000/svg">
<path d="M13.2879 10.0819C13.1904 10.8229 12.8264 11.5031 12.2641 11.9955C11.7017 12.4878 10.9794 12.7586 10.2319 12.7572C5.88975 12.7572 2.35694 9.2244 2.35694 4.88221C2.3556 4.13479 2.62638 3.41244 3.1187 2.85008C3.61102 2.28771 4.29122 1.92379 5.03225 1.82628C5.21964 1.8034 5.4094 1.84173 5.57321 1.93556C5.73702 2.02939 5.86609 2.17369 5.94116 2.3469L7.09616 4.92542V4.93198C7.15363 5.06457 7.17736 5.20933 7.16524 5.35333C7.15312 5.49733 7.10553 5.63609 7.0267 5.75721C7.01686 5.77198 7.00647 5.78565 6.99553 5.79932L5.85694 7.14901C6.26655 7.98135 7.13717 8.84432 7.98045 9.25503L9.31155 8.12245C9.32462 8.11146 9.33831 8.10123 9.35256 8.09182C9.47358 8.01111 9.61282 7.96183 9.75767 7.94847C9.90252 7.9351 10.0484 7.95806 10.1822 8.01526L10.1893 8.01854L12.7656 9.17299C12.9391 9.24779 13.0838 9.37675 13.1779 9.54058C13.2721 9.70442 13.3106 9.89432 13.2879 10.0819Z" fill="black"/>
</svg>
