<svg width="113" height="129" viewBox="0 0 113 129" fill="none" xmlns="http://www.w3.org/2000/svg">
<g opacity="0.1">
<path fill-rule="evenodd" clip-rule="evenodd" d="M82.1743 18.6476C82.3086 17.573 83.2882 16.8107 84.3623 16.945L100.724 18.9912C101.798 19.1255 102.56 20.1056 102.426 21.1802L100.381 37.5496C100.246 38.6242 99.2667 39.3865 98.1926 39.2522C97.1185 39.1179 96.3566 38.1378 96.4908 37.0632L98.0049 24.9452L27.9403 71.6768C27.0396 72.2775 25.8227 72.034 25.2223 71.1329C24.6218 70.2318 24.8652 69.0144 25.7659 68.4136L95.0103 22.229L83.8761 20.8366C82.8019 20.7023 82.04 19.7222 82.1743 18.6476ZM92.3689 51.6296C92.3689 49.4172 94.1627 47.6225 96.3741 47.6225H104.555C106.766 47.6225 108.56 49.4172 108.56 51.6296V109.008H110.707C111.789 109.008 112.667 109.886 112.667 110.969C112.667 112.052 111.789 112.93 110.707 112.93H16.627C15.5445 112.93 14.667 112.052 14.667 110.969C14.667 109.886 15.5445 109.008 16.627 109.008H18.7411V100.738C18.7411 98.5254 20.5348 96.7308 22.7463 96.7308H30.9272C33.1386 96.7308 34.9324 98.5254 34.9324 100.738V109.008H43.2837V84.3685C43.2837 82.156 45.0774 80.3614 47.2889 80.3614H55.4698C57.6812 80.3614 59.475 82.156 59.475 84.3685V109.008H67.8263V67.9991C67.8263 65.7866 69.6201 63.992 71.8315 63.992H80.0124C82.2238 63.992 84.0176 65.7866 84.0176 67.9991V109.008H92.3689V51.6296ZM96.2889 109.008H104.64V51.6296C104.64 51.6147 104.638 51.6052 104.634 51.5977C104.631 51.5888 104.624 51.5789 104.615 51.5696C104.606 51.5603 104.596 51.5539 104.587 51.5502C104.582 51.5481 104.576 51.5462 104.568 51.5452C104.564 51.5447 104.56 51.5444 104.555 51.5444H96.3741C96.3592 51.5444 96.3496 51.547 96.3421 51.5502C96.3333 51.5539 96.3234 51.5603 96.3141 51.5696C96.3048 51.5789 96.2984 51.5888 96.2947 51.5977C96.2915 51.6052 96.2889 51.6147 96.2889 51.6296V109.008ZM80.0976 109.008V67.9991C80.0976 67.9841 80.0949 67.9746 80.0918 67.9671C80.088 67.9582 80.0817 67.9483 80.0724 67.939C80.0663 67.9329 80.0599 67.928 80.0537 67.9244C80.0505 67.9225 80.0474 67.9209 80.0443 67.9196C80.0368 67.9164 80.0273 67.9138 80.0124 67.9138H71.8315C71.8166 67.9138 71.807 67.9164 71.7995 67.9196C71.7907 67.9234 71.7808 67.9297 71.7715 67.939C71.7621 67.9483 71.7558 67.9582 71.7521 67.9671C71.7504 67.9711 71.7489 67.9756 71.7478 67.9812C71.7469 67.9862 71.7463 67.992 71.7463 67.9991V109.008H80.0976ZM55.555 109.008V84.3685C55.555 84.3535 55.5523 84.344 55.5492 84.3365C55.5454 84.3277 55.5391 84.3177 55.5298 84.3084C55.5205 84.2991 55.5105 84.2928 55.5017 84.289C55.4942 84.2859 55.4847 84.2832 55.4698 84.2832H47.2889C47.274 84.2832 47.2644 84.2859 47.2569 84.289C47.2481 84.2928 47.2382 84.2991 47.2289 84.3084C47.2235 84.3137 47.2192 84.3192 47.2158 84.3246C47.2132 84.3287 47.2111 84.3327 47.2095 84.3365C47.2063 84.344 47.2037 84.3535 47.2037 84.3685V109.008H55.555ZM31.0124 109.008V100.738C31.0124 100.723 31.0097 100.713 31.0065 100.706C31.0028 100.697 30.9965 100.687 30.9872 100.678C30.9779 100.668 30.9679 100.662 30.9591 100.658C30.9516 100.655 30.9421 100.653 30.9272 100.653H22.7463C22.7314 100.653 22.7218 100.655 22.7143 100.658C22.7055 100.662 22.6956 100.668 22.6862 100.678C22.6769 100.687 22.6706 100.697 22.6669 100.706C22.6637 100.713 22.6611 100.723 22.6611 100.738V109.008H31.0124Z" fill="black"/>
</g>
</svg>
