<svg width="48" height="48" viewBox="0 0 48 48" fill="none" xmlns="http://www.w3.org/2000/svg">
<path fill-rule="evenodd" clip-rule="evenodd" d="M24 7.44C14.8542 7.44 7.44 14.8542 7.44 24C7.44 33.1458 14.8542 40.56 24 40.56C33.1458 40.56 40.56 33.1458 40.56 24C40.56 14.8542 33.1458 7.44 24 7.44ZM6 24C6 14.0589 14.0589 6 24 6C33.9411 6 42 14.0589 42 24C42 33.9411 33.9411 42 24 42C14.0589 42 6 33.9411 6 24ZM22.9812 14.826C23.1642 14.7037 23.3793 14.6384 23.5994 14.6384C23.8945 14.6384 24.1776 14.7557 24.3862 14.9643C24.5949 15.173 24.7121 15.456 24.7121 15.7512C24.7121 15.9712 24.6469 16.1864 24.5246 16.3694C24.4023 16.5523 24.2286 16.695 24.0252 16.7792C23.8219 16.8634 23.5982 16.8854 23.3823 16.8425C23.1665 16.7996 22.9682 16.6936 22.8126 16.538C22.657 16.3824 22.551 16.1841 22.5081 15.9682C22.4651 15.7524 22.4872 15.5287 22.5714 15.3253C22.6556 15.122 22.7982 14.9482 22.9812 14.826ZM23.7247 16.0535C23.7444 16.0454 23.7633 16.0352 23.7812 16.0233C23.8172 15.9993 23.8478 15.9685 23.8715 15.933C23.8834 15.9152 23.8935 15.8963 23.9018 15.8764C23.9183 15.8365 23.9267 15.7939 23.9267 15.7512C23.9267 15.7298 23.9246 15.7084 23.9204 15.6873C23.9078 15.6238 23.8766 15.5655 23.8308 15.5197C23.7851 15.474 23.7267 15.4428 23.6633 15.4302C23.6421 15.426 23.6208 15.4239 23.5994 15.4239C23.5566 15.4239 23.5141 15.4323 23.4742 15.4488C23.4543 15.457 23.4353 15.4672 23.4176 15.479C23.382 15.5028 23.3513 15.5334 23.3273 15.5693C23.3153 15.5872 23.3052 15.6062 23.2971 15.6259C23.2807 15.6654 23.2721 15.708 23.2721 15.7512C23.2721 15.7728 23.2743 15.7941 23.2784 15.815C23.291 15.878 23.3219 15.9365 23.368 15.9826C23.4141 16.0287 23.4725 16.0596 23.5356 16.0721C23.5564 16.0763 23.5778 16.0784 23.5994 16.0784C23.6426 16.0784 23.6851 16.0699 23.7247 16.0535ZM20.1382 19.2936C20.1382 18.8959 20.4605 18.5736 20.8582 18.5736H23.2145C23.6138 18.5736 23.9967 18.7322 24.2791 19.0145C24.5614 19.2968 24.72 19.6797 24.72 20.079V30.2899C24.72 30.5156 24.8097 30.732 24.9692 30.8916C25.1288 31.0512 25.3452 31.1408 25.5709 31.1408H27.9273C28.3249 31.1408 28.6473 31.4632 28.6473 31.8608C28.6473 32.2585 28.3249 32.5808 27.9273 32.5808H25.5709C24.9633 32.5808 24.3806 32.3395 23.951 31.9098C23.5214 31.4802 23.28 30.8975 23.28 30.2899V20.079C23.28 20.0616 23.2731 20.045 23.2608 20.0327C23.2486 20.0205 23.2319 20.0136 23.2145 20.0136H20.8582C20.4605 20.0136 20.1382 19.6912 20.1382 19.2936Z" fill="white"/>
</svg>
