<svg width="32" height="32" viewBox="0 0 32 32" fill="none" xmlns="http://www.w3.org/2000/svg">
<path fill-rule="evenodd" clip-rule="evenodd" d="M13.3088 4.52174C13.3088 3.9576 13.7664 3.5 14.3305 3.5H20.8001L20.8056 3.50003C20.9899 3.50206 21.1706 3.55311 21.3303 3.65139C21.8105 3.94625 21.9607 4.57362 21.6672 5.05452L21.6644 5.05913L19.828 7.99679C19.8263 7.9994 19.8248 8.00182 19.8234 8.00401C19.819 8.01416 19.8227 8.02599 19.8327 8.03178L19.8353 8.03335C19.9108 8.07789 19.9932 8.12547 20.0814 8.1764C21.4778 8.98295 24.3262 10.6282 24.3262 14.321L24.3262 14.3225C24.3216 15.8674 23.7066 17.3473 22.6147 18.4403C22.4195 18.6357 22.1029 18.6359 21.9076 18.4407C21.7122 18.2455 21.712 17.929 21.9072 17.7336C22.8124 16.8274 23.3223 15.6007 23.3262 14.32C23.3256 11.2236 20.9747 9.85458 19.5576 9.02934C19.478 8.98302 19.4014 8.93841 19.3283 8.8953C18.8441 8.61257 18.6784 7.99323 18.9557 7.50676C18.9673 7.48568 18.9775 7.47035 18.9814 7.46442L18.9816 7.46421L20.8141 4.53282C20.8203 4.52167 20.8163 4.50927 20.807 4.50354L20.8062 4.50305C20.8042 4.50179 20.8026 4.50119 20.8013 4.50082C20.8002 4.50049 20.7984 4.50011 20.7957 4.5H14.3305C14.3267 4.5 14.3243 4.50067 14.3223 4.50149C14.3201 4.50244 14.3176 4.50405 14.3152 4.50642C14.3128 4.5088 14.3112 4.51133 14.3102 4.51358C14.3094 4.5155 14.3088 4.51793 14.3088 4.52174C14.3088 4.52783 14.3106 4.53086 14.3106 4.53086L14.3121 4.53332L16.1298 7.44253L16.13 7.44281C16.4278 7.92004 16.2841 8.55055 15.8048 8.84987C15.7795 8.86578 15.7562 8.87848 15.7458 8.88414L15.7438 8.88521C15.7413 8.88661 15.7387 8.88798 15.7361 8.88933C14.4032 9.5864 11.8023 10.9631 11.8023 14.321L11.8023 14.3228C11.7985 15.3746 12.1301 16.3988 12.7498 17.2487C12.9125 17.4719 12.8635 17.7846 12.6404 17.9473C12.4172 18.11 12.1045 18.061 11.9418 17.8379C11.1968 16.8161 10.798 15.5847 10.8023 14.3203C10.8027 10.3401 13.9234 8.70859 15.2449 8.01775L15.2686 8.00535L15.2717 8.00365L15.2738 8.00245L15.275 8.00173C15.2782 7.99971 15.2799 7.99791 15.281 7.99634C15.2823 7.99446 15.2835 7.99186 15.2843 7.98864C15.285 7.98541 15.2851 7.9824 15.2847 7.97993C15.2843 7.97784 15.2836 7.97541 15.2817 7.97224V7.97224L13.4656 5.06566C13.4653 5.06519 13.465 5.06472 13.4647 5.06425C13.3611 4.89992 13.3088 4.71128 13.3088 4.52174ZM17.5695 9.76087C17.8456 9.76087 18.0695 9.98473 18.0695 10.2609V10.8043H19.6522C19.9284 10.8043 20.1522 11.0282 20.1522 11.3043C20.1522 11.5805 19.9284 11.8043 19.6522 11.8043H16.5218C16.2219 11.8043 15.9783 12.048 15.9783 12.3478C15.9783 12.6477 16.2219 12.8913 16.5218 12.8913H18.6088C19.4609 12.8913 20.1522 13.5826 20.1522 14.4348C20.1522 15.2869 19.4609 15.9783 18.6088 15.9783H18.0695V16.5217C18.0695 16.7979 17.8456 17.0217 17.5695 17.0217C17.2933 17.0217 17.0695 16.7979 17.0695 16.5217V15.9783H15.4783C15.2022 15.9783 14.9783 15.7544 14.9783 15.4783C14.9783 15.2021 15.2022 14.9783 15.4783 14.9783H18.6088C18.9086 14.9783 19.1522 14.7346 19.1522 14.4348C19.1522 14.1349 18.9086 13.8913 18.6088 13.8913H16.5218C15.6697 13.8913 14.9783 13.2 14.9783 12.3478C14.9783 11.4957 15.6697 10.8043 16.5218 10.8043H17.0695V10.2609C17.0695 9.98473 17.2933 9.76087 17.5695 9.76087ZM7.95142 19.205C8.02084 19.1702 8.0974 19.1522 8.17502 19.1522H11.3055C11.3113 19.1522 11.3172 19.1523 11.3231 19.1525C13.1566 19.2171 14.8978 19.9629 16.2085 21.2391H19.0919C19.2583 21.2149 19.4271 21.2175 19.593 21.2467L19.5953 21.2471C20.2666 21.3688 20.7616 21.9036 20.8608 22.5434L24.7121 21.2646C24.7172 21.2629 24.7224 21.2613 24.7277 21.2597C26.0879 20.8569 27.5551 21.3454 28.4014 22.4844C28.4896 22.6031 28.5207 22.7548 28.4864 22.8986C28.4521 23.0424 28.3559 23.1637 28.2236 23.2298C25.8966 24.3931 24.1381 25.3395 22.738 26.0931C22.2224 26.3706 21.7554 26.6219 21.3264 26.8483C19.7514 27.6797 18.6533 28.1964 17.5805 28.3721C16.4842 28.5517 15.4626 28.3692 14.0523 27.9331C13.3318 27.7103 12.4758 27.4094 11.4316 27.0423C10.5219 26.7225 9.4693 26.3526 8.23906 25.9403L4.26507 28.424C4.0309 28.5704 3.72242 28.4992 3.57607 28.265C3.42971 28.0308 3.5009 27.7224 3.73507 27.576L7.90898 24.9673C8.03546 24.8883 8.19064 24.8698 8.33213 24.917C9.7047 25.3746 10.8335 25.7718 11.7902 26.1084C12.8088 26.4667 13.6324 26.7565 14.3477 26.9777C15.7104 27.3991 16.553 27.5271 17.4189 27.3853C18.3082 27.2396 19.2701 26.803 20.8596 25.964C21.2796 25.7423 21.7408 25.4941 22.2524 25.2187C23.5314 24.5304 25.1247 23.6729 27.1719 22.6391C26.5758 22.164 25.7747 21.9953 25.0191 22.2164L20.5896 23.6872C20.2589 24.1509 19.6868 24.4143 19.0902 24.3261H13.3914C13.1152 24.3261 12.8914 24.1022 12.8914 23.8261C12.8914 23.5499 13.1152 23.3261 13.3914 23.3261H19.1305C19.1601 23.3261 19.1896 23.3287 19.2188 23.3339C19.4402 23.3737 19.6549 23.2773 19.7767 23.1044C19.7927 23.0601 19.8148 23.0183 19.8425 22.9802C19.8544 22.9487 19.8636 22.9156 19.8698 22.8813C19.9246 22.5789 19.7233 22.2873 19.4182 22.2313C19.3519 22.2198 19.2848 22.2198 19.2184 22.2315C19.1898 22.2366 19.1607 22.2391 19.1315 22.2391H16.0011C15.8658 22.2391 15.7362 22.1843 15.642 22.0871C14.4974 20.9058 12.9401 20.2123 11.2965 20.1522H8.29306L4.22472 22.1863C3.97773 22.3098 3.67739 22.2097 3.5539 21.9627C3.4304 21.7157 3.53051 21.4154 3.7775 21.2919L7.95142 19.205Z" fill="url(#paint0_linear_926_7196)"/>
<defs>
<linearGradient id="paint0_linear_926_7196" x1="3.5" y1="16" x2="28.5001" y2="16" gradientUnits="userSpaceOnUse">
<stop stop-color="#009979"/>
<stop offset="1" stop-color="#3F9339"/>
</linearGradient>
</defs>
</svg>
