<svg width="49" height="48" viewBox="0 0 49 48" fill="none" xmlns="http://www.w3.org/2000/svg">
<path fill-rule="evenodd" clip-rule="evenodd" d="M32.9166 6.75C32.9166 6.33579 33.2524 6 33.6666 6H39.4166C41.0735 6 42.4166 7.34315 42.4166 9V14.75C42.4166 15.1642 42.0808 15.5 41.6666 15.5C41.2524 15.5 40.9166 15.1642 40.9166 14.75V9C40.9166 8.17157 40.2451 7.5 39.4166 7.5H33.6666C33.2524 7.5 32.9166 7.16421 32.9166 6.75Z" fill="#50B848"/>
<path fill-rule="evenodd" clip-rule="evenodd" d="M32.9166 41.25C32.9166 41.6642 33.2524 42 33.6666 42H39.4166C41.0735 42 42.4166 40.6569 42.4166 39V33.25C42.4166 32.8358 42.0808 32.5 41.6666 32.5C41.2524 32.5 40.9166 32.8358 40.9166 33.25V39C40.9166 39.8284 40.2451 40.5 39.4166 40.5H33.6666C33.2524 40.5 32.9166 40.8358 32.9166 41.25Z" fill="#50B848"/>
<path fill-rule="evenodd" clip-rule="evenodd" d="M15.1666 6.75C15.1666 6.33579 14.8308 6 14.4166 6H8.91663C7.25977 6 5.91663 7.34315 5.91663 9V14.75C5.91663 15.1642 6.25241 15.5 6.66663 15.5C7.08084 15.5 7.41663 15.1642 7.41663 14.75V9C7.41663 8.17157 8.0882 7.5 8.91663 7.5H14.4166C14.8308 7.5 15.1666 7.16421 15.1666 6.75Z" fill="#50B848"/>
<path fill-rule="evenodd" clip-rule="evenodd" d="M15.1666 41.25C15.1666 41.6642 14.8308 42 14.4166 42H8.91663C7.25977 42 5.91663 40.6569 5.91663 39V33.25C5.91663 32.8358 6.25241 32.5 6.66663 32.5C7.08084 32.5 7.41663 32.8358 7.41663 33.25V39C7.41663 39.8284 8.0882 40.5 8.91663 40.5H14.4166C14.8308 40.5 15.1666 40.8358 15.1666 41.25Z" fill="#50B848"/>
<path fill-rule="evenodd" clip-rule="evenodd" d="M24.2916 11.75C21.5404 11.75 18.9016 12.8447 16.9558 14.7936C15.01 16.7425 13.9166 19.3861 13.9166 22.1429V22.2784C13.9618 22.2744 14.0087 22.27 14.0573 22.2652C14.6321 22.208 15.4408 22.0934 16.3664 21.8638C18.2262 21.4027 20.5079 20.4905 22.3313 18.6993C23.3874 17.6619 25.1959 17.6619 26.2519 18.6993C28.0753 20.4905 30.357 21.4027 32.2168 21.8638C33.1425 22.0934 33.9512 22.208 34.526 22.2652C34.5746 22.27 34.6215 22.2744 34.6666 22.2784V22.1429C34.6666 19.3861 33.5733 16.7425 31.6274 14.7936C29.6817 12.8447 27.0429 11.75 24.2916 11.75ZM34.6666 23.7838C34.5772 23.7766 34.4807 23.768 34.3777 23.7578C33.7459 23.695 32.8644 23.5699 31.8558 23.3197C29.847 22.8216 27.2836 21.8153 25.2008 19.7694C24.7283 19.3052 23.855 19.3052 23.3825 19.7694C21.2997 21.8153 18.7363 22.8216 16.7274 23.3197C15.7188 23.5699 14.8373 23.695 14.2056 23.7578C14.1026 23.768 14.0061 23.7766 13.9166 23.7838V25.8571C13.9166 28.6139 15.01 31.2575 16.9558 33.2064C18.9016 35.1553 21.5404 36.25 24.2916 36.25C27.0429 36.25 29.6817 35.1553 31.6274 33.2064C33.5733 31.2575 34.6666 28.6139 34.6666 25.8571V23.7838ZM12.4166 22.1429C12.4166 18.9891 13.6674 15.9642 15.8943 13.7338C18.1212 11.5033 21.1418 10.25 24.2916 10.25C27.4415 10.25 30.462 11.5033 32.6889 13.7338C34.9158 15.9642 36.1666 18.9891 36.1666 22.1429V25.8571C36.1666 29.0109 34.9158 32.0358 32.6889 34.2662C30.462 36.4967 27.4415 37.75 24.2916 37.75C21.1418 37.75 18.1212 36.4967 15.8943 34.2662C13.6674 32.0358 12.4166 29.0109 12.4166 25.8571V22.1429ZM19.8581 26.0598L19.8592 26.0587C19.8993 26.0186 19.9261 25.9678 19.9371 25.9132C19.9408 25.8949 19.9427 25.8761 19.9427 25.8571C19.9427 25.8193 19.9351 25.7819 19.9206 25.7472C19.9136 25.7304 19.9049 25.7142 19.8947 25.6989C19.8735 25.6672 19.8463 25.6401 19.8147 25.6191C19.7995 25.6091 19.7833 25.6004 19.7662 25.5933C19.7312 25.5788 19.6938 25.5714 19.6562 25.5714C19.6375 25.5714 19.6187 25.5733 19.6001 25.577C19.5448 25.588 19.4941 25.615 19.4543 25.6545L19.4532 25.6555C19.4133 25.6956 19.3862 25.7464 19.3752 25.8016C19.3716 25.82 19.3698 25.8386 19.3698 25.8571C19.3698 25.8943 19.377 25.9314 19.3914 25.9661C19.3987 25.9838 19.4078 26.0007 19.4185 26.0166C19.4391 26.0471 19.4655 26.0736 19.4966 26.0944C19.5126 26.1051 19.5295 26.1141 19.5472 26.1213C19.5816 26.1355 19.6186 26.1429 19.6562 26.1429C19.675 26.1429 19.6936 26.141 19.7118 26.1374C19.7669 26.1266 19.8179 26.0997 19.8581 26.0598ZM18.7977 24.9989C19.0252 24.7711 19.334 24.6429 19.6562 24.6429C19.8965 24.6429 20.1313 24.7142 20.3309 24.8478C20.5305 24.9814 20.6858 25.1711 20.7775 25.3928C20.8692 25.6146 20.8932 25.8585 20.8465 26.0938C20.7997 26.3291 20.6844 26.5454 20.5147 26.7153C20.3451 26.8853 20.1288 27.0011 19.8932 27.0481C19.6575 27.095 19.4133 27.0709 19.1914 26.9788C18.9695 26.8868 18.7801 26.731 18.6469 26.5313C18.5137 26.3316 18.4427 26.097 18.4427 25.8571C18.4427 25.5355 18.5702 25.2268 18.7977 24.9989ZM29.129 26.0598L29.13 26.0587C29.1701 26.0186 29.197 25.9678 29.2079 25.9132C29.2116 25.8949 29.2135 25.8761 29.2135 25.8571C29.2135 25.8193 29.206 25.7819 29.1915 25.7472C29.1844 25.7304 29.1758 25.7142 29.1655 25.6989C29.1444 25.6671 29.1171 25.6401 29.0855 25.6191C29.0703 25.6091 29.0541 25.6004 29.0371 25.5933C29.002 25.5788 28.9646 25.5714 28.927 25.5714C28.9083 25.5714 28.8895 25.5733 28.8709 25.577C28.8156 25.588 28.7649 25.615 28.7251 25.6545L28.7241 25.6555C28.6841 25.6956 28.657 25.7464 28.646 25.8016C28.6424 25.82 28.6406 25.8386 28.6406 25.8571C28.6406 25.8943 28.6479 25.9314 28.6622 25.9661C28.6696 25.9838 28.6787 26.0007 28.6893 26.0166C28.7099 26.0471 28.7364 26.0736 28.7674 26.0944C28.7834 26.1051 28.8004 26.1141 28.818 26.1213C28.8524 26.1355 28.8894 26.1429 28.927 26.1429C28.9458 26.1429 28.9644 26.141 28.9826 26.1374C29.0377 26.1266 29.0887 26.0997 29.129 26.0598ZM28.0685 24.9989C28.296 24.7711 28.6048 24.6429 28.927 24.6429C29.1673 24.6429 29.4021 24.7142 29.6017 24.8478C29.8013 24.9814 29.9567 25.1711 30.0484 25.3928C30.1401 25.6146 30.164 25.8585 30.1173 26.0938C30.0706 26.3291 29.9552 26.5454 29.7856 26.7153C29.6159 26.8853 29.3997 27.0011 29.164 27.0481C28.9284 27.095 28.6841 27.0709 28.4622 26.9788C28.2404 26.8868 28.0509 26.731 27.9177 26.5313C27.7845 26.3316 27.7135 26.097 27.7135 25.8571C27.7135 25.5355 27.8411 25.2268 28.0685 24.9989ZM21.1399 29.8096C21.4329 29.5169 21.9078 29.5172 22.2005 29.8103C22.7554 30.3659 23.5076 30.6778 24.2916 30.6778C25.0757 30.6778 25.8279 30.3659 26.3827 29.8103C26.6754 29.5172 27.1503 29.5169 27.4434 29.8096C27.7365 30.1023 27.7368 30.5772 27.4441 30.8703C26.6081 31.7073 25.4742 32.1778 24.2916 32.1778C23.109 32.1778 21.9751 31.7073 21.1392 30.8703C20.8465 30.5772 20.8468 30.1023 21.1399 29.8096Z" fill="#50B848"/>
</svg>
