<svg width="49" height="49" viewBox="0 0 49 49" fill="none" xmlns="http://www.w3.org/2000/svg">
<path d="M24.5415 15.8507C22.7614 15.8507 21.0214 16.3785 19.5413 17.3674C18.0613 18.3564 16.9077 19.762 16.2266 21.4065C15.5454 23.0511 15.3671 24.8607 15.7144 26.6065C16.0617 28.3523 16.9188 29.956 18.1775 31.2146C19.4362 32.4733 21.0398 33.3305 22.7857 33.6777C24.5315 34.025 26.3411 33.8468 27.9856 33.1656C29.6302 32.4844 31.0358 31.3308 32.0247 29.8508C33.0136 28.3708 33.5415 26.6307 33.5415 24.8507C33.539 22.4645 32.59 20.1767 30.9027 18.4895C29.2154 16.8022 26.9277 15.8532 24.5415 15.8507ZM24.5415 30.8507C23.3548 30.8507 22.1947 30.4988 21.208 29.8395C20.2214 29.1802 19.4523 28.2431 18.9982 27.1468C18.5441 26.0504 18.4252 24.844 18.6568 23.6801C18.8883 22.5162 19.4597 21.4471 20.2988 20.608C21.1379 19.7689 22.207 19.1975 23.3709 18.966C24.5348 18.7344 25.7412 18.8533 26.8376 19.3074C27.9339 19.7615 28.871 20.5306 29.5303 21.5173C30.1896 22.5039 30.5415 23.664 30.5415 24.8507C30.5415 26.442 29.9093 27.9681 28.7841 29.0933C27.6589 30.2185 26.1328 30.8507 24.5415 30.8507ZM41.0415 25.2557C41.049 24.9857 41.049 24.7157 41.0415 24.4457L43.839 20.9507C43.9857 20.7672 44.0872 20.5518 44.1354 20.3218C44.1836 20.0919 44.1771 19.8539 44.1165 19.6269C43.6579 17.9031 42.9718 16.2479 42.0765 14.705C41.9592 14.5031 41.7965 14.3314 41.6012 14.2035C41.4059 14.0755 41.1834 13.995 40.9515 13.9682L36.504 13.4732C36.319 13.2782 36.1315 13.0907 35.9415 12.9107L35.4165 8.45192C35.3895 8.21982 35.3086 7.99724 35.1804 7.80192C35.0521 7.6066 34.88 7.44394 34.6777 7.32692C33.1343 6.4332 31.4793 5.74786 29.7558 5.2888C29.5287 5.22842 29.2906 5.22224 29.0607 5.27077C28.8308 5.31929 28.6154 5.42117 28.4321 5.56817L24.9465 8.35067C24.6765 8.35067 24.4065 8.35067 24.1365 8.35067L20.6415 5.5588C20.458 5.41211 20.2426 5.31058 20.0126 5.26238C19.7827 5.21418 19.5447 5.22066 19.3177 5.2813C17.5941 5.74072 15.9391 6.4267 14.3958 7.3213C14.1939 7.43853 14.0222 7.60128 13.8943 7.79659C13.7663 7.99189 13.6858 8.21437 13.659 8.4463L13.164 12.9013C12.969 13.0875 12.7815 13.275 12.6015 13.4638L8.14272 13.9757C7.91062 14.0027 7.68803 14.0835 7.49271 14.2118C7.29739 14.34 7.13474 14.5122 7.01772 14.7144C6.12399 16.2579 5.43866 17.9129 4.97959 19.6363C4.91921 19.8634 4.91304 20.1015 4.96156 20.3315C5.01009 20.5614 5.11196 20.7767 5.25897 20.96L8.04147 24.4457C8.04147 24.7157 8.04147 24.9857 8.04147 25.2557L5.24959 28.7507C5.10291 28.9342 5.00138 29.1496 4.95318 29.3795C4.90498 29.6094 4.91146 29.8475 4.97209 30.0744C5.4307 31.7983 6.11672 33.4535 7.01209 34.9963C7.12933 35.1982 7.29208 35.37 7.48738 35.4979C7.68269 35.6258 7.90516 35.7064 8.13709 35.7332L12.5846 36.2282C12.7708 36.4232 12.9583 36.6107 13.1471 36.7907L13.6665 41.2494C13.6935 41.4815 13.7743 41.7041 13.9026 41.8994C14.0308 42.0947 14.203 42.2574 14.4052 42.3744C15.9487 43.2682 17.6037 43.9535 19.3271 44.4126C19.5542 44.4729 19.7923 44.4791 20.0223 44.4306C20.2522 44.3821 20.4675 44.2802 20.6508 44.1332L24.1365 41.3507C24.4065 41.3582 24.6765 41.3582 24.9465 41.3507L28.4415 44.1482C28.625 44.2949 28.8404 44.3964 29.0703 44.4446C29.3002 44.4928 29.5383 44.4863 29.7652 44.4257C31.4891 43.9671 33.1443 43.281 34.6871 42.3857C34.889 42.2684 35.0607 42.1057 35.1887 41.9104C35.3166 41.7151 35.3972 41.4926 35.424 41.2607L35.919 36.8132C36.114 36.6282 36.3015 36.4407 36.4815 36.2507L40.9402 35.7257C41.1723 35.6987 41.3949 35.6178 41.5902 35.4896C41.7855 35.3613 41.9482 35.1892 42.0652 34.9869C42.9589 33.4435 43.6443 31.7885 44.1033 30.065C44.1637 29.8379 44.1699 29.5998 44.1214 29.3699C44.0728 29.14 43.971 28.9246 43.824 28.7413L41.0415 25.2557ZM38.0227 24.0369C38.0546 24.579 38.0546 25.1224 38.0227 25.6644C38.0004 26.0355 38.1166 26.4017 38.349 26.6919L41.0096 30.0163C40.7043 30.9865 40.3134 31.9278 39.8415 32.8288L35.604 33.3088C35.2349 33.3498 34.8942 33.5261 34.6477 33.8038C34.2868 34.2097 33.9024 34.5941 33.4965 34.955C33.2188 35.2015 33.0424 35.5423 33.0015 35.9113L32.5308 40.1451C31.6299 40.6172 30.6887 41.0081 29.7183 41.3132L26.3921 38.6525C26.1259 38.4399 25.7953 38.3242 25.4546 38.3244H25.3646C24.8226 38.3563 24.2791 38.3563 23.7371 38.3244C23.366 38.3021 22.9998 38.4184 22.7096 38.6507L19.3758 41.3132C18.4056 41.0079 17.4644 40.617 16.5633 40.1451L16.0833 35.9132C16.0424 35.5441 15.866 35.2034 15.5883 34.9569C15.1824 34.596 14.798 34.2116 14.4371 33.8057C14.1906 33.528 13.8499 33.3516 13.4808 33.3107L9.24709 32.8382C8.77495 31.9372 8.38403 30.996 8.07897 30.0257L10.7396 26.6994C10.9719 26.4092 11.0882 26.043 11.0658 25.6719C11.034 25.1299 11.034 24.5865 11.0658 24.0444C11.0882 23.6733 10.9719 23.3072 10.7396 23.0169L8.07897 19.685C8.38426 18.7148 8.77518 17.7736 9.24709 16.8725L13.479 16.3925C13.848 16.3516 14.1887 16.1752 14.4352 15.8975C14.7961 15.4916 15.1805 15.1072 15.5865 14.7463C15.8652 14.4996 16.0423 14.1581 16.0833 13.7882L16.554 9.5563C17.4549 9.08416 18.3961 8.69324 19.3665 8.38817L22.6927 11.0488C22.983 11.2811 23.3491 11.3974 23.7202 11.375C24.2623 11.3432 24.8057 11.3432 25.3477 11.375C25.7188 11.3974 26.085 11.2811 26.3752 11.0488L29.7071 8.38817C30.6773 8.69347 31.6185 9.08438 32.5196 9.5563L32.9996 13.7882C33.0406 14.1572 33.2169 14.4979 33.4946 14.7444C33.9005 15.1053 34.2849 15.4898 34.6458 15.8957C34.8923 16.1733 35.2331 16.3497 35.6021 16.3907L39.8358 16.8613C40.308 17.7622 40.6989 18.7035 41.004 19.6738L38.3433 23C38.1088 23.2927 37.9924 23.6627 38.0171 24.0369H38.0227Z" fill="white"/>
</svg>
