<svg width="22" height="21" viewBox="0 0 22 21" fill="none" xmlns="http://www.w3.org/2000/svg">
<path d="M11 19.3115C10.9004 19.3115 10.8008 19.3086 10.7012 19.3027C10.6074 19.3027 10.5107 19.2998 10.4111 19.2939L9.94531 20.1729C9.875 20.3018 9.77832 20.3984 9.65527 20.4629C9.53809 20.5273 9.40625 20.5479 9.25977 20.5244C9.11328 20.4951 8.99316 20.4307 8.89941 20.3311C8.80566 20.2373 8.75 20.1113 8.73242 19.9531L8.5918 18.9775C8.19922 18.8604 7.83301 18.7256 7.49316 18.5732L6.75488 19.2412C6.6377 19.3408 6.51172 19.3994 6.37695 19.417C6.24805 19.4346 6.11914 19.4053 5.99023 19.3291C5.86133 19.2588 5.77051 19.1592 5.71777 19.0303C5.66504 18.9072 5.65332 18.7695 5.68262 18.6172L5.88477 17.6504C5.73242 17.5391 5.58008 17.4189 5.42773 17.29C5.27539 17.167 5.13184 17.0352 4.99707 16.8945L4.07422 17.2725C3.76953 17.3896 3.52051 17.3281 3.32715 17.0879C3.2334 16.9766 3.18066 16.8535 3.16895 16.7188C3.15723 16.584 3.19238 16.4492 3.27441 16.3145L3.80176 15.4883C3.69629 15.3242 3.59375 15.1572 3.49414 14.9873C3.40039 14.8174 3.30957 14.6475 3.22168 14.4775L2.22852 14.4951C2.07617 14.501 1.94141 14.4717 1.82422 14.4072C1.71289 14.3369 1.63379 14.2285 1.58691 14.082C1.54004 13.9414 1.53418 13.8066 1.56934 13.6777C1.60449 13.543 1.68359 13.4287 1.80664 13.335L2.58887 12.7285C2.54199 12.541 2.50098 12.3535 2.46582 12.166C2.43066 11.9727 2.4043 11.7764 2.38672 11.5771L1.4375 11.2695C1.29102 11.2227 1.17676 11.1465 1.09473 11.041C1.01855 10.9297 0.980469 10.8008 0.980469 10.6543C0.980469 10.502 1.01855 10.373 1.09473 10.2676C1.17676 10.1562 1.29102 10.0801 1.4375 10.0391L2.38672 9.73145C2.4043 9.53223 2.43066 9.33887 2.46582 9.15137C2.50098 8.95801 2.54199 8.76758 2.58887 8.58008L1.80664 7.96484C1.54297 7.76562 1.46973 7.51953 1.58691 7.22656C1.63379 7.08594 1.71289 6.98047 1.82422 6.91016C1.94141 6.83398 2.0791 6.79883 2.2373 6.80469L3.22168 6.83984C3.30957 6.66406 3.40039 6.49121 3.49414 6.32129C3.59375 6.15137 3.69629 5.9873 3.80176 5.8291L3.2832 4.98535C3.10742 4.7041 3.11914 4.44922 3.31836 4.2207C3.41797 4.10937 3.53223 4.03613 3.66113 4.00098C3.7959 3.95996 3.93359 3.96875 4.07422 4.02734L4.98828 4.40527C5.13477 4.27051 5.28125 4.1416 5.42773 4.01855C5.57422 3.89551 5.72656 3.77539 5.88477 3.6582L5.69141 2.68262C5.65625 2.53613 5.66504 2.40137 5.71777 2.27832C5.77051 2.14941 5.86133 2.0498 5.99023 1.97949C6.11914 1.90918 6.25098 1.87988 6.38574 1.8916C6.52051 1.90332 6.64648 1.96191 6.76367 2.06738L7.49316 2.73535C7.66895 2.65332 7.84766 2.58008 8.0293 2.51562C8.21094 2.44531 8.39551 2.38086 8.58301 2.32227L8.73242 1.34668C8.75586 1.19434 8.81152 1.06836 8.89941 0.96875C8.9873 0.869141 9.10742 0.807617 9.25977 0.78418C9.40625 0.760742 9.54102 0.77832 9.66406 0.836914C9.78711 0.895508 9.88086 0.995117 9.94531 1.13574L10.4111 2.00586C10.5107 2 10.6074 1.99707 10.7012 1.99707C10.8008 1.99707 10.9004 1.99707 11 1.99707C11.0996 1.99707 11.1963 1.99707 11.29 1.99707C11.3838 1.99707 11.4805 2 11.5801 2.00586L12.0547 1.12695C12.125 0.998047 12.2188 0.901367 12.3359 0.836914C12.459 0.772461 12.5938 0.754883 12.7402 0.78418C12.8809 0.813477 12.998 0.87793 13.0918 0.977539C13.1914 1.07129 13.25 1.19434 13.2676 1.34668L13.3994 2.32227C13.5928 2.38086 13.7803 2.44531 13.9619 2.51562C14.1436 2.58008 14.3223 2.65039 14.498 2.72656L15.2451 2.06738C15.3623 1.96777 15.4854 1.90918 15.6143 1.8916C15.7432 1.87402 15.875 1.90332 16.0098 1.97949C16.1387 2.0498 16.2295 2.14941 16.2822 2.27832C16.335 2.40137 16.3467 2.53613 16.3174 2.68262L16.1064 3.6582C16.2588 3.76953 16.4111 3.88965 16.5635 4.01855C16.7158 4.1416 16.8594 4.27051 16.9941 4.40527L17.9258 4.03613C18.2305 3.91895 18.4795 3.97754 18.6729 4.21191C18.7666 4.3291 18.8164 4.45508 18.8223 4.58984C18.834 4.72461 18.7988 4.85938 18.7168 4.99414L18.1982 5.82031C18.3037 5.98438 18.4033 6.15137 18.4971 6.32129C18.5967 6.48535 18.6904 6.65527 18.7783 6.83105L19.7627 6.80469C19.9209 6.80469 20.0557 6.83984 20.167 6.91016C20.2783 6.97461 20.3574 7.08008 20.4043 7.22656C20.457 7.36719 20.4658 7.50488 20.4307 7.63965C20.3955 7.76855 20.3135 7.87695 20.1846 7.96484L19.4023 8.58008C19.4551 8.76172 19.4961 8.94922 19.5254 9.14258C19.5605 9.33594 19.5898 9.53223 19.6133 9.73145L20.5537 10.0391C20.7002 10.0801 20.8145 10.1562 20.8965 10.2676C20.9785 10.373 21.0195 10.502 21.0195 10.6543C21.0195 10.8008 20.9785 10.9297 20.8965 11.041C20.8145 11.1465 20.7002 11.2227 20.5537 11.2695L19.6133 11.5771C19.5898 11.7764 19.5605 11.9727 19.5254 12.166C19.4961 12.3535 19.4551 12.541 19.4023 12.7285L20.1934 13.3438C20.3164 13.4375 20.3955 13.5488 20.4307 13.6777C20.4717 13.8066 20.4658 13.9385 20.4131 14.0732C20.3604 14.2139 20.2783 14.3223 20.167 14.3984C20.0557 14.4746 19.9209 14.5098 19.7627 14.5039L18.7783 14.4688C18.6904 14.6387 18.5967 14.8086 18.4971 14.9785C18.4033 15.1484 18.3037 15.3154 18.1982 15.4795L18.7168 16.3232C18.7988 16.4521 18.8369 16.584 18.8311 16.7188C18.8252 16.8535 18.7725 16.9766 18.6729 17.0879C18.5791 17.1992 18.4648 17.2725 18.3301 17.3076C18.2012 17.3486 18.0635 17.3398 17.917 17.2812L17.0029 16.9033C16.8623 17.0322 16.7158 17.1582 16.5635 17.2812C16.417 17.4102 16.2646 17.5332 16.1064 17.6504L16.3086 18.626C16.3379 18.7725 16.3262 18.9072 16.2734 19.0303C16.2266 19.1533 16.1387 19.2529 16.0098 19.3291C15.875 19.3994 15.7402 19.4287 15.6055 19.417C15.4707 19.4053 15.3477 19.3467 15.2363 19.2412L14.5068 18.5732C14.3252 18.6553 14.1436 18.7285 13.9619 18.793C13.7803 18.8633 13.5957 18.9248 13.4082 18.9775L13.2588 19.9619C13.2412 20.1143 13.1855 20.2402 13.0918 20.3398C13.0039 20.4395 12.8867 20.501 12.7402 20.5244C12.5879 20.542 12.4502 20.5215 12.3271 20.4629C12.21 20.4043 12.1162 20.3076 12.0459 20.1729L11.5801 19.2939C11.4805 19.2998 11.3838 19.3027 11.29 19.3027C11.1963 19.3086 11.0996 19.3115 11 19.3115ZM11 17.4395C11.9375 17.4395 12.8135 17.2637 13.6279 16.9121C14.4482 16.5547 15.1689 16.0684 15.79 15.4531C16.417 14.832 16.9033 14.1113 17.249 13.291C17.6006 12.4707 17.7764 11.5918 17.7764 10.6543C17.7764 9.7168 17.6006 8.83789 17.249 8.01758C16.9033 7.19727 16.417 6.47656 15.79 5.85547C15.1689 5.23437 14.4482 4.74805 13.6279 4.39648C12.8135 4.04492 11.9375 3.86914 11 3.86914C10.0625 3.86914 9.18359 4.04492 8.36328 4.39648C7.54297 4.74805 6.82227 5.23437 6.20117 5.85547C5.58008 6.47656 5.09375 7.19727 4.74219 8.01758C4.39062 8.83789 4.21484 9.7168 4.21484 10.6543C4.21484 11.5918 4.39062 12.4707 4.74219 13.291C5.09375 14.1113 5.58008 14.832 6.20117 15.4531C6.82227 16.0684 7.54297 16.5547 8.36328 16.9121C9.18359 17.2637 10.0625 17.4395 11 17.4395ZM9.20703 9.19531L6.3418 4.28223L7.75684 3.55273L10.5518 8.35156L9.20703 9.19531ZM13.1709 11.4365L13.1797 9.8457H18.752V11.4365H13.1709ZM10.5518 12.9658L7.65137 17.7383L6.24512 16.9736L9.22461 12.0957L10.5518 12.9658ZM11 13.2119C10.5254 13.2119 10.0947 13.0977 9.70801 12.8691C9.32129 12.6406 9.01367 12.333 8.78516 11.9463C8.55664 11.5537 8.44238 11.123 8.44238 10.6543C8.44238 10.1797 8.55664 9.74902 8.78516 9.3623C9.01367 8.97559 9.32129 8.66797 9.70801 8.43945C10.0947 8.20508 10.5254 8.08789 11 8.08789C11.4746 8.08789 11.9053 8.20508 12.292 8.43945C12.6787 8.66797 12.9863 8.97559 13.2148 9.3623C13.4492 9.74902 13.5664 10.1797 13.5664 10.6543C13.5664 11.123 13.4492 11.5537 13.2148 11.9463C12.9863 12.333 12.6787 12.6406 12.292 12.8691C11.9053 13.0977 11.4746 13.2119 11 13.2119ZM11 11.6562C11.2754 11.6562 11.5098 11.5596 11.7031 11.3662C11.9023 11.167 12.002 10.9297 12.002 10.6543C12.002 10.3789 11.9023 10.1445 11.7031 9.95117C11.5098 9.75195 11.2754 9.65234 11 9.65234C10.7246 9.65234 10.4873 9.75195 10.2881 9.95117C10.0947 10.1445 9.99805 10.3789 9.99805 10.6543C9.99805 10.9297 10.0947 11.167 10.2881 11.3662C10.4873 11.5596 10.7246 11.6562 11 11.6562Z" fill="black"/>
</svg>
