<svg width="20" height="20" viewBox="0 0 20 20" fill="none" xmlns="http://www.w3.org/2000/svg">
<path d="M8.04492 17.7686C7.97461 17.7686 7.88672 17.7539 7.78125 17.7246C7.67578 17.6953 7.56738 17.6514 7.45605 17.5928C6.20801 16.8896 5.15332 16.2656 4.29199 15.7207C3.43652 15.1758 2.74805 14.6484 2.22656 14.1387C1.70508 13.6289 1.32715 13.0781 1.09277 12.4863C0.858398 11.8945 0.741211 11.1973 0.741211 10.3945V3.6709C0.741211 3.20801 0.837891 2.87695 1.03125 2.67773C1.23047 2.47266 1.51465 2.29395 1.88379 2.1416C2.08887 2.05371 2.37305 1.93945 2.73633 1.79883C3.09961 1.6582 3.50098 1.50586 3.94043 1.3418C4.37988 1.17773 4.81641 1.0166 5.25 0.858398C5.68945 0.694336 6.09082 0.550781 6.4541 0.427734C6.81738 0.298828 7.10449 0.205078 7.31543 0.146484C7.43262 0.117188 7.55273 0.0878906 7.67578 0.0585938C7.79883 0.0292969 7.92188 0.0146484 8.04492 0.0146484C8.16797 0.0146484 8.29102 0.0292969 8.41406 0.0585938C8.54297 0.0820313 8.66602 0.111328 8.7832 0.146484C8.98828 0.216797 9.27246 0.316406 9.63574 0.445312C9.99902 0.574219 10.4004 0.717773 10.8398 0.875977C11.2793 1.03418 11.7158 1.19531 12.1494 1.35938C12.5889 1.51758 12.9902 1.66699 13.3535 1.80762C13.7168 1.94238 14.001 2.05371 14.2061 2.1416C14.5811 2.2998 14.8652 2.47852 15.0586 2.67773C15.252 2.87695 15.3486 3.20801 15.3486 3.6709V9.34863C15.2373 9.33691 15.123 9.32812 15.0059 9.32227C14.8887 9.31055 14.7715 9.30469 14.6543 9.30469C14.5371 9.30469 14.4199 9.31055 14.3027 9.32227C14.1914 9.32812 14.0742 9.33691 13.9512 9.34863V3.94336C13.9512 3.79687 13.9307 3.68555 13.8896 3.60938C13.8545 3.5332 13.7783 3.47461 13.6611 3.43359C13.3857 3.33984 13.0693 3.23145 12.7119 3.1084C12.3604 2.97949 11.9883 2.84473 11.5957 2.7041C11.209 2.56348 10.8193 2.42285 10.4268 2.28223C10.04 2.13574 9.6709 1.99805 9.31934 1.86914C8.96777 1.73438 8.66016 1.61426 8.39648 1.50879C8.36133 1.49121 8.3291 1.47949 8.2998 1.47363C8.27637 1.46777 8.25293 1.46191 8.22949 1.45605V16.1426C8.28223 16.125 8.33789 16.1016 8.39648 16.0723C8.45508 16.043 8.51953 16.0078 8.58984 15.9668L9.04688 15.6768C9.07617 15.9346 9.12305 16.1836 9.1875 16.4238C9.25195 16.6699 9.33105 16.9072 9.4248 17.1357L8.63379 17.5928C8.52246 17.6514 8.41406 17.6953 8.30859 17.7246C8.20312 17.7539 8.11523 17.7686 8.04492 17.7686ZM14.6543 19.4385C14.0449 19.4385 13.4707 19.3213 12.9316 19.0869C12.3926 18.8584 11.918 18.5391 11.5078 18.1289C11.0977 17.7188 10.7754 17.2441 10.541 16.7051C10.3066 16.166 10.1895 15.5889 10.1895 14.9736C10.1895 14.3584 10.3066 13.7842 10.541 13.251C10.7754 12.7119 11.0977 12.2373 11.5078 11.8271C11.918 11.4111 12.3926 11.0889 12.9316 10.8604C13.4707 10.626 14.0449 10.5088 14.6543 10.5088C15.2695 10.5088 15.8467 10.626 16.3857 10.8604C16.9248 11.0889 17.3994 11.4082 17.8096 11.8184C18.2197 12.2285 18.5391 12.7031 18.7676 13.2422C19.002 13.7812 19.1191 14.3584 19.1191 14.9736C19.1191 15.583 19.002 16.1572 18.7676 16.6963C18.5332 17.2354 18.208 17.71 17.792 18.1201C17.3818 18.5303 16.9072 18.8525 16.3682 19.0869C15.8291 19.3213 15.2578 19.4385 14.6543 19.4385ZM14.127 17.3818C14.332 17.3818 14.4844 17.3115 14.584 17.1709L17.1416 13.6289C17.1826 13.5703 17.2119 13.5117 17.2295 13.4531C17.2529 13.3945 17.2646 13.3418 17.2646 13.2949C17.2646 13.1367 17.209 13.0078 17.0977 12.9082C16.9863 12.8027 16.8574 12.75 16.7109 12.75C16.5176 12.75 16.3623 12.832 16.2451 12.9961L14.1006 15.9668L13.0195 14.7979C12.9727 14.7451 12.9141 14.7012 12.8438 14.666C12.7734 14.6309 12.6914 14.6133 12.5977 14.6133C12.4453 14.6133 12.3164 14.666 12.2109 14.7715C12.1055 14.877 12.0527 15.0088 12.0527 15.167C12.0527 15.2256 12.0645 15.29 12.0879 15.3604C12.1113 15.4365 12.1465 15.5039 12.1934 15.5625L13.6875 17.1885C13.7402 17.2529 13.8076 17.2998 13.8896 17.3291C13.9717 17.3643 14.0508 17.3818 14.127 17.3818Z" fill="white"/>
</svg>
