<svg width="26" height="24" viewBox="0 0 26 24" fill="none" xmlns="http://www.w3.org/2000/svg">
<path fill-rule="evenodd" clip-rule="evenodd" d="M1.66633 2.14447C1.30811 2.36132 1.29551 2.49405 1.29551 2.5C1.29551 2.50595 1.30811 2.63868 1.66633 2.85553C1.9985 3.05662 2.51375 3.25621 3.19679 3.4311C4.55524 3.77892 6.46082 4 8.58599 4C10.7112 4 12.6167 3.77892 13.9752 3.4311C14.6582 3.25621 15.1735 3.05662 15.5056 2.85553C15.8639 2.63868 15.8765 2.50595 15.8765 2.5C15.8765 2.49405 15.8639 2.36132 15.5056 2.14447C15.1735 1.94338 14.6582 1.74379 13.9752 1.5689C12.6167 1.22108 10.7112 1 8.58599 1C6.46082 1 4.55524 1.22108 3.19679 1.5689C2.51375 1.74379 1.9985 1.94338 1.66633 2.14447ZM2.92844 0.602669C4.39709 0.226631 6.39713 0 8.58599 0C10.7748 0 12.7749 0.226631 14.2435 0.602669C14.9741 0.789712 15.6027 1.02108 16.0611 1.29855C16.4934 1.56026 16.918 1.95367 16.918 2.5C16.918 3.04633 16.4934 3.43974 16.0611 3.70145C15.6027 3.97892 14.9741 4.21029 14.2435 4.39733C12.7749 4.77337 10.7748 5 8.58599 5C6.39713 5 4.39709 4.77337 2.92844 4.39733C2.19792 4.21029 1.56924 3.97892 1.11088 3.70145C0.678558 3.43974 0.254009 3.04633 0.254009 2.5C0.254009 1.95367 0.678558 1.56026 1.11088 1.29855C1.56924 1.02108 2.19792 0.789712 2.92844 0.602669Z" fill="#306E2B"/>
<path fill-rule="evenodd" clip-rule="evenodd" d="M0.770749 2C1.05835 2 1.2915 2.22386 1.2915 2.5V5.5C1.2915 5.50617 1.30421 5.63895 1.66225 5.85575C1.99432 6.05682 2.50946 6.2564 3.19244 6.43126C4.55076 6.77902 6.45633 7 8.58198 7C10.7076 7 12.6132 6.77902 13.9715 6.43126C14.6545 6.2564 15.1696 6.05682 15.5017 5.85575C15.8597 5.63895 15.8725 5.50617 15.8725 5.5V2.5C15.8725 2.22386 16.1056 2 16.3932 2C16.6808 2 16.914 2.22386 16.914 2.5V5.5C16.914 6.04633 16.4896 6.4398 16.0573 6.7016C15.5989 6.97911 14.9703 7.21048 14.2399 7.39749C12.7713 7.77348 10.7713 8 8.58198 8C6.3927 8 4.39266 7.77348 2.9241 7.39749C2.19363 7.21048 1.56501 6.97911 1.10669 6.7016C0.674328 6.4398 0.25 6.04633 0.25 5.5V2.5C0.25 2.22386 0.483147 2 0.770749 2Z" fill="#306E2B"/>
<path fill-rule="evenodd" clip-rule="evenodd" d="M0.770749 5C1.05835 5 1.2915 5.22386 1.2915 5.5V8.5C1.2915 8.50617 1.30421 8.63895 1.66225 8.85575C1.99432 9.05682 2.50946 9.2564 3.19244 9.43126C4.55076 9.77902 6.45633 10 8.58198 10C10.7076 10 12.6132 9.77902 13.9715 9.43126C14.6545 9.2564 15.1696 9.05682 15.5017 8.85575C15.8597 8.63895 15.8725 8.50617 15.8725 8.5V5.5C15.8725 5.22386 16.1056 5 16.3932 5C16.6808 5 16.914 5.22386 16.914 5.5V8.5C16.914 9.04633 16.4896 9.4398 16.0573 9.7016C15.5989 9.97911 14.9703 10.2105 14.2399 10.3975C12.7713 10.7735 10.7713 11 8.58198 11C6.3927 11 4.39266 10.7735 2.9241 10.3975C2.19363 10.2105 1.56501 9.97911 1.10669 9.7016C0.674328 9.4398 0.25 9.04633 0.25 8.5V5.5C0.25 5.22386 0.483147 5 0.770749 5Z" fill="#306E2B"/>
<path fill-rule="evenodd" clip-rule="evenodd" d="M9.99837 15.1445C9.64014 15.3613 9.62754 15.494 9.62754 15.5C9.62754 15.506 9.64014 15.6387 9.99837 15.8555C10.3305 16.0566 10.8458 16.2562 11.5288 16.4311C12.8873 16.7789 14.7929 17 16.918 17C19.0432 17 20.9488 16.7789 22.3072 16.4311C22.9903 16.2562 23.5055 16.0566 23.8377 15.8555C24.1959 15.6387 24.2085 15.506 24.2085 15.5C24.2085 15.494 24.1959 15.3613 23.8377 15.1445C23.5055 14.9434 22.9903 14.7438 22.3072 14.5689C20.9488 14.2211 19.0432 14 16.918 14C14.7929 14 12.8873 14.2211 11.5288 14.5689C10.8458 14.7438 10.3305 14.9434 9.99837 15.1445ZM11.2605 13.6027C12.7291 13.2266 14.7292 13 16.918 13C19.1069 13 21.1069 13.2266 22.5756 13.6027C23.3061 13.7897 23.9348 14.0211 24.3931 14.2986C24.8255 14.5603 25.25 14.9537 25.25 15.5C25.25 16.0463 24.8255 16.4397 24.3931 16.7014C23.9348 16.9789 23.3061 17.2103 22.5756 17.3973C21.1069 17.7734 19.1069 18 16.918 18C14.7292 18 12.7291 17.7734 11.2605 17.3973C10.53 17.2103 9.90128 16.9789 9.44291 16.7014C9.01059 16.4397 8.58605 16.0463 8.58605 15.5C8.58605 14.9537 9.01059 14.5603 9.44291 14.2986C9.90128 14.0211 10.53 13.7897 11.2605 13.6027Z" fill="#306E2B"/>
<path fill-rule="evenodd" clip-rule="evenodd" d="M9.10273 15C9.39033 15 9.62347 15.2239 9.62347 15.5V18.5C9.62347 18.5062 9.63618 18.639 9.99422 18.8557C10.3263 19.0568 10.8414 19.2564 11.5244 19.4313C12.8827 19.779 14.7883 20 16.914 20C19.0396 20 20.9452 19.779 22.3035 19.4313C22.9865 19.2564 23.5016 19.0568 23.8337 18.8557C24.1917 18.639 24.2044 18.5062 24.2044 18.5V15.5C24.2044 15.2239 24.4376 15 24.7252 15C25.0128 15 25.2459 15.2239 25.2459 15.5V18.5C25.2459 19.0463 24.8216 19.4398 24.3892 19.7016C23.9309 19.9791 23.3023 20.2105 22.5718 20.3975C21.1033 20.7735 19.1032 21 16.914 21C14.7247 21 12.7246 20.7735 11.2561 20.3975C10.5256 20.2105 9.89699 19.9791 9.43866 19.7016C9.0063 19.4398 8.58198 19.0463 8.58198 18.5V15.5C8.58198 15.2239 8.81512 15 9.10273 15Z" fill="#306E2B"/>
<path fill-rule="evenodd" clip-rule="evenodd" d="M0.770749 8C1.05835 8 1.2915 8.22386 1.2915 8.5V11.5C1.2915 11.5062 1.30421 11.639 1.66225 11.8557C1.99432 12.0568 2.50946 12.2564 3.19244 12.4313C4.55076 12.779 6.45633 13 8.58198 13C10.7076 13 12.6132 12.779 13.9715 12.4313C14.6545 12.2564 15.1696 12.0568 15.5017 11.8557C15.8597 11.639 15.8725 11.5062 15.8725 11.5V8.5C15.8725 8.22386 16.1056 8 16.3932 8C16.6808 8 16.914 8.22386 16.914 8.5V11.5C16.914 12.0463 16.4896 12.4398 16.0573 12.7016C15.5989 12.9791 14.9703 13.2105 14.2399 13.3975C12.7713 13.7735 10.7713 14 8.58198 14C6.3927 14 4.39266 13.7735 2.9241 13.3975C2.19363 13.2105 1.56501 12.9791 1.10669 12.7016C0.674328 12.4398 0.25 12.0463 0.25 11.5V8.5C0.25 8.22386 0.483147 8 0.770749 8ZM9.10273 18C9.39033 18 9.62347 18.2239 9.62347 18.5V21.5C9.62347 21.5062 9.63618 21.639 9.99422 21.8557C10.3263 22.0568 10.8414 22.2564 11.5244 22.4313C12.8827 22.779 14.7883 23 16.914 23C19.0396 23 20.9452 22.779 22.3035 22.4313C22.9865 22.2564 23.5016 22.0568 23.8337 21.8557C24.1917 21.639 24.2044 21.5062 24.2044 21.5V18.5C24.2044 18.2239 24.4376 18 24.7252 18C25.0128 18 25.2459 18.2239 25.2459 18.5V21.5C25.2459 22.0463 24.8216 22.4398 24.3892 22.7016C23.9309 22.9791 23.3023 23.2105 22.5718 23.3975C21.1033 23.7735 19.1032 24 16.914 24C14.7247 24 12.7246 23.7735 11.2561 23.3975C10.5256 23.2105 9.89699 22.9791 9.43866 22.7016C9.0063 22.4398 8.58198 22.0463 8.58198 21.5V18.5C8.58198 18.2239 8.81512 18 9.10273 18Z" fill="#306E2B"/>
<path fill-rule="evenodd" clip-rule="evenodd" d="M0.770749 11C1.05835 11 1.2915 11.2239 1.2915 11.5V14.5C1.2915 14.5061 1.30418 14.6389 1.66235 14.8557C1.99452 15.0568 2.50977 15.2564 3.19281 15.4313C4.55128 15.779 6.45686 16 8.58198 16H9.10273C9.39033 16 9.62347 16.2239 9.62347 16.5C9.62347 16.7761 9.39033 17 9.10273 17H8.58198C6.39321 17 4.39318 16.7735 2.9245 16.3975C2.19397 16.2105 1.56527 15.9791 1.10688 15.7016C0.674483 15.4399 0.25 15.0464 0.25 14.5V11.5C0.25 11.2239 0.483147 11 0.770749 11Z" fill="#306E2B"/>
<path fill-rule="evenodd" clip-rule="evenodd" d="M0.770749 14C1.05835 14 1.2915 14.2239 1.2915 14.5V17.5C1.2915 17.5061 1.30418 17.6389 1.66235 17.8557C1.99452 18.0568 2.50977 18.2564 3.19281 18.4313C4.55128 18.779 6.45686 19 8.58198 19H9.10273C9.39033 19 9.62347 19.2239 9.62347 19.5C9.62347 19.7761 9.39033 20 9.10273 20H8.58198C6.39321 20 4.39318 19.7735 2.9245 19.3975C2.19397 19.2105 1.56527 18.9791 1.10688 18.7016C0.674483 18.4399 0.25 18.0464 0.25 17.5V14.5C0.25 14.2239 0.483147 14 0.770749 14Z" fill="#306E2B"/>
<path fill-rule="evenodd" clip-rule="evenodd" d="M16.3973 11C16.6849 11 16.918 11.2239 16.918 11.5V13.5C16.918 13.7761 16.6849 14 16.3973 14C16.1097 14 15.8765 13.7761 15.8765 13.5V11.5C15.8765 11.2239 16.1097 11 16.3973 11Z" fill="#306E2B"/>
</svg>
