<svg width="48" height="48" viewBox="0 0 48 48" fill="none" xmlns="http://www.w3.org/2000/svg">
<path d="M37.8544 10.2487C36.06 8.43633 33.9258 6.99565 31.5738 6.0092C29.2219 5.02274 26.6985 4.50989 24.1481 4.5H24C18.8283 4.5 13.8684 6.55446 10.2114 10.2114C6.55446 13.8684 4.5 18.8283 4.5 24V34.5C4.5 35.6935 4.97411 36.8381 5.81802 37.682C6.66193 38.5259 7.80653 39 9 39H12C13.1935 39 14.3381 38.5259 15.182 37.682C16.0259 36.8381 16.5 35.6935 16.5 34.5V27C16.5 25.8065 16.0259 24.6619 15.182 23.818C14.3381 22.9741 13.1935 22.5 12 22.5H7.5675C7.85678 19.3724 9.03157 16.392 10.9542 13.9082C12.8768 11.4244 15.4675 9.54006 18.4228 8.47606C21.3781 7.41206 24.5754 7.21248 27.6401 7.9007C30.7047 8.58893 33.5097 10.1364 35.7263 12.3619C38.4354 15.0849 40.1018 18.6732 40.4344 22.5H36C34.8065 22.5 33.6619 22.9741 32.818 23.818C31.9741 24.6619 31.5 25.8065 31.5 27V34.5C31.5 35.6935 31.9741 36.8381 32.818 37.682C33.6619 38.5259 34.8065 39 36 39H40.5C40.5 40.1935 40.0259 41.3381 39.182 42.182C38.3381 43.0259 37.1935 43.5 36 43.5H25.5C25.1022 43.5 24.7206 43.658 24.4393 43.9393C24.158 44.2206 24 44.6022 24 45C24 45.3978 24.158 45.7794 24.4393 46.0607C24.7206 46.342 25.1022 46.5 25.5 46.5H36C37.9891 46.5 39.8968 45.7098 41.3033 44.3033C42.7098 42.8968 43.5 40.9891 43.5 39V24C43.5098 21.4492 43.0161 18.9215 42.0473 16.5619C41.0786 14.2022 39.6537 12.0568 37.8544 10.2487ZM12 25.5C12.3978 25.5 12.7794 25.658 13.0607 25.9393C13.342 26.2206 13.5 26.6022 13.5 27V34.5C13.5 34.8978 13.342 35.2794 13.0607 35.5607C12.7794 35.842 12.3978 36 12 36H9C8.60218 36 8.22064 35.842 7.93934 35.5607C7.65804 35.2794 7.5 34.8978 7.5 34.5V25.5H12ZM36 36C35.6022 36 35.2206 35.842 34.9393 35.5607C34.658 35.2794 34.5 34.8978 34.5 34.5V27C34.5 26.6022 34.658 26.2206 34.9393 25.9393C35.2206 25.658 35.6022 25.5 36 25.5H40.5V36H36Z" fill="white"/>
</svg>
