<svg width="20" height="20" viewBox="0 0 20 20" fill="none" xmlns="http://www.w3.org/2000/svg">
<g clip-path="url(#clip0_30_31609)">
<path fill-rule="evenodd" clip-rule="evenodd" d="M2.2501 10.3422L2.19438 9.72795C1.89438 6.08509 4.73153 2.25223 10.0001 2.25223C15.2687 2.25223 18.1072 6.08509 17.8058 9.72795L17.7501 10.3379C17.2099 10.0274 16.6002 9.85798 15.9773 9.8453C15.3543 9.83261 14.7383 9.97708 14.1859 10.2654C13.6335 10.5536 13.1627 10.9765 12.8169 11.4947C12.4711 12.013 12.2614 12.6101 12.2072 13.2308L11.9787 15.8579C11.9039 16.8319 12.2163 17.796 12.8482 18.541C13.4801 19.2859 14.3804 19.7514 15.3535 19.8365C16.3266 19.9215 17.294 19.6192 18.0455 18.9952C18.797 18.3712 19.272 17.4758 19.3672 16.5037L19.5958 13.8779C19.6053 13.7818 19.6101 13.6865 19.6101 13.5922L19.9401 9.91509V9.90937C20.3515 4.96795 16.4744 0.109375 10.0001 0.109375C3.52438 0.109375 -0.351332 4.96795 0.0572398 9.90937V9.91509L0.388668 13.5937H0.395811C0.396764 13.6879 0.401526 13.7827 0.410097 13.8779L0.640097 16.5037C0.677649 16.9925 0.811763 17.4691 1.03468 17.9058C1.2576 18.3424 1.5649 18.7306 1.93879 19.0478C2.31269 19.3649 2.74577 19.6048 3.21297 19.7535C3.68017 19.9022 4.17222 19.9568 4.66065 19.9141C5.14908 19.8714 5.62421 19.7323 6.05853 19.5048C6.49285 19.2773 6.87775 18.966 7.19097 18.5888C7.50418 18.2115 7.73949 17.776 7.88328 17.3072C8.02707 16.8385 8.07648 16.3459 8.02867 15.8579L7.8001 13.2308C7.74564 12.6095 7.53539 12.012 7.1888 11.4936C6.8422 10.9751 6.37045 10.5524 5.81718 10.2646C5.26392 9.97678 4.647 9.83314 4.02351 9.84696C3.40001 9.86078 2.79007 10.0316 2.2501 10.3437" fill="#090A0B"/>
</g>
<defs>
<clipPath id="clip0_30_31609">
<rect width="20" height="20" fill="white"/>
</clipPath>
</defs>
</svg>
