<svg width="24" height="24" viewBox="0 0 24 24" fill="none" xmlns="http://www.w3.org/2000/svg">
<path d="M9.19531 14.75C9.04948 14.75 8.92708 14.7005 8.82812 14.6016C8.72917 14.5026 8.67969 14.3802 8.67969 14.2344C8.67969 14.0938 8.72917 13.9766 8.82812 13.8828C8.92708 13.7839 9.04948 13.7344 9.19531 13.7344H14.8047C14.9557 13.7344 15.0781 13.7839 15.1719 13.8828C15.2708 13.9766 15.3203 14.0938 15.3203 14.2344C15.3203 14.3802 15.2708 14.5026 15.1719 14.6016C15.0781 14.7005 14.9557 14.75 14.8047 14.75H9.19531ZM9.19531 16.9609C9.04948 16.9609 8.92708 16.9141 8.82812 16.8203C8.72917 16.7214 8.67969 16.6042 8.67969 16.4688C8.67969 16.3229 8.72917 16.2005 8.82812 16.1016C8.92708 16.0026 9.04948 15.9531 9.19531 15.9531H11.9531C12.099 15.9531 12.2188 16.0026 12.3125 16.1016C12.4115 16.2005 12.4609 16.3229 12.4609 16.4688C12.4609 16.6042 12.4115 16.7214 12.3125 16.8203C12.2188 16.9141 12.099 16.9609 11.9531 16.9609H9.19531ZM10.4141 12C9.9401 12 9.70312 11.763 9.70312 11.2891V10.7344C9.70312 10.6823 9.6875 10.6406 9.65625 10.6094L9.25781 10.2109C8.92448 9.8776 8.92448 9.53906 9.25781 9.19531L9.65625 8.80469C9.6875 8.77344 9.70312 8.73438 9.70312 8.6875V8.125C9.70312 7.64583 9.9401 7.40625 10.4141 7.40625H10.9844C11.026 7.40625 11.0651 7.39062 11.1016 7.35938L11.5 6.96875C11.8385 6.625 12.1745 6.625 12.5078 6.96875L12.9062 7.35938C12.9531 7.39062 12.9948 7.40625 13.0312 7.40625H13.5859C14.0651 7.40625 14.3047 7.64583 14.3047 8.125V8.6875C14.3047 8.72917 14.3203 8.76823 14.3516 8.80469L14.75 9.19531C15.0833 9.53906 15.0833 9.8776 14.75 10.2109L14.3516 10.6094C14.3203 10.6458 14.3047 10.6875 14.3047 10.7344V11.2891C14.3047 11.763 14.0651 12 13.5859 12H13.0312C12.9948 12 12.9531 12.0182 12.9062 12.0547L12.5078 12.4453C12.1693 12.7839 11.8333 12.7839 11.5 12.4453L11.1016 12.0547C11.0599 12.0182 11.0208 12 10.9844 12H10.4141ZM11.7109 11.0781C11.8464 11.0781 11.9531 11.0182 12.0312 10.8984L13.25 9C13.3021 8.92188 13.3281 8.84635 13.3281 8.77344C13.3281 8.67969 13.2943 8.60417 13.2266 8.54688C13.1641 8.48958 13.0885 8.46094 13 8.46094C12.8906 8.46094 12.7969 8.52083 12.7188 8.64062L11.7031 10.25L11.2656 9.71875C11.1875 9.61979 11.099 9.57031 11 9.57031C10.901 9.57031 10.8203 9.60417 10.7578 9.67188C10.6953 9.73438 10.6641 9.8125 10.6641 9.90625C10.6641 9.98958 10.6953 10.0651 10.7578 10.1328L11.3906 10.9062C11.4427 10.9635 11.4922 11.0078 11.5391 11.0391C11.5911 11.0651 11.6484 11.0781 11.7109 11.0781ZM5.20312 18.2344V6.49219C5.20312 5.63281 5.42448 4.97656 5.86719 4.52344C6.3151 4.07031 6.96875 3.84375 7.82812 3.84375H16.1719C17.026 3.84375 17.6771 4.07031 18.125 4.52344C18.5729 4.97656 18.7969 5.63281 18.7969 6.49219V18.2344C18.7969 19.099 18.5729 19.7552 18.125 20.2031C17.6771 20.651 17.026 20.875 16.1719 20.875H7.82812C6.96875 20.875 6.3151 20.651 5.86719 20.2031C5.42448 19.7552 5.20312 19.099 5.20312 18.2344ZM6.9375 18.0859C6.9375 18.4297 7.02604 18.6901 7.20312 18.8672C7.38021 19.0495 7.64844 19.1406 8.00781 19.1406H15.9922C16.3516 19.1406 16.6172 19.0495 16.7891 18.8672C16.9661 18.6901 17.0547 18.4297 17.0547 18.0859V6.64062C17.0547 6.30208 16.9661 6.04167 16.7891 5.85938C16.6172 5.67708 16.3516 5.58594 15.9922 5.58594H8.00781C7.64844 5.58594 7.38021 5.67708 7.20312 5.85938C7.02604 6.04167 6.9375 6.30208 6.9375 6.64062V18.0859Z" fill="black"/>
</svg>
