<svg width="64" height="104" viewBox="0 0 64 104" fill="none" xmlns="http://www.w3.org/2000/svg">
<rect width="64" height="104" fill="url(#paint0_linear_2_1823)"/>
<path d="M18.3141 79.5747C17.8255 78.7304 18.1167 77.6678 18.9555 77.1842C19.7922 76.7012 20.8638 76.9847 21.3474 77.8235C21.8311 78.6602 21.5448 79.7304 20.7067 80.2154C20.4287 80.3746 20.1264 80.4496 19.829 80.4496C19.2265 80.4496 18.6407 80.1383 18.3141 79.5747ZM24.3613 74.3711C23.6191 73.025 20.7616 73.4698 21.6859 75.3947C20.5573 74.7616 19.1355 74.7227 17.9346 75.4149C16.1216 76.4621 15.501 78.7818 16.5462 80.5935C17.5934 82.4024 19.9138 83.025 21.7269 81.9798C22.927 81.2877 23.6059 80.0389 23.6233 78.7477C24.8283 80.5066 26.6435 78.2571 25.8485 76.9437C26.5941 76.3885 28.0326 75.4746 29.3718 74.6588C29.4336 73.6803 29.4753 72.7269 29.4955 71.7331C27.8957 72.6366 25.5219 73.8687 24.3613 74.3711ZM43.2946 80.2154C42.4558 79.7304 42.1695 78.6602 42.6525 77.8235C43.1362 76.9847 44.2071 76.7012 45.0444 77.1842C45.8839 77.6678 46.1744 78.7304 45.6859 79.5747C45.3606 80.1383 44.7755 80.4496 44.1709 80.4496C43.8742 80.4496 43.5719 80.3746 43.2946 80.2154ZM34.6296 74.6588C35.9673 75.4746 37.4058 76.3885 38.1522 76.9437C37.3579 78.2571 39.1723 80.5066 40.3766 78.7477C40.394 80.0389 41.0722 81.2877 42.2731 81.9798C44.0861 83.025 46.4051 82.4024 47.4544 80.5935C48.4996 78.7818 47.8797 76.4621 46.066 75.4149C44.8652 74.7227 43.444 74.7616 42.3141 75.3947C43.239 73.4698 40.3815 73.025 39.6393 74.3711C38.4781 73.8687 36.1049 72.6366 34.5052 71.7331C34.526 72.7269 34.5677 73.6803 34.6296 74.6588ZM30.2488 57.6129C30.2488 56.6477 31.025 55.8638 32 55.8638C32.9763 55.8638 33.7512 56.6477 33.7512 57.6143C33.7512 58.5803 32.9666 59.3648 32 59.3648C31.0319 59.3648 30.2488 58.5803 30.2488 57.6129ZM28.2071 57.6129C28.2071 58.9986 28.9506 60.2106 30.0618 60.8721C27.934 61.034 28.977 63.729 30.5142 63.6998C30.6761 65.1126 30.7609 68.353 30.7609 70.1362C30.7609 76.7498 29.8471 84.8409 27.5726 87.0299C25.9465 87.1564 24.0097 86.9312 21.9972 86.3912C19.8248 85.811 17.9972 84.9416 16.6178 83.9312C14.9722 84.1522 13.5399 84.5844 12.4496 85.1654C14.9291 87.3099 17.7074 89.335 20.7693 91.0994C24.3731 93.1807 28.3426 94.8819 32 96C35.6185 94.8819 39.6268 93.1807 43.2307 91.0994C46.2918 89.335 49.0702 87.3099 51.5517 85.1654C50.46 84.5844 49.0285 84.1522 47.3829 83.9312C46.0021 84.9423 44.1744 85.8138 42.0028 86.394C39.9902 86.9312 38.0542 87.1564 36.4273 87.032C34.1522 84.8409 33.239 76.7498 33.239 70.1362C33.239 68.3537 33.3231 65.1147 33.4864 63.6998C35.0222 63.7297 36.0674 61.034 33.9381 60.8721C35.0486 60.2113 35.7922 58.9986 35.7922 57.6143C35.7922 55.5219 34.0938 53.8256 32 53.8242C29.9068 53.8256 28.2071 55.5219 28.2071 57.6129ZM20.7623 52.2328C17.0563 54.3704 13.7505 56.8332 10.9055 59.5045C10.0132 63.3065 9.53854 67.3864 9.53437 71.665C9.53298 75.1981 9.8999 78.6192 10.5156 81.8381C11.5656 81.1835 12.6567 80.1584 13.672 78.8485C13.4857 77.1459 13.6449 75.1306 14.2272 72.9597C14.7658 70.9507 15.5406 69.1626 16.4607 67.8158C18.9541 67.0994 24.4406 69.1362 29.4948 71.7283C29.508 71.1835 29.5128 70.6713 29.5128 70.1313C29.5128 69.6901 29.5073 69.1577 29.4968 68.5858C25.2362 65.7012 21.4538 62.4364 20.886 60.1543C21.5955 58.6838 22.756 57.1195 24.2279 55.6484C25.8193 54.0605 27.4871 52.9138 29.0542 52.2245C29.6845 50.6901 30.0243 49.2342 30.066 48C26.9708 49.0757 23.8242 50.4656 20.7623 52.2328ZM34.9465 52.2245C36.5128 52.9138 38.1813 54.0605 39.772 55.6484C41.2439 57.1195 42.4065 58.6838 43.1146 60.1543C42.5462 62.4364 38.7644 65.7012 34.5031 68.5858C34.4934 69.1577 34.4885 69.6901 34.4885 70.1313C34.4885 70.6713 34.4934 71.1835 34.5052 71.7283C39.5608 69.1362 45.0472 67.0994 47.5385 67.8158C48.46 69.1626 49.2349 70.9507 49.7734 72.9597C50.3558 75.1306 50.5163 77.1459 50.328 78.8485C51.3433 80.1584 52.4357 81.1835 53.485 81.8381C54.1007 78.6192 54.4677 75.1981 54.4656 71.665C54.4621 67.3864 53.9875 63.3065 53.0938 59.5045C50.2488 56.8332 46.9437 54.3704 43.2376 52.2328C40.1751 50.4656 37.0305 49.0757 33.9333 48C33.9763 49.2342 34.3169 50.6901 34.9465 52.2245Z" fill="white"/>
<defs>
<linearGradient id="paint0_linear_2_1823" x1="0" y1="52" x2="64" y2="52" gradientUnits="userSpaceOnUse">
<stop stop-color="#009677"/>
<stop offset="1" stop-color="#50B848"/>
</linearGradient>
</defs>
</svg>
