<svg width="20" height="20" viewBox="0 0 20 20" fill="none" xmlns="http://www.w3.org/2000/svg">
<path fill-rule="evenodd" clip-rule="evenodd" d="M12.2532 5.82054C12.2532 5.6551 12.3875 5.521 12.5532 5.521H17.2C17.3657 5.521 17.5 5.6551 17.5 5.82054V9.81893C17.5 9.98436 17.3657 10.1185 17.2 10.1185C17.0343 10.1185 16.9 9.98436 16.9 9.81893V6.613L12.8451 11.2034L12.8434 11.2053C12.6724 11.3957 12.4344 11.5128 12.179 11.5324C11.9237 11.5521 11.6706 11.4726 11.4724 11.3106L11.4703 11.309L8.48167 8.82224C8.40281 8.75822 8.30239 8.72675 8.20101 8.73431C8.09963 8.74188 8.00502 8.78789 7.93656 8.86289L3.02419 14.3788C2.91409 14.5025 2.72447 14.5136 2.60065 14.4036C2.47684 14.2937 2.46572 14.1044 2.57582 13.9807L7.48923 8.46364L7.49107 8.46158C7.66291 8.27218 7.90106 8.15594 8.1563 8.1369C8.41154 8.11786 8.66435 8.19747 8.86246 8.35927L8.86458 8.36101L11.8524 10.847C11.8527 10.8473 11.853 10.8475 11.8532 10.8478C11.9318 10.9116 12.032 10.9429 12.133 10.9351C12.234 10.9274 12.3282 10.8811 12.3961 10.806C12.3964 10.8058 12.3966 10.8055 12.3968 10.8052L16.5354 6.12008H12.5532C12.3875 6.12008 12.2532 5.98597 12.2532 5.82054Z" fill="white"/>
</svg>
