<svg width="48" height="48" viewBox="0 0 48 48" fill="none" xmlns="http://www.w3.org/2000/svg">
<path d="M24 0C19.2533 0 14.6131 1.40758 10.6663 4.04473C6.71954 6.68188 3.6434 10.4302 1.8269 14.8156C0.0103987 19.201 -0.464881 24.0266 0.461164 28.6822C1.38721 33.3377 3.67299 37.6141 7.02945 40.9706C10.3859 44.327 14.6623 46.6128 19.3178 47.5388C23.9734 48.4649 28.799 47.9896 33.1844 46.1731C37.5698 44.3566 41.3181 41.2805 43.9553 37.3337C46.5924 33.3869 48 28.7467 48 24C47.9933 17.6369 45.4626 11.5363 40.9631 7.03686C36.4637 2.53744 30.3631 0.00671958 24 0ZM11.5569 40.0385C12.8925 37.9497 14.7323 36.2308 16.9069 35.0401C19.0815 33.8495 21.5208 33.2254 24 33.2254C26.4792 33.2254 28.9185 33.8495 31.0931 35.0401C33.2677 36.2308 35.1075 37.9497 36.4431 40.0385C32.8854 42.8053 28.507 44.3075 24 44.3075C19.493 44.3075 15.1146 42.8053 11.5569 40.0385ZM16.6154 22.1538C16.6154 20.6933 17.0485 19.2656 17.8599 18.0512C18.6714 16.8368 19.8247 15.8903 21.174 15.3313C22.5234 14.7724 24.0082 14.6262 25.4407 14.9111C26.8731 15.1961 28.189 15.8994 29.2217 16.9321C30.2545 17.9649 30.9578 19.2807 31.2427 20.7132C31.5277 22.1457 31.3814 23.6305 30.8225 24.9798C30.2636 26.3292 29.3171 27.4825 28.1027 28.2939C26.8883 29.1054 25.4605 29.5385 24 29.5385C22.0415 29.5385 20.1632 28.7604 18.7783 27.3756C17.3934 25.9907 16.6154 24.1124 16.6154 22.1538ZM39.1754 37.4792C37.1164 34.4956 34.2212 32.1873 30.8539 30.8446C32.6627 29.4199 33.9826 27.467 34.63 25.2574C35.2774 23.0479 35.2202 20.6914 34.4663 18.5159C33.7125 16.3403 32.2994 14.4537 30.4236 13.1185C28.5478 11.7833 26.3025 11.0658 24 11.0658C21.6975 11.0658 19.4523 11.7833 17.5765 13.1185C15.7007 14.4537 14.2876 16.3403 13.5337 18.5159C12.7798 20.6914 12.7226 23.0479 13.37 25.2574C14.0175 27.467 15.3374 29.4199 17.1462 30.8446C13.7788 32.1873 10.8836 34.4956 8.82463 37.4792C6.22286 34.5535 4.52233 30.9379 3.92781 27.0681C3.33328 23.1982 3.87012 19.239 5.47366 15.6671C7.07721 12.0953 9.6791 9.06318 12.966 6.93585C16.2529 4.80853 20.0847 3.67672 24 3.67672C27.9153 3.67672 31.7471 4.80853 35.034 6.93585C38.3209 9.06318 40.9228 12.0953 42.5263 15.6671C44.1299 19.239 44.6667 23.1982 44.0722 27.0681C43.4777 30.9379 41.7772 34.5535 39.1754 37.4792Z" fill="white"/>
</svg>
