<svg width="48" height="48" viewBox="0 0 48 48" fill="none" xmlns="http://www.w3.org/2000/svg">
<path fill-rule="evenodd" clip-rule="evenodd" d="M33.9847 9.85964C33.5657 8.89301 32.4381 8.4457 31.4635 8.86398L8.36848 18.7766C7.395 19.1944 6.94904 20.3152 7.36759 21.2808L7.368 21.2817L10.5992 28.7647V21.6786C10.5992 19.8184 12.0913 18.2941 13.9545 18.2941H37.5973L37.126 17.1063L33.9847 9.85964ZM39.1721 18.3054L38.4793 16.5595C38.4779 16.556 38.4765 16.5525 38.475 16.549C38.4736 16.5455 38.4721 16.542 38.4706 16.5385L35.3247 9.28129C34.585 7.57486 32.5984 6.79099 30.8866 7.5257L7.79159 17.4383C6.07901 18.1734 5.28766 20.151 6.02725 21.8584C6.02736 21.8586 6.02747 21.8589 6.02758 21.8591L10.4759 32.161C10.5074 32.2338 10.5493 32.2989 10.5992 32.3552V37.6154C10.5992 39.4757 12.0913 41 13.9545 41H38.8947C40.7579 41 42.25 39.4757 42.25 37.6154V21.6786C42.25 19.9117 40.9038 18.4478 39.1721 18.3054ZM40.79 23.6064V21.6786C40.79 20.6039 39.9325 19.7509 38.8947 19.7509H13.9545C12.9166 19.7509 12.0592 20.6039 12.0592 21.6786V23.6064H40.79ZM12.0592 25.0632H40.79V37.6154C40.79 38.6902 39.9325 39.5432 38.8947 39.5432H13.9545C12.9166 39.5432 12.0592 38.6902 12.0592 37.6154V25.0632ZM14.5371 29.647C14.5371 29.2447 14.8639 28.9186 15.2671 28.9186H25.7683C26.1714 28.9186 26.4983 29.2447 26.4983 29.647C26.4983 30.0493 26.1714 30.3755 25.7683 30.3755H15.2671C14.8639 30.3755 14.5371 30.0493 14.5371 29.647ZM32.9141 29.647C32.9141 29.2447 33.241 28.9186 33.6441 28.9186H37.5821C37.9852 28.9186 38.3121 29.2447 38.3121 29.647C38.3121 30.0493 37.9852 30.3755 37.5821 30.3755H33.6441C33.241 30.3755 32.9141 30.0493 32.9141 29.647ZM14.5371 33.6312C14.5371 33.2289 14.8639 32.9028 15.2671 32.9028H19.205C19.6082 32.9028 19.935 33.2289 19.935 33.6312C19.935 34.0335 19.6082 34.3597 19.205 34.3597H15.2671C14.8639 34.3597 14.5371 34.0335 14.5371 33.6312Z" fill="white"/>
</svg>
