<svg width="14" height="13" viewBox="0 0 14 13" fill="none" xmlns="http://www.w3.org/2000/svg">
<path d="M13.6328 10.2202L8.50881 1.32152C8.38076 1.10351 8.19797 0.922745 7.97854 0.797144C7.75911 0.671544 7.51066 0.605469 7.25783 0.605469C7.005 0.605469 6.75655 0.671544 6.53712 0.797144C6.31769 0.922745 6.1349 1.10351 6.00685 1.32152L0.882831 10.2202C0.759629 10.431 0.694702 10.6709 0.694702 10.9151C0.694702 11.1593 0.759629 11.3991 0.882831 11.61C1.00924 11.8293 1.19172 12.0111 1.41156 12.1366C1.6314 12.2621 1.88067 12.3269 2.13381 12.3243H12.3819C12.6348 12.3267 12.8838 12.2618 13.1034 12.1363C13.3231 12.0108 13.5054 11.8292 13.6317 11.61C13.755 11.3992 13.8202 11.1595 13.8204 10.9152C13.8206 10.671 13.7559 10.4311 13.6328 10.2202ZM6.78908 5.29301C6.78908 5.16869 6.83847 5.04946 6.92637 4.96155C7.01428 4.87364 7.13351 4.82426 7.25783 4.82426C7.38215 4.82426 7.50138 4.87364 7.58929 4.96155C7.6772 5.04946 7.72658 5.16869 7.72658 5.29301V7.63676C7.72658 7.76108 7.6772 7.88031 7.58929 7.96821C7.50138 8.05612 7.38215 8.10551 7.25783 8.10551C7.13351 8.10551 7.01428 8.05612 6.92637 7.96821C6.83847 7.88031 6.78908 7.76108 6.78908 7.63676V5.29301ZM7.25783 10.4493C7.11877 10.4493 6.98282 10.408 6.8672 10.3308C6.75157 10.2535 6.66145 10.1437 6.60823 10.0152C6.55501 9.88673 6.54109 9.74535 6.56822 9.60896C6.59535 9.47257 6.66231 9.34728 6.76065 9.24895C6.85898 9.15061 6.98426 9.08365 7.12066 9.05652C7.25705 9.02939 7.39843 9.04331 7.5269 9.09653C7.65538 9.14975 7.7652 9.23987 7.84246 9.3555C7.91972 9.47113 7.96096 9.60707 7.96096 9.74613C7.96096 9.93261 7.88688 10.1115 7.75501 10.2433C7.62315 10.3752 7.44431 10.4493 7.25783 10.4493Z" fill="#FF0000"/>
</svg>
