<svg width="32" height="32" viewBox="0 0 32 32" fill="none" xmlns="http://www.w3.org/2000/svg">
<path fill-rule="evenodd" clip-rule="evenodd" d="M4.90477 4.33398C4.7928 4.33398 4.68527 4.37852 4.60587 4.45804C4.52644 4.53758 4.48169 4.64562 4.48169 4.75843V10.3051C4.48169 10.4179 4.52644 10.526 4.60587 10.6055C4.68527 10.685 4.7928 10.7296 4.90477 10.7296C5.18091 10.7296 5.40477 10.9534 5.40477 11.2296C5.40477 11.5057 5.18091 11.7296 4.90477 11.7296C4.5271 11.7296 4.16506 11.5793 3.89824 11.3121C3.63144 11.0449 3.48169 10.6827 3.48169 10.3051V4.75843C3.48169 4.38089 3.63144 4.01865 3.89824 3.75146C4.16506 3.48424 4.5271 3.33398 4.90477 3.33398H27.0586C27.4363 3.33398 27.7983 3.48424 28.0651 3.75146C28.3319 4.01865 28.4817 4.38089 28.4817 4.75843V10.3051C28.4817 10.6827 28.3319 11.0449 28.0651 11.3121C27.7983 11.5793 27.4363 11.7296 27.0586 11.7296C26.7825 11.7296 26.5586 11.5057 26.5586 11.2296C26.5586 10.9534 26.7825 10.7296 27.0586 10.7296C27.1706 10.7296 27.2781 10.685 27.3575 10.6055C27.4369 10.526 27.4817 10.4179 27.4817 10.3051V4.75843C27.4817 4.64562 27.4369 4.53758 27.3575 4.45804C27.2781 4.37852 27.1706 4.33398 27.0586 4.33398H4.90477ZM10.4426 8.95601C10.2096 8.95601 10.0195 9.14534 10.0195 9.38046V22.3228C10.0195 22.5579 10.2096 22.7472 10.4426 22.7472H21.5195C21.7525 22.7472 21.9426 22.5579 21.9426 22.3228V9.38046C21.9426 9.14534 21.7525 8.95601 21.5195 8.95601H10.4426ZM9.01949 9.38046C9.01949 8.59446 9.65592 7.95601 10.4426 7.95601H21.5195C22.3061 7.95601 22.9426 8.59446 22.9426 9.38046V22.3228C22.9426 23.1088 22.3061 23.7472 21.5195 23.7472H10.4426C9.65592 23.7472 9.01949 23.1088 9.01949 22.3228V9.38046ZM15.9809 13.5788C14.7283 13.5788 13.7117 14.5959 13.7117 15.8521C13.7117 17.1084 14.7283 18.1255 15.9809 18.1255C17.2335 18.1255 18.2501 17.1084 18.2501 15.8521C18.2501 14.5959 17.2335 13.5788 15.9809 13.5788ZM12.7117 15.8521C12.7117 14.045 14.1747 12.5788 15.9809 12.5788C17.7871 12.5788 19.2501 14.045 19.2501 15.8521C19.2501 17.6593 17.7871 19.1255 15.9809 19.1255C14.1747 19.1255 12.7117 17.6593 12.7117 15.8521ZM8.91345 27.834C8.91345 27.5578 9.13731 27.334 9.41345 27.334H22.3407C22.6168 27.334 22.8407 27.5578 22.8407 27.834C22.8407 28.1101 22.6168 28.334 22.3407 28.334H9.41345C9.13731 28.334 8.91345 28.1101 8.91345 27.834Z" fill="url(#paint0_linear_926_7211)"/>
<defs>
<linearGradient id="paint0_linear_926_7211" x1="3.48169" y1="15.834" x2="28.4817" y2="15.834" gradientUnits="userSpaceOnUse">
<stop stop-color="#009979"/>
<stop offset="1" stop-color="#3F9339"/>
</linearGradient>
</defs>
</svg>
